<svg version="1.1" viewBox="0.0 0.0 416.8320209973753 147.1522309711286" fill="none" stroke="none" stroke-linecap="square" stroke-miterlimit="10" xmlns:xlink="http://www.w3.org/1999/xlink" xmlns="http://www.w3.org/2000/svg"><clipPath id="p.0"><path d="m0 0l416.83203 0l0 147.15224l-416.83203 0l0 -147.15224z" clip-rule="nonzero"/></clipPath><g clip-path="url(#p.0)"><path fill="#000000" fill-opacity="0.0" d="m0 0l416.83203 0l0 147.15224l-416.83203 0z" fill-rule="evenodd"/><path fill="#000000" fill-opacity="0.0" d="m40.295948 100.09636l0 38.339386l240.7874 0l0 -49.363007" fill-rule="evenodd"/><path stroke="#000000" stroke-width="2.0" stroke-linejoin="round" stroke-linecap="butt" d="m40.295948 100.09637l0 38.33938l240.7874 0l0 -37.363007" fill-rule="evenodd"/><path fill="#000000" stroke="#000000" stroke-width="2.0" stroke-linecap="butt" d="m284.3868 101.07274l-3.3034668 -9.076195l-3.3034668 9.076195z" fill-rule="evenodd"/><path fill="#cfe2f3" d="m113.69621 33.70266l33.51181 0l0 66.3937l-33.51181 0z" fill-rule="evenodd"/><path stroke="#000000" stroke-width="1.0" stroke-linejoin="round" stroke-linecap="butt" d="m113.69621 33.70266l33.51181 0l0 66.3937l-33.51181 0z" fill-rule="evenodd"/><path fill="#000000" fill-opacity="0.0" d="m79.38256 -4.872143l102.14173 0l0 38.771652l-102.14173 0z" fill-rule="evenodd"/><path fill="#000000" d="m108.76274 18.003483l-0.078125 0q-0.15625 0.3125 -0.34375 0.625q-0.1875 0.296875 -0.484375 0.53125q-0.296875 0.234375 -0.71875 0.375q-0.40625 0.140625 -0.984375 0.140625q-1.828125 0 -2.71875 -1.46875q-0.890625 -1.46875 -0.890625 -4.21875q0 -2.890625 0.96875 -4.375q0.984375 -1.484375 3.015625 -1.484375q0.78125 0 1.359375 0.21875q0.578125 0.203125 0.984375 0.5625q0.40625 0.34375 0.671875 0.78125q0.28125 0.4375 0.46875 0.890625l-1.15625 0.515625q-0.140625 -0.359375 -0.328125 -0.6875q-0.1875 -0.328125 -0.453125 -0.578125q-0.265625 -0.25 -0.640625 -0.390625q-0.359375 -0.140625 -0.859375 -0.140625q-1.34375 0 -1.984375 1.015625q-0.625 1.0 -0.625 2.671875l0 1.734375q0 0.84375 0.125 1.546875q0.140625 0.6875 0.4375 1.203125q0.296875 0.515625 0.765625 0.796875q0.46875 0.28125 1.15625 0.28125q1.09375 0 1.703125 -0.65625q0.609375 -0.65625 0.609375 -1.703125l0 -1.15625l-2.359375 0l0 -1.0625l3.609375 0l0 5.515625l-1.25 0l0 -1.484375zm4.9750214 -2.703125l0 -1.34375l4.640625 0l0 1.34375l-4.640625 0zm9.725021 -5.21875l-0.109375 0l0 9.40625l-1.21875 0l0 -11.171875l1.90625 0l3.796875 9.40625l0.125 0l0 -9.40625l1.203125 0l0 11.171875l-1.890625 0l-3.8125 -9.40625zm11.787521 9.59375q-0.859375 0 -1.5625 -0.296875q-0.6875 -0.3125 -1.1875 -0.875q-0.484375 -0.5625 -0.734375 -1.359375q-0.25 -0.796875 -0.25 -1.78125q0 -0.984375 0.25 -1.78125q0.25 -0.796875 0.734375 -1.359375q0.5 -0.578125 1.1875 -0.875q0.703125 -0.3125 1.5625 -0.3125q0.859375 0 1.5625 0.3125q0.703125 0.296875 1.1875 0.875q0.484375 0.5625 0.734375 1.359375q0.265625 0.796875 0.265625 1.78125q0 0.984375 -0.265625 1.78125q-0.25 0.796875 -0.734375 1.359375q-0.484375 0.5625 -1.1875 0.875q-0.703125 0.296875 -1.5625 0.296875zm0 -1.09375q1.078125 0 1.734375 -0.640625q0.65625 -0.640625 0.65625 -1.984375l0 -1.1875q0 -1.34375 -0.65625 -1.984375q-0.65625 -0.640625 -1.734375 -0.640625q-1.0625 0 -1.71875 0.640625q-0.65625 0.640625 -0.65625 1.984375l0 1.1875q0 1.34375 0.65625 1.984375q0.65625 0.640625 1.71875 0.640625zm6.0375214 -0.1875l2.40625 0l0 -6.078125l-2.40625 0l0 -1.078125l3.6875 0l0 2.078125l0.09375 0q0.25 -0.984375 0.953125 -1.53125q0.71875 -0.546875 1.828125 -0.546875l1.140625 0l0 1.28125l-1.546875 0q-1.109375 0 -1.796875 0.640625q-0.671875 0.625 -0.671875 1.671875l0 3.5625l3.203125 0l0 1.09375l-6.890625 0l0 -1.09375zm9.225021 1.09375l0 -8.25l1.1875 0l0 0.953125l0.0625 0q0.1875 -0.484375 0.546875 -0.8125q0.359375 -0.34375 1.046875 -0.34375q0.71875 0 1.0625 0.359375q0.359375 0.359375 0.4375 0.9375l0.046875 0q0.21875 -0.5625 0.625 -0.921875q0.421875 -0.375 1.171875 -0.375q1.0 0 1.34375 0.703125q0.34375 0.703125 0.34375 2.015625l0 5.734375l-1.1875 0l0 -5.515625q0 -1.0625 -0.21875 -1.46875q-0.203125 -0.40625 -0.78125 -0.40625q-0.515625 0 -0.84375 0.328125q-0.3125 0.328125 -0.3125 1.0l0 6.0625l-1.1875 0l0 -5.515625q0 -1.0625 -0.21875 -1.46875q-0.203125 -0.40625 -0.765625 -0.40625q-0.515625 0 -0.84375 0.328125q-0.328125 0.328125 -0.328125 1.0l0 6.0625l-1.1875 0z" fill-rule="nonzero"/><path fill="#000000" fill-opacity="0.0" d="m73.50723 66.89951l40.18898 0" fill-rule="evenodd"/><path stroke="#000000" stroke-width="2.0" stroke-linejoin="round" stroke-linecap="butt" d="m73.50723 66.899506l28.18898 0" fill-rule="evenodd"/><path fill="#000000" stroke="#000000" stroke-width="2.0" stroke-linecap="butt" d="m101.69621 70.20297l9.076195 -3.3034668l-9.076195 -3.303463z" fill-rule="evenodd"/><path fill="#000000" fill-opacity="0.0" d="m147.20802 66.89951l40.0 0.09448242" fill-rule="evenodd"/><path stroke="#000000" stroke-width="2.0" stroke-linejoin="round" stroke-linecap="butt" d="m147.20802 66.899506l28.000046 0.06613922" fill-rule="evenodd"/><path fill="#000000" stroke="#000000" stroke-width="2.0" stroke-linecap="butt" d="m175.20026 70.269104l9.083969 -3.282013l-9.068359 -3.3248978z" fill-rule="evenodd"/><path fill="#f3f3f3" d="m7.099099 33.70266l66.3937 0l0 66.3937l-66.3937 0z" fill-rule="evenodd"/><path stroke="#000000" stroke-width="1.0" stroke-linejoin="round" stroke-linecap="butt" d="m7.099099 33.70266l66.3937 0l0 66.3937l-66.3937 0z" fill-rule="evenodd"/><path fill="#f3f3f3" d="m342.03986 33.419197l66.39371 0l0 66.3937l-66.39371 0z" fill-rule="evenodd"/><path stroke="#000000" stroke-width="1.0" stroke-linejoin="round" stroke-linecap="butt" d="m342.03986 33.419197l66.39371 0l0 66.3937l-66.39371 0z" fill-rule="evenodd"/><path fill="#000000" fill-opacity="0.0" d="m16.419718 30.386534l47.84252 0l0 84.031494l-47.84252 0z" fill-rule="evenodd"/><path fill="#000000" d="m38.08157 42.189034l2.53125 0q0.953125 0 1.5 0.53125q0.546875 0.515625 0.546875 1.390625q0 0.671875 -0.328125 1.0625q-0.328125 0.375 -0.84375 0.53125l0 0.03125q0.625 0.15625 1.03125 0.5625q0.40625 0.40625 0.40625 1.1875q0 0.453125 -0.15625 0.84375q-0.140625 0.390625 -0.421875 0.6875q-0.265625 0.28125 -0.640625 0.453125q-0.359375 0.15625 -0.78125 0.15625l-2.84375 0l0 -7.4375zm2.578125 6.65625q0.625 0 0.96875 -0.265625q0.359375 -0.28125 0.359375 -0.859375l0 -0.4375q0 -0.5625 -0.359375 -0.84375q-0.34375 -0.28125 -0.96875 -0.28125l-1.6875 0l0 2.6875l1.6875 0zm-0.140625 -3.421875q0.5625 0 0.875 -0.25q0.328125 -0.25 0.328125 -0.765625l0 -0.421875q0 -0.515625 -0.328125 -0.765625q-0.3125 -0.25 -0.875 -0.25l-1.546875 0l0 2.453125l1.546875 0z" fill-rule="nonzero"/><path fill="#000000" d="m37.478413 55.707787q-0.359375 0 -0.515625 -0.140625q-0.15625 -0.15625 -0.15625 -0.390625l0 -0.171875q0 -0.234375 0.15625 -0.390625q0.15625 -0.15625 0.515625 -0.15625q0.375 0 0.515625 0.15625q0.15625 0.15625 0.15625 0.390625l0 0.171875q0 0.234375 -0.15625 0.390625q-0.140625 0.140625 -0.515625 0.140625zm-2.40625 6.0l1.984375 0l0 -4.0625l-1.984375 0l0 -0.71875l2.84375 0l0 4.78125l1.84375 0l0 0.71875l-4.6875 0l0 -0.71875zm6.315689 0.71875l0 -5.5l0.84375 0l0 0.890625l0.046875 0q0.09375 -0.203125 0.21875 -0.375q0.125 -0.1875 0.3125 -0.328125q0.1875 -0.140625 0.4375 -0.21875q0.265625 -0.09375 0.59375 -0.09375q0.875 0 1.390625 0.546875q0.515625 0.546875 0.515625 1.546875l0 3.53125l-0.84375 0l0 -3.375q0 -0.765625 -0.328125 -1.125q-0.328125 -0.375 -0.96875 -0.375q-0.265625 0 -0.515625 0.078125q-0.234375 0.0625 -0.4375 0.1875q-0.1875 0.125 -0.3125 0.328125q-0.109375 0.203125 -0.109375 0.46875l0 3.8125l-0.84375 0z" fill-rule="nonzero"/><path fill="#000000" d="m38.190945 67.33591l0.84375 0l0 3.28125l0.046875 0q0.09375 -0.203125 0.21875 -0.375q0.125 -0.1875 0.3125 -0.328125q0.1875 -0.140625 0.4375 -0.21875q0.265625 -0.09375 0.59375 -0.09375q0.875 0 1.390625 0.546875q0.515625 0.546875 0.515625 1.546875l0 3.53125l-0.84375 0l0 -3.375q0 -0.765625 -0.328125 -1.125q-0.328125 -0.375 -0.96875 -0.375q-0.265625 0 -0.515625 0.078125q-0.234375 0.0625 -0.4375 0.1875q-0.1875 0.125 -0.3125 0.328125q-0.109375 0.203125 -0.109375 0.46875l0 3.8125l-0.84375 0l0 -7.890625z" fill-rule="nonzero"/><path fill="#000000" d="m37.45657 82.526535l0.765625 0l0.625 4.75l0.09375 0l0.9375 -4.75l0.9375 0l0.9375 4.75l0.09375 0l0.640625 -4.75l0.734375 0l-0.84375 5.5l-1.109375 0l-0.875 -4.609375l-0.078125 0l-0.90625 4.609375l-1.109375 0l-0.84375 -5.5z" fill-rule="nonzero"/><path fill="#000000" fill-opacity="0.0" d="m351.26498 30.38688l47.84253 0l0 84.0315l-47.84253 0z" fill-rule="evenodd"/><path fill="#000000" d="m372.92685 42.18938l2.53125 0q0.953125 0 1.5 0.53125q0.546875 0.515625 0.546875 1.390625q0 0.671875 -0.328125 1.0625q-0.328125 0.375 -0.84375 0.53125l0 0.03125q0.625 0.15625 1.03125 0.5625q0.40625 0.40625 0.40625 1.1875q0 0.453125 -0.15625 0.84375q-0.140625 0.390625 -0.421875 0.6875q-0.265625 0.28125 -0.640625 0.453125q-0.359375 0.15625 -0.78125 0.15625l-2.84375 0l0 -7.4375zm2.578125 6.65625q0.625 0 0.96875 -0.265625q0.359375 -0.28125 0.359375 -0.859375l0 -0.4375q0 -0.5625 -0.359375 -0.84375q-0.34375 -0.28125 -0.96875 -0.28125l-1.6875 0l0 2.6875l1.6875 0zm-0.140625 -3.421875q0.5625 0 0.875 -0.25q0.328125 -0.25 0.328125 -0.765625l0 -0.421875q0 -0.515625 -0.328125 -0.765625q-0.3125 -0.25 -0.875 -0.25l-1.546875 0l0 2.453125l1.546875 0z" fill-rule="nonzero"/><path fill="#000000" d="m372.3237 55.708134q-0.359375 0 -0.515625 -0.140625q-0.15625 -0.15625 -0.15625 -0.390625l0 -0.171875q0 -0.234375 0.15625 -0.390625q0.15625 -0.15625 0.515625 -0.15625q0.375 0 0.515625 0.15625q0.15625 0.15625 0.15625 0.390625l0 0.171875q0 0.234375 -0.15625 0.390625q-0.140625 0.140625 -0.515625 0.140625zm-2.40625 6.0l1.984375 0l0 -4.0625l-1.984375 0l0 -0.71875l2.84375 0l0 4.78125l1.84375 0l0 0.71875l-4.6875 0l0 -0.71875zm6.315674 0.71875l0 -5.5l0.84375 0l0 0.890625l0.046875 0q0.09375 -0.203125 0.21875 -0.375q0.125 -0.1875 0.3125 -0.328125q0.1875 -0.140625 0.4375 -0.21875q0.265625 -0.09375 0.59375 -0.09375q0.875 0 1.390625 0.546875q0.515625 0.546875 0.515625 1.546875l0 3.53125l-0.84375 0l0 -3.375q0 -0.765625 -0.328125 -1.125q-0.328125 -0.375 -0.96875 -0.375q-0.265625 0 -0.515625 0.078125q-0.234375 0.0625 -0.4375 0.1875q-0.1875 0.125 -0.3125 0.328125q-0.109375 0.203125 -0.109375 0.46875l0 3.8125l-0.84375 0z" fill-rule="nonzero"/><path fill="#000000" d="m373.03622 67.33625l0.84375 0l0 3.28125l0.046875 0q0.09375 -0.203125 0.21875 -0.375q0.125 -0.1875 0.3125 -0.328125q0.1875 -0.140625 0.4375 -0.21875q0.265625 -0.09375 0.59375 -0.09375q0.875 0 1.390625 0.546875q0.515625 0.546875 0.515625 1.546875l0 3.53125l-0.84375 0l0 -3.375q0 -0.765625 -0.328125 -1.125q-0.328125 -0.375 -0.96875 -0.375q-0.265625 0 -0.515625 0.078125q-0.234375 0.0625 -0.4375 0.1875q-0.1875 0.125 -0.3125 0.328125q-0.109375 0.203125 -0.109375 0.46875l0 3.8125l-0.84375 0l0 -7.890625z" fill-rule="nonzero"/><path fill="#000000" d="m372.30185 82.52688l0.765625 0l0.625 4.75l0.09375 0l0.9375 -4.75l0.9375 0l0.9375 4.75l0.09375 0l0.640625 -4.75l0.734375 0l-0.84375 5.5l-1.109375 0l-0.875 -4.609375l-0.078125 0l-0.90625 4.609375l-1.109375 0l-0.84375 -5.5z" fill-rule="nonzero"/><path fill="#000000" fill-opacity="0.0" d="m301.06348 66.61604l40.97638 0" fill-rule="evenodd"/><path stroke="#000000" stroke-width="2.0" stroke-linejoin="round" stroke-linecap="butt" d="m301.06348 66.61604l28.97638 0" fill-rule="evenodd"/><path fill="#000000" stroke="#000000" stroke-width="2.0" stroke-linecap="butt" d="m330.03986 69.91951l9.076202 -3.3034668l-9.076202 -3.303463z" fill-rule="evenodd"/><path fill="#000000" fill-opacity="0.0" d="m106.42889 43.36268l47.84252 0l0 45.259842l-47.84252 0z" fill-rule="evenodd"/><path fill="#000000" d="m126.83134 58.321426q0.78125 0 1.1718674 -0.34375q0.390625 -0.34375 0.390625 -0.890625l0 -0.078125q0 -0.59375 -0.390625 -0.890625q-0.37499237 -0.296875 -0.9843674 -0.296875q-0.59375 0 -0.96875 0.265625q-0.359375 0.25 -0.59375 0.671875l-0.671875 -0.5q0.140625 -0.234375 0.34375 -0.453125q0.203125 -0.21875 0.46875 -0.390625q0.28125 -0.171875 0.625 -0.265625q0.359375 -0.109375 0.828125 -0.109375q0.46875 0 0.890625 0.125q0.42186737 0.109375 0.7187424 0.359375q0.3125 0.234375 0.484375 0.59375q0.1875 0.34375 0.1875 0.796875q0 0.359375 -0.125 0.65625q-0.109375 0.28125 -0.3125 0.5q-0.1875 0.203125 -0.453125 0.359375q-0.265625 0.140625 -0.5624924 0.21875l0 0.046875q0.31249237 0.0625 0.5937424 0.203125q0.296875 0.140625 0.515625 0.375q0.21875 0.234375 0.34375 0.5625q0.140625 0.3125 0.140625 0.734375q0 0.46875 -0.1875 0.875q-0.1875 0.40625 -0.53125 0.6875q-0.328125 0.28125 -0.7968674 0.4375q-0.46875 0.15625 -1.046875 0.15625q-0.484375 0 -0.875 -0.109375q-0.375 -0.09375 -0.671875 -0.28125q-0.28125 -0.1875 -0.5 -0.40625q-0.21875 -0.21875 -0.390625 -0.46875l0.671875 -0.515625q0.140625 0.234375 0.296875 0.421875q0.171875 0.171875 0.375 0.3125q0.203125 0.125 0.46875 0.203125q0.265625 0.0625 0.625 0.0625q0.78125 0 1.2031174 -0.359375q0.421875 -0.359375 0.421875 -1.03125l0 -0.078125q0 -0.671875 -0.40625 -1.03125q-0.40624237 -0.359375 -1.2343674 -0.359375l-0.875 0l0 -0.765625l0.8125 0zm9.237556 4.28125l-4.96875 0l0 -0.921875l2.484375 -2.234375q0.546875 -0.484375 0.890625 -1.0q0.359375 -0.515625 0.359375 -1.09375l0 -0.125q0 -0.671875 -0.359375 -1.03125q-0.34375 -0.375 -1.03125 -0.375q-0.6875 0 -1.0625 0.34375q-0.359375 0.34375 -0.546875 0.921875l-0.796875 -0.296875q0.109375 -0.34375 0.296875 -0.65625q0.1875 -0.3125 0.46875 -0.546875q0.296875 -0.25 0.703125 -0.390625q0.40625 -0.15625 0.953125 -0.15625q0.5625 0 0.984375 0.15625q0.4375 0.15625 0.71875 0.453125q0.296875 0.28125 0.453125 0.6875q0.15625 0.390625 0.15625 0.859375q0 0.421875 -0.125 0.796875q-0.125 0.375 -0.34375 0.71875q-0.21875 0.328125 -0.515625 0.65625q-0.296875 0.328125 -0.671875 0.640625l-2.078125 1.8125l4.03125 0l0 0.78125z" fill-rule="nonzero"/><path fill="#000000" d="m127.48759 68.68393q-0.359375 0 -0.515625 -0.140625q-0.15625 -0.15625 -0.15625 -0.390625l0 -0.171875q0 -0.234375 0.15625 -0.390625q0.15625 -0.15625 0.515625 -0.15625q0.375 0 0.5156174 0.15625q0.15625 0.15625 0.15625 0.390625l0 0.171875q0 0.234375 -0.15625 0.390625q-0.14061737 0.140625 -0.5156174 0.140625zm-2.40625 6.0l1.984375 0l0 -4.0625l-1.984375 0l0 -0.71875l2.84375 0l0 4.78125l1.8437424 0l0 0.71875l-4.6874924 0l0 -0.71875zm6.3156815 0.71875l0 -5.5l0.84375 0l0 0.890625l0.046875 0q0.09375 -0.203125 0.21875 -0.375q0.125 -0.1875 0.3125 -0.328125q0.1875 -0.140625 0.4375 -0.21875q0.265625 -0.09375 0.59375 -0.09375q0.875 0 1.390625 0.546875q0.515625 0.546875 0.515625 1.546875l0 3.53125l-0.84375 0l0 -3.375q0 -0.765625 -0.328125 -1.125q-0.328125 -0.375 -0.96875 -0.375q-0.265625 0 -0.515625 0.078125q-0.234375 0.0625 -0.4375 0.1875q-0.1875 0.125 -0.3125 0.328125q-0.109375 0.203125 -0.109375 0.46875l0 3.8125l-0.84375 0z" fill-rule="nonzero"/><path fill="#000000" fill-opacity="0.0" d="m-10.774917 -5.5046887l102.14173 0l0 38.771652l-102.14173 0z" fill-rule="evenodd"/><path fill="#000000" d="m17.639647 18.855312l0 -1.078125l2.78125 0l0 -9.015625l-2.78125 0l0 -1.0781255l6.90625 0l0 1.0781255l-2.78125 0l0 9.015625l2.78125 0l0 1.078125l-6.90625 0zm9.818771 0l0 -8.25l1.28125 0l0 1.34375l0.0625 0q0.140625 -0.3125 0.328125 -0.59375q0.1875 -0.28125 0.46875 -0.484375q0.28125 -0.203125 0.65625 -0.328125q0.390625 -0.140625 0.90625 -0.140625q1.2968731 0 2.078123 0.828125q0.78125 0.828125 0.78125 2.328125l0 5.296875l-1.28125 0l0 -5.078125q0 -1.125 -0.5 -1.671875q-0.4843731 -0.5625 -1.4531231 -0.5625q-0.375 0 -0.75 0.09375q-0.359375 0.09375 -0.65625 0.296875q-0.28125 0.1875 -0.46875 0.5q-0.171875 0.296875 -0.171875 0.6875l0 5.734375l-1.28125 0zm9.553144 -8.25l1.28125 0l0 1.34375l0.0625 0q0.796875 -1.546875 2.546875 -1.546875q1.515625 0 2.375 1.140625q0.859375 1.140625 0.859375 3.1875q0 2.046875 -0.859375 3.1875q-0.859375 1.125 -2.375 1.125q-1.75 0 -2.546875 -1.53125l-0.0625 0l0 4.546875l-1.28125 0l0 -11.453125zm3.390625 7.3125q1.125 0 1.734375 -0.671875q0.625 -0.6875 0.625 -1.8125l0 -1.40625q0 -1.125 -0.625 -1.796875q-0.609375 -0.6875 -1.734375 -0.6875q-0.421875 0 -0.8125 0.109375q-0.375 0.109375 -0.671875 0.328125q-0.28125 0.21875 -0.453125 0.53125q-0.171875 0.3125 -0.171875 0.734375l0 2.96875q0 0.421875 0.171875 0.734375q0.171875 0.3125 0.453125 0.53125q0.296875 0.203125 0.671875 0.328125q0.390625 0.109375 0.8125 0.109375zm11.443771 -0.40625l-0.0625 0q-0.125 0.296875 -0.328125 0.578125q-0.1875 0.28125 -0.46875 0.5q-0.28125 0.203125 -0.671875 0.328125q-0.375 0.125 -0.875 0.125q-1.296875 0 -2.09375 -0.8125q-0.78125 -0.828125 -0.78125 -2.328125l0 -5.296875l1.28125 0l0 5.0625q0 1.140625 0.5 1.703125q0.5 0.546875 1.453125 0.546875q0.390625 0 0.75 -0.09375q0.375 -0.109375 0.65625 -0.296875q0.296875 -0.1875 0.46875 -0.484375q0.171875 -0.296875 0.171875 -0.71875l0 -5.71875l1.28125 0l0 8.25l-1.28125 0l0 -1.34375zm8.05315 1.34375q-0.953125 0 -1.390625 -0.53125q-0.4375 -0.53125 -0.4375 -1.359375l0 -5.28125l-2.75 0l0 -1.078125l2.046875 0q0.421875 0 0.578125 -0.171875q0.171875 -0.171875 0.171875 -0.59375l0 -2.1562505l1.234375 0l0 2.9218755l3.765625 0l0 1.078125l-3.765625 0l0 6.078125l3.765625 0l0 1.09375l-3.21875 0z" fill-rule="nonzero"/><path fill="#000000" fill-opacity="0.0" d="m322.311 -5.5046887l102.14172 0l0 38.771652l-102.14172 0z" fill-rule="evenodd"/><path fill="#000000" d="m349.37866 19.042812q-1.015625 0 -1.765625 -0.390625q-0.734375 -0.390625 -1.21875 -1.125q-0.46875 -0.734375 -0.703125 -1.796875q-0.21875 -1.078125 -0.21875 -2.453125q0 -1.359375 0.21875 -2.4375q0.234375 -1.09375 0.703125 -1.828125q0.484375 -0.734375 1.21875 -1.1250005q0.75 -0.390625 1.765625 -0.390625q1.03125 0 1.765625 0.390625q0.734375 0.39062548 1.203125 1.1250005q0.484375 0.734375 0.703125 1.828125q0.234375 1.078125 0.234375 2.4375q0 1.375 -0.234375 2.453125q-0.21875 1.0625 -0.703125 1.796875q-0.46875 0.734375 -1.203125 1.125q-0.734375 0.390625 -1.765625 0.390625zm0 -1.15625q0.671875 0 1.140625 -0.265625q0.46875 -0.265625 0.765625 -0.75q0.3125 -0.484375 0.4375 -1.15625q0.140625 -0.6875 0.140625 -1.53125l0 -1.828125q0 -0.828125 -0.140625 -1.515625q-0.125 -0.6875 -0.4375 -1.15625q-0.296875 -0.484375 -0.765625 -0.75q-0.46875 -0.265625 -1.140625 -0.265625q-0.671875 0 -1.140625 0.265625q-0.453125 0.265625 -0.765625 0.75q-0.296875 0.46875 -0.4375 1.15625q-0.140625 0.6875 -0.140625 1.515625l0 1.828125q0 0.84375 0.140625 1.53125q0.140625 0.671875 0.4375 1.15625q0.3125 0.484375 0.765625 0.75q0.46875 0.265625 1.140625 0.265625zm11.553162 -0.375l-0.0625 0q-0.125 0.296875 -0.328125 0.578125q-0.1875 0.28125 -0.46875 0.5q-0.28125 0.203125 -0.671875 0.328125q-0.375 0.125 -0.875 0.125q-1.296875 0 -2.09375 -0.8125q-0.78125 -0.828125 -0.78125 -2.328125l0 -5.296875l1.28125 0l0 5.0625q0 1.140625 0.5 1.703125q0.5 0.546875 1.453125 0.546875q0.390625 0 0.75 -0.09375q0.375 -0.109375 0.65625 -0.296875q0.296875 -0.1875 0.46875 -0.484375q0.171875 -0.296875 0.171875 -0.71875l0 -5.71875l1.28125 0l0 8.25l-1.28125 0l0 -1.34375zm8.053131 1.34375q-0.953125 0 -1.390625 -0.53125q-0.4375 -0.53125 -0.4375 -1.359375l0 -5.28125l-2.75 0l0 -1.078125l2.046875 0q0.421875 0 0.578125 -0.171875q0.171875 -0.171875 0.171875 -0.59375l0 -2.1562505l1.234375 0l0 2.9218755l3.765625 0l0 1.078125l-3.765625 0l0 6.078125l3.765625 0l0 1.09375l-3.21875 0zm5.9125366 -8.25l1.28125 0l0 1.34375l0.0625 0q0.796875 -1.546875 2.546875 -1.546875q1.515625 0 2.375 1.140625q0.859375 1.140625 0.859375 3.1875q0 2.046875 -0.859375 3.1875q-0.859375 1.125 -2.375 1.125q-1.75 0 -2.546875 -1.53125l-0.0625 0l0 4.546875l-1.28125 0l0 -11.453125zm3.390625 7.3125q1.125 0 1.734375 -0.671875q0.625 -0.6875 0.625 -1.8125l0 -1.40625q0 -1.125 -0.625 -1.796875q-0.609375 -0.6875 -1.734375 -0.6875q-0.421875 0 -0.8125 0.109375q-0.375 0.109375 -0.671875 0.328125q-0.28125 0.21875 -0.453125 0.53125q-0.171875 0.3125 -0.171875 0.734375l0 2.96875q0 0.421875 0.171875 0.734375q0.171875 0.3125 0.453125 0.53125q0.296875 0.203125 0.671875 0.328125q0.390625 0.109375 0.8125 0.109375zm11.443756 -0.40625l-0.0625 0q-0.125 0.296875 -0.328125 0.578125q-0.1875 0.28125 -0.46875 0.5q-0.28125 0.203125 -0.671875 0.328125q-0.375 0.125 -0.875 0.125q-1.296875 0 -2.09375 -0.8125q-0.78125 -0.828125 -0.78125 -2.328125l0 -5.296875l1.28125 0l0 5.0625q0 1.140625 0.5 1.703125q0.5 0.546875 1.453125 0.546875q0.390625 0 0.75 -0.09375q0.375 -0.109375 0.65625 -0.296875q0.296875 -0.1875 0.46875 -0.484375q0.171875 -0.296875 0.171875 -0.71875l0 -5.71875l1.28125 0l0 8.25l-1.28125 0l0 -1.34375zm8.053162 1.34375q-0.953125 0 -1.390625 -0.53125q-0.4375 -0.53125 -0.4375 -1.359375l0 -5.28125l-2.75 0l0 -1.078125l2.046875 0q0.421875 0 0.578125 -0.171875q0.171875 -0.171875 0.171875 -0.59375l0 -2.1562505l1.234375 0l0 2.9218755l3.765625 0l0 1.078125l-3.765625 0l0 6.078125l3.765625 0l0 1.09375l-3.21875 0z" fill-rule="nonzero"/><path fill="#ead1dc" d="m187.57156 33.57086l33.51181 0l0 66.3937l-33.51181 0z" fill-rule="evenodd"/><path stroke="#000000" stroke-width="1.0" stroke-linejoin="round" stroke-linecap="butt" d="m187.57156 33.57086l33.51181 0l0 66.3937l-33.51181 0z" fill-rule="evenodd"/><path fill="#000000" fill-opacity="0.0" d="m153.25792 -5.003943l102.14174 0l0 38.771656l-102.14174 0z" fill-rule="evenodd"/><path fill="#000000" d="m192.83186 19.356058l-0.953125 -3.1875l-3.921875 0l-0.9375 3.1875l-1.390625 0l3.421875 -11.171875l1.78125 0l3.421875 11.171875l-1.421875 0zm-2.84375 -9.75l-0.140625 0l-1.5625 5.390625l3.28125 0l-1.578125 -5.390625zm9.943771 9.75q-0.953125 0 -1.390625 -0.53125q-0.4375 -0.53125 -0.4375 -1.359375l0 -5.28125l-2.75 0l0 -1.078125l2.046875 0q0.421875 0 0.578125 -0.171875q0.171875 -0.171875 0.171875 -0.59375l0 -2.15625l1.234375 0l0 2.921875l3.765625 0l0 1.078125l-3.765625 0l0 6.078125l3.765625 0l0 1.09375l-3.21875 0zm9.600021 0q-0.953125 0 -1.390625 -0.53125q-0.4375 -0.53125 -0.4375 -1.359375l0 -5.28125l-2.75 0l0 -1.078125l2.046875 0q0.421875 0 0.578125 -0.171875q0.171875 -0.171875 0.171875 -0.59375l0 -2.15625l1.234375 0l0 2.921875l3.765625 0l0 1.078125l-3.765625 0l0 6.078125l3.765625 0l0 1.09375l-3.21875 0zm5.9593964 0l0 -8.25l1.28125 0l0 1.34375l0.0625 0q0.140625 -0.3125 0.328125 -0.59375q0.1875 -0.28125 0.46875 -0.484375q0.28125 -0.203125 0.65625 -0.328125q0.390625 -0.140625 0.90625 -0.140625q1.296875 0 2.078125 0.828125q0.78125 0.828125 0.78125 2.328125l0 5.296875l-1.28125 0l0 -5.078125q0 -1.125 -0.5 -1.671875q-0.484375 -0.5625 -1.453125 -0.5625q-0.375 0 -0.75 0.09375q-0.359375 0.09375 -0.65625 0.296875q-0.28125 0.1875 -0.46875 0.5q-0.171875 0.296875 -0.171875 0.6875l0 5.734375l-1.28125 0z" fill-rule="nonzero"/><path fill="#000000" fill-opacity="0.0" d="m221.08337 66.76771l40.0 0.09449005" fill-rule="evenodd"/><path stroke="#000000" stroke-width="2.0" stroke-linejoin="round" stroke-linecap="butt" d="m221.08337 66.76771l28.000046 0.06614685" fill-rule="evenodd"/><path fill="#000000" stroke="#000000" stroke-width="2.0" stroke-linecap="butt" d="m249.0756 70.13731l9.083969 -3.282013l-9.068359 -3.324894z" fill-rule="evenodd"/><path fill="#000000" fill-opacity="0.0" d="m180.30424 43.230877l47.842514 0l0 45.259846l-47.842514 0z" fill-rule="evenodd"/><path fill="#000000" d="m201.36295 55.75213q-0.359375 0 -0.515625 -0.140625q-0.15625 -0.15625 -0.15625 -0.390625l0 -0.171875q0 -0.234375 0.15625 -0.390625q0.15625 -0.15625 0.515625 -0.15625q0.375 0 0.515625 0.15625q0.15625 0.15625 0.15625 0.390625l0 0.171875q0 0.234375 -0.15625 0.390625q-0.140625 0.140625 -0.515625 0.140625zm-2.40625 6.0l1.984375 0l0 -4.0625l-1.984375 0l0 -0.71875l2.84375 0l0 4.78125l1.84375 0l0 0.71875l-4.6875 0l0 -0.71875zm6.315689 0.71875l0 -5.5l0.84375 0l0 0.890625l0.046875 0q0.09375 -0.203125 0.21875 -0.375q0.125 -0.1875 0.3125 -0.328125q0.1875 -0.140625 0.4375 -0.21875q0.265625 -0.09375 0.59375 -0.09375q0.875 0 1.390625 0.546875q0.515625 0.546875 0.515625 1.546875l0 3.53125l-0.84375 0l0 -3.375q0 -0.765625 -0.328125 -1.125q-0.328125 -0.375 -0.96875 -0.375q-0.265625 0 -0.515625 0.078125q-0.234375 0.0625 -0.4375 0.1875q-0.1875 0.125 -0.3125 0.328125q-0.109375 0.203125 -0.109375 0.46875l0 3.8125l-0.84375 0z" fill-rule="nonzero"/><path fill="#000000" d="m205.05984 75.27088l0 -1.453125l-3.671875 0l0 -0.796875l3.21875 -5.1875l1.296875 0l0 5.25l1.109375 0l0 0.734375l-1.109375 0l0 1.453125l-0.84375 0zm-2.875 -2.1875l2.875 0l0 -4.5625l-0.046875 0l-2.828125 4.5625z" fill-rule="nonzero"/><path fill="#000000" fill-opacity="0.0" d="m261.24353 43.818893l39.685028 0l0 45.259842l-39.685028 0z" fill-rule="evenodd"/><path fill="#000000" d="m280.28134 71.970764l0 -4.453125l-4.265625 0l0 -1.453125l4.265625 0l0 -4.453121l1.609375 0l0 4.453121l4.265625 0l0 1.453125l-4.265625 0l0 4.453125l-1.609375 0z" fill-rule="nonzero"/></g></svg>