<svg version="1.1" viewBox="0.0 0.0 882.9396325459318 384.5485564304462" fill="none" stroke="none" stroke-linecap="square" stroke-miterlimit="10" xmlns:xlink="http://www.w3.org/1999/xlink" xmlns="http://www.w3.org/2000/svg"><clipPath id="p.0"><path d="m0 0l882.93964 0l0 384.54855l-882.93964 0l0 -384.54855z" clip-rule="nonzero"/></clipPath><g clip-path="url(#p.0)"><path fill="#000000" fill-opacity="0.0" d="m0 0l882.93964 0l0 384.54855l-882.93964 0z" fill-rule="evenodd"/><path fill="#fff2cc" d="m114.597115 313.32217l33.511803 0l0 66.39371l-33.511803 0z" fill-rule="evenodd"/><path stroke="#000000" stroke-width="1.0" stroke-linejoin="round" stroke-linecap="butt" d="m114.597115 313.32217l33.511803 0l0 66.39371l-33.511803 0z" fill-rule="evenodd"/><path fill="#000000" fill-opacity="0.0" d="m30.660105 242.45604l0 104.063l83.93701 0" fill-rule="evenodd"/><path stroke="#000000" stroke-width="2.0" stroke-linejoin="round" stroke-linecap="butt" d="m30.660105 242.45604l0 104.063l71.93701 0" fill-rule="evenodd"/><path fill="#000000" stroke="#000000" stroke-width="2.0" stroke-linecap="butt" d="m102.597115 349.82248l9.076195 -3.3034363l-9.076195 -3.3034668z" fill-rule="evenodd"/><path fill="#cfe2f3" d="m114.597115 207.03084l33.511803 0l0 66.39369l-33.511803 0z" fill-rule="evenodd"/><path stroke="#000000" stroke-width="1.0" stroke-linejoin="round" stroke-linecap="butt" d="m114.597115 207.03084l33.511803 0l0 66.39369l-33.511803 0z" fill-rule="evenodd"/><path fill="#000000" fill-opacity="0.0" d="m80.28346 168.45604l102.14174 0l0 38.771652l-102.14174 0z" fill-rule="evenodd"/><path fill="#000000" d="m109.66364 191.33167l-0.078125 0q-0.15625 0.3125 -0.34375 0.625q-0.1875 0.296875 -0.484375 0.53125q-0.296875 0.234375 -0.71875 0.375q-0.40625 0.140625 -0.984375 0.140625q-1.828125 0 -2.71875 -1.46875q-0.890625 -1.46875 -0.890625 -4.21875q0 -2.890625 0.96875 -4.375q0.984375 -1.484375 3.015625 -1.484375q0.78125 0 1.359375 0.21875q0.578125 0.203125 0.984375 0.5625q0.40625 0.34375 0.671875 0.78125q0.28125 0.4375 0.46875 0.890625l-1.15625 0.515625q-0.140625 -0.359375 -0.328125 -0.6875q-0.1875 -0.328125 -0.453125 -0.578125q-0.265625 -0.25 -0.640625 -0.390625q-0.359375 -0.140625 -0.859375 -0.140625q-1.34375 0 -1.984375 1.015625q-0.625 1.0 -0.625 2.671875l0 1.734375q0 0.84375 0.125 1.546875q0.140625 0.6875 0.4375 1.203125q0.296875 0.515625 0.765625 0.796875q0.46875 0.28125 1.15625 0.28125q1.09375 0 1.703125 -0.65625q0.609375 -0.65625 0.609375 -1.703125l0 -1.15625l-2.359375 0l0 -1.0625l3.609375 0l0 5.515625l-1.25 0l0 -1.484375zm4.9750214 -2.703125l0 -1.34375l4.640625 0l0 1.34375l-4.640625 0zm9.725021 -5.21875l-0.109375 0l0 9.40625l-1.21875 0l0 -11.171875l1.90625 0l3.7968674 9.40625l0.125 0l0 -9.40625l1.203125 0l0 11.171875l-1.890625 0l-3.8124924 -9.40625zm11.787514 9.59375q-0.859375 0 -1.5625 -0.296875q-0.6875 -0.3125 -1.1875 -0.875q-0.484375 -0.5625 -0.734375 -1.359375q-0.25 -0.796875 -0.25 -1.78125q0 -0.984375 0.25 -1.78125q0.25 -0.796875 0.734375 -1.359375q0.5 -0.578125 1.1875 -0.875q0.703125 -0.3125 1.5625 -0.3125q0.859375 0 1.5625 0.3125q0.703125 0.296875 1.1875 0.875q0.484375 0.5625 0.734375 1.359375q0.265625 0.796875 0.265625 1.78125q0 0.984375 -0.265625 1.78125q-0.25 0.796875 -0.734375 1.359375q-0.484375 0.5625 -1.1875 0.875q-0.703125 0.296875 -1.5625 0.296875zm0 -1.09375q1.078125 0 1.734375 -0.640625q0.65625 -0.640625 0.65625 -1.984375l0 -1.1875q0 -1.34375 -0.65625 -1.984375q-0.65625 -0.640625 -1.734375 -0.640625q-1.0625 0 -1.71875 0.640625q-0.65625 0.640625 -0.65625 1.984375l0 1.1875q0 1.34375 0.65625 1.984375q0.65625 0.640625 1.71875 0.640625zm6.0375214 -0.1875l2.40625 0l0 -6.078125l-2.40625 0l0 -1.078125l3.6875 0l0 2.078125l0.09375 0q0.25 -0.984375 0.953125 -1.53125q0.71875 -0.546875 1.828125 -0.546875l1.140625 0l0 1.28125l-1.546875 0q-1.109375 0 -1.796875 0.640625q-0.671875 0.625 -0.671875 1.671875l0 3.5625l3.203125 0l0 1.09375l-6.890625 0l0 -1.09375zm9.225021 1.09375l0 -8.25l1.1875 0l0 0.953125l0.0625 0q0.1875 -0.484375 0.546875 -0.8125q0.359375 -0.34375 1.046875 -0.34375q0.71875 0 1.0625 0.359375q0.359375 0.359375 0.4375 0.9375l0.046875 0q0.21875 -0.5625 0.625 -0.921875q0.421875 -0.375 1.171875 -0.375q1.0 0 1.34375 0.703125q0.34375 0.703125 0.34375 2.015625l0 5.734375l-1.1875 0l0 -5.515625q0 -1.0625 -0.21875 -1.46875q-0.203125 -0.40625 -0.78125 -0.40625q-0.515625 0 -0.84375 0.328125q-0.3125 0.328125 -0.3125 1.0l0 6.0625l-1.1875 0l0 -5.515625q0 -1.0625 -0.21875 -1.46875q-0.203125 -0.40625 -0.765625 -0.40625q-0.515625 0 -0.84375 0.328125q-0.328125 0.328125 -0.328125 1.0l0 6.0625l-1.1875 0z" fill-rule="nonzero"/><path fill="#fff2cc" d="m268.57855 207.12796l33.51181 0l0 66.39371l-33.51181 0z" fill-rule="evenodd"/><path stroke="#000000" stroke-width="1.0" stroke-linejoin="round" stroke-linecap="butt" d="m268.57855 207.12796l33.51181 0l0 66.39371l-33.51181 0z" fill-rule="evenodd"/><path fill="#000000" fill-opacity="0.0" d="m234.93681 168.45604l102.14174 0l0 38.771652l-102.14174 0z" fill-rule="evenodd"/><path fill="#000000" d="m271.9795 193.00354q-2.046875 0 -3.046875 -1.484375q-1.0 -1.484375 -1.0 -4.28125q0 -2.8125 1.0 -4.296875q1.0 -1.484375 3.046875 -1.484375q0.765625 0 1.328125 0.21875q0.5625 0.203125 0.953125 0.5625q0.40625 0.34375 0.671875 0.78125q0.28125 0.4375 0.484375 0.890625l-1.15625 0.515625q-0.140625 -0.359375 -0.34375 -0.6875q-0.1875 -0.328125 -0.453125 -0.578125q-0.25 -0.25 -0.609375 -0.390625q-0.359375 -0.140625 -0.875 -0.140625q-1.328125 0 -1.984375 1.015625q-0.640625 1.0 -0.640625 2.671875l0 1.828125q0 1.6875 0.640625 2.703125q0.65625 1.0 1.984375 1.0q0.515625 0 0.875 -0.140625q0.359375 -0.15625 0.609375 -0.40625q0.265625 -0.25 0.453125 -0.578125q0.203125 -0.328125 0.34375 -0.6875l1.15625 0.53125q-0.203125 0.453125 -0.484375 0.890625q-0.265625 0.4375 -0.671875 0.796875q-0.390625 0.34375 -0.953125 0.546875q-0.5625 0.203125 -1.328125 0.203125zm9.225037 0q-0.859375 0 -1.5625 -0.296875q-0.6875 -0.3125 -1.1875 -0.875q-0.484375 -0.5625 -0.734375 -1.359375q-0.25 -0.796875 -0.25 -1.78125q0 -0.984375 0.25 -1.78125q0.25 -0.796875 0.734375 -1.359375q0.5 -0.578125 1.1875 -0.875q0.703125 -0.3125 1.5625 -0.3125q0.859375 0 1.5625 0.3125q0.703125 0.296875 1.1875 0.875q0.484375 0.5625 0.734375 1.359375q0.265625 0.796875 0.265625 1.78125q0 0.984375 -0.265625 1.78125q-0.25 0.796875 -0.734375 1.359375q-0.484375 0.5625 -1.1875 0.875q-0.703125 0.296875 -1.5625 0.296875zm0 -1.09375q1.078125 0 1.734375 -0.640625q0.65625 -0.640625 0.65625 -1.984375l0 -1.1875q0 -1.34375 -0.65625 -1.984375q-0.65625 -0.640625 -1.734375 -0.640625q-1.0625 0 -1.71875 0.640625q-0.65625 0.640625 -0.65625 1.984375l0 1.1875q0 1.34375 0.65625 1.984375q0.65625 0.640625 1.71875 0.640625zm6.365631 0.90625l0 -8.25l1.28125 0l0 1.34375l0.0625 0q0.140625 -0.3125 0.328125 -0.59375q0.1875 -0.28125 0.46875 -0.484375q0.28125 -0.203125 0.65625 -0.328125q0.390625 -0.140625 0.90625 -0.140625q1.296875 0 2.078125 0.828125q0.78125 0.828125 0.78125 2.328125l0 5.296875l-1.28125 0l0 -5.078125q0 -1.125 -0.5 -1.671875q-0.484375 -0.5625 -1.453125 -0.5625q-0.375 0 -0.75 0.09375q-0.359375 0.09375 -0.65625 0.296875q-0.28125 0.1875 -0.46875 0.5q-0.171875 0.296875 -0.171875 0.6875l0 5.734375l-1.28125 0zm12.021912 0l-2.953125 -8.25l1.28125 0l1.1875 3.453125l1.28125 3.71875l0.0625 0l1.28125 -3.71875l1.1875 -3.453125l1.265625 0l-2.96875 8.25l-1.625 0z" fill-rule="nonzero"/><path fill="#000000" fill-opacity="0.0" d="m74.408134 240.22769l40.18898 0" fill-rule="evenodd"/><path stroke="#000000" stroke-width="2.0" stroke-linejoin="round" stroke-linecap="butt" d="m74.408134 240.22769l28.18898 0" fill-rule="evenodd"/><path fill="#000000" stroke="#000000" stroke-width="2.0" stroke-linecap="butt" d="m102.597115 243.53116l9.076195 -3.3034668l-9.076195 -3.3034668z" fill-rule="evenodd"/><path fill="#f3f3f3" d="m188.11023 240.32611l0 0c0 -10.706497 8.883804 -19.385818 19.84253 -19.385818l0 0c5.262558 0 10.309586 2.0424194 14.030777 5.6779785c3.7211914 3.6355438 5.811737 8.566406 5.811737 13.70784l0 0c0 10.706497 -8.883789 19.385834 -19.842514 19.385834l0 0c-10.958725 0 -19.84253 -8.679337 -19.84253 -19.385834z" fill-rule="evenodd"/><path stroke="#000000" stroke-width="1.0" stroke-linejoin="round" stroke-linecap="butt" d="m188.11023 240.32611l0 0c0 -10.706497 8.883804 -19.385818 19.84253 -19.385818l0 0c5.262558 0 10.309586 2.0424194 14.030777 5.6779785c3.7211914 3.6355438 5.811737 8.566406 5.811737 13.70784l0 0c0 10.706497 -8.883789 19.385834 -19.842514 19.385834l0 0c-10.958725 0 -19.84253 -8.679337 -19.84253 -19.385834z" fill-rule="evenodd"/><path fill="#000000" fill-opacity="0.0" d="m157.5105 182.86285l102.14172 0l0 38.771667l-102.14172 0z" fill-rule="evenodd"/><path fill="#000000" d="m194.14694 207.41035q-1.5 0 -2.46875 -0.546875q-0.953125 -0.546875 -1.578125 -1.421875l0.984375 -0.796875q0.65625 0.8125 1.375 1.21875q0.734375 0.40625 1.734375 0.40625q1.21875 0 1.859375 -0.5625q0.640625 -0.5625 0.640625 -1.578125q0 -0.8125 -0.46875 -1.265625q-0.453125 -0.453125 -1.609375 -0.65625l-1.25 -0.203125q-0.8125 -0.140625 -1.375 -0.421875q-0.546875 -0.296875 -0.890625 -0.703125q-0.328125 -0.40625 -0.46875 -0.890625q-0.140625 -0.5 -0.140625 -1.015625q0 -1.546875 1.0 -2.328125q1.015625 -0.78125 2.71875 -0.78125q1.34375 0 2.265625 0.453125q0.921875 0.4375 1.484375 1.265625l-0.953125 0.8125q-0.453125 -0.609375 -1.109375 -0.984375q-0.65625 -0.390625 -1.703125 -0.390625q-1.125 0 -1.734375 0.484375q-0.609375 0.46875 -0.609375 1.4375q0 0.75 0.453125 1.21875q0.453125 0.46875 1.640625 0.671875l1.203125 0.21875q0.8125 0.140625 1.375 0.4375q0.5625 0.28125 0.90625 0.6875q0.34375 0.390625 0.484375 0.890625q0.140625 0.5 0.140625 1.03125q0 1.5625 -1.015625 2.4375q-1.015625 0.875 -2.890625 0.875zm10.146896 -10.265625q-0.5625 0 -0.796875 -0.234375q-0.21875 -0.234375 -0.21875 -0.578125l0 -0.265625q0 -0.34375 0.21875 -0.578125q0.234375 -0.234375 0.796875 -0.234375q0.5625 0 0.78125 0.234375q0.21875 0.234375 0.21875 0.578125l0 0.265625q0 0.34375 -0.21875 0.578125q-0.21875 0.234375 -0.78125 0.234375zm-3.609375 8.984375l2.96875 0l0 -6.078125l-2.96875 0l0 -1.078125l4.25 0l0 7.15625l2.78125 0l0 1.09375l-7.03125 0l0 -1.09375zm9.178146 0l2.875 0l0 -9.65625l-2.875 0l0 -1.09375l4.15625 0l0 10.75l2.875 0l0 1.09375l-7.03125 0l0 -1.09375zm15.068771 -0.25l-0.0625 0q-0.125 0.296875 -0.328125 0.578125q-0.1875 0.28125 -0.46875 0.5q-0.28125 0.203125 -0.671875 0.328125q-0.375 0.125 -0.875 0.125q-1.296875 0 -2.09375 -0.8125q-0.78125 -0.828125 -0.78125 -2.328125l0 -5.296875l1.28125 0l0 5.0625q0 1.140625 0.5 1.703125q0.5 0.546875 1.453125 0.546875q0.390625 0 0.75 -0.09375q0.375 -0.109375 0.65625 -0.296875q0.296875 -0.1875 0.46875 -0.484375q0.171875 -0.296875 0.171875 -0.71875l0 -5.71875l1.28125 0l0 8.25l-1.28125 0l0 -1.34375z" fill-rule="nonzero"/><path fill="#000000" fill-opacity="0.0" d="m148.10892 240.22769l40.0 0.09448242" fill-rule="evenodd"/><path stroke="#000000" stroke-width="2.0" stroke-linejoin="round" stroke-linecap="butt" d="m148.10892 240.22769l28.000046 0.06614685" fill-rule="evenodd"/><path fill="#000000" stroke="#000000" stroke-width="2.0" stroke-linecap="butt" d="m176.10115 243.59729l9.083984 -3.282013l-9.068375 -3.3249054z" fill-rule="evenodd"/><path fill="#000000" fill-opacity="0.0" d="m227.79527 240.32611l40.7874 0" fill-rule="evenodd"/><path stroke="#000000" stroke-width="2.0" stroke-linejoin="round" stroke-linecap="butt" d="m227.79527 240.32611l28.7874 0" fill-rule="evenodd"/><path fill="#000000" stroke="#000000" stroke-width="2.0" stroke-linecap="butt" d="m256.58267 243.62958l9.076202 -3.3034668l-9.076202 -3.3034668z" fill-rule="evenodd"/><path fill="#d0e0e3" d="m233.26076 150.32701l14.162994 -32.314957l40.555893 0l14.162994 32.314957z" fill-rule="evenodd"/><path stroke="#000000" stroke-width="1.0" stroke-linejoin="round" stroke-linecap="butt" d="m233.26076 150.32701l14.162994 -32.314957l40.555893 0l14.162994 32.314957z" fill-rule="evenodd"/><path fill="#f3f3f3" d="m152.67323 134.16823l0 0c0 -10.706505 8.883789 -19.385834 19.842514 -19.385834l0 0c5.262558 0 10.309586 2.0424347 14.030777 5.6779785c3.7211914 3.6355515 5.811737 8.566406 5.811737 13.707855l0 0c0 10.706497 -8.883789 19.385818 -19.842514 19.385818l0 0c-10.958725 0 -19.842514 -8.679321 -19.842514 -19.385818z" fill-rule="evenodd"/><path stroke="#000000" stroke-width="1.0" stroke-linejoin="round" stroke-linecap="butt" d="m152.67323 134.16823l0 0c0 -10.706505 8.883789 -19.385834 19.842514 -19.385834l0 0c5.262558 0 10.309586 2.0424347 14.030777 5.6779785c3.7211914 3.6355515 5.811737 8.566406 5.811737 13.707855l0 0c0 10.706497 -8.883789 19.385818 -19.842514 19.385818l0 0c-10.958725 0 -19.842514 -8.679321 -19.842514 -19.385818z" fill-rule="evenodd"/><path fill="#000000" fill-opacity="0.0" d="m73.09592 114.78371l39.685043 0l0 38.771652l-39.685043 0z" fill-rule="evenodd"/><path fill="#000000" d="m93.23218 139.3312q-0.90625 0 -1.609375 -0.3125q-0.6875 -0.3125 -1.171875 -0.859375q-0.46875 -0.5625 -0.71875 -1.359375q-0.25 -0.8125 -0.25 -1.78125q0 -0.984375 0.25 -1.78125q0.265625 -0.796875 0.734375 -1.359375q0.484375 -0.578125 1.171875 -0.875q0.6875 -0.3125 1.578125 -0.3125q1.1875 0 1.9375 0.53125q0.765625 0.53125 1.109375 1.375l-1.015625 0.546875q-0.234375 -0.640625 -0.75 -0.984375q-0.515625 -0.359375 -1.28125 -0.359375q-0.5625 0 -1.015625 0.1875q-0.4375 0.1875 -0.734375 0.53125q-0.296875 0.328125 -0.453125 0.796875q-0.15625 0.453125 -0.15625 1.0l0 1.40625q0 0.546875 0.15625 1.015625q0.15625 0.453125 0.453125 0.796875q0.296875 0.328125 0.75 0.515625q0.453125 0.1875 1.03125 0.1875q0.828125 0 1.375 -0.390625q0.546875 -0.390625 0.859375 -1.0625l0.90625 0.625q-0.359375 0.84375 -1.140625 1.390625q-0.765625 0.53125 -2.015625 0.53125z" fill-rule="nonzero"/><path fill="#000000" fill-opacity="0.0" d="m112.78096 134.16954l39.905502 0" fill-rule="evenodd"/><path stroke="#000000" stroke-width="2.0" stroke-linejoin="round" stroke-linecap="butt" d="m112.78095 134.16954l27.90551 0" fill-rule="evenodd"/><path fill="#000000" stroke="#000000" stroke-width="2.0" stroke-linecap="butt" d="m140.68646 137.473l9.076202 -3.3034668l-9.076202 -3.3034668z" fill-rule="evenodd"/><path fill="#000000" fill-opacity="0.0" d="m192.35826 134.16823l47.968506 0" fill-rule="evenodd"/><path stroke="#000000" stroke-width="2.0" stroke-linejoin="round" stroke-linecap="butt" d="m192.35826 134.16823l35.968506 0" fill-rule="evenodd"/><path fill="#000000" stroke="#000000" stroke-width="2.0" stroke-linecap="butt" d="m228.32677 137.4717l9.076202 -3.3034668l-9.076202 -3.3034668z" fill-rule="evenodd"/><path fill="#cfe2f3" d="m503.90506 207.03084l33.51181 0l0 66.39369l-33.51181 0z" fill-rule="evenodd"/><path stroke="#000000" stroke-width="1.0" stroke-linejoin="round" stroke-linecap="butt" d="m503.90506 207.03084l33.51181 0l0 66.39369l-33.51181 0z" fill-rule="evenodd"/><path fill="#fff2cc" d="m656.8725 207.03084l33.51184 0l0 66.39369l-33.51184 0z" fill-rule="evenodd"/><path stroke="#000000" stroke-width="1.0" stroke-linejoin="round" stroke-linecap="butt" d="m656.8725 207.03084l33.51184 0l0 66.39369l-33.51184 0z" fill-rule="evenodd"/><path fill="#f3f3f3" d="m577.7021 240.22769l0 0c0 -10.706497 8.883789 -19.385834 19.84253 -19.385834l0 0c5.2625732 0 10.30957 2.0424347 14.030762 5.6779785c3.7211914 3.635559 5.8117676 8.566406 5.8117676 13.707855l0 0c0 10.706497 -8.883789 19.385834 -19.84253 19.385834l0 0c-10.95874 0 -19.84253 -8.679337 -19.84253 -19.385834z" fill-rule="evenodd"/><path stroke="#000000" stroke-width="1.0" stroke-linejoin="round" stroke-linecap="butt" d="m577.7021 240.22769l0 0c0 -10.706497 8.883789 -19.385834 19.84253 -19.385834l0 0c5.2625732 0 10.30957 2.0424347 14.030762 5.6779785c3.7211914 3.635559 5.8117676 8.566406 5.8117676 13.707855l0 0c0 10.706497 -8.883789 19.385834 -19.84253 19.385834l0 0c-10.95874 0 -19.84253 -8.679337 -19.84253 -19.385834z" fill-rule="evenodd"/><path fill="#000000" fill-opacity="0.0" d="m537.4169 240.22769l40.283447 0" fill-rule="evenodd"/><path stroke="#000000" stroke-width="2.0" stroke-linejoin="round" stroke-linecap="butt" d="m537.4169 240.22769l28.283447 0" fill-rule="evenodd"/><path fill="#000000" stroke="#000000" stroke-width="2.0" stroke-linecap="butt" d="m565.7003 243.53116l9.076233 -3.3034668l-9.076233 -3.3034668z" fill-rule="evenodd"/><path fill="#000000" fill-opacity="0.0" d="m617.38715 240.22769l39.496033 0" fill-rule="evenodd"/><path stroke="#000000" stroke-width="2.0" stroke-linejoin="round" stroke-linecap="butt" d="m617.38715 240.22769l27.496033 0" fill-rule="evenodd"/><path fill="#000000" stroke="#000000" stroke-width="2.0" stroke-linecap="butt" d="m644.8832 243.53116l9.076233 -3.3034668l-9.076233 -3.3034668z" fill-rule="evenodd"/><path fill="#000000" fill-opacity="0.0" d="m442.39725 36.704067l0.09448242 192.12598" fill-rule="evenodd"/><path stroke="#000000" stroke-width="2.0" stroke-linejoin="round" stroke-linecap="butt" d="m442.39722 36.704067l0.08859253 180.12598" fill-rule="evenodd"/><path fill="#000000" stroke="#000000" stroke-width="2.0" stroke-linecap="butt" d="m439.18234 216.83168l3.3079224 9.07457l3.2990112 -9.07782z" fill-rule="evenodd"/><path fill="#000000" fill-opacity="0.0" d="m261.62112 204.54207l47.84253 0l0 84.03148l-47.84253 0z" fill-rule="evenodd"/><path fill="#000000" d="m282.6798 217.06331q-0.359375 0 -0.515625 -0.140625q-0.15625 -0.15625 -0.15625 -0.390625l0 -0.171875q0 -0.234375 0.15625 -0.390625q0.15625 -0.15625 0.515625 -0.15625q0.375 0 0.515625 0.15625q0.15625 0.15625 0.15625 0.390625l0 0.171875q0 0.234375 -0.15625 0.390625q-0.140625 0.140625 -0.515625 0.140625zm-2.40625 6.0l1.984375 0l0 -4.0625l-1.984375 0l0 -0.71875l2.84375 0l0 4.78125l1.84375 0l0 0.71875l-4.6875 0l0 -0.71875zm6.3157043 0.71875l0 -5.5l0.84375 0l0 0.890625l0.046875 0q0.09375 -0.203125 0.21875 -0.375q0.125 -0.1875 0.3125 -0.328125q0.1875 -0.140625 0.4375 -0.21875q0.265625 -0.09375 0.59375 -0.09375q0.875 0 1.390625 0.546875q0.515625 0.546875 0.515625 1.546875l0 3.53125l-0.84375 0l0 -3.375q0 -0.765625 -0.328125 -1.125q-0.328125 -0.375 -0.96875 -0.375q-0.265625 0 -0.515625 0.078125q-0.234375 0.0625 -0.4375 0.1875q-0.1875 0.125 -0.3125 0.328125q-0.109375 0.203125 -0.109375 0.46875l0 3.8125l-0.84375 0z" fill-rule="nonzero"/><path fill="#000000" d="m279.1548 236.70706q-0.578125 0 -1.046875 -0.203125q-0.46875 -0.203125 -0.796875 -0.578125q-0.3125 -0.375 -0.484375 -0.90625q-0.171875 -0.53125 -0.171875 -1.1875q0 -0.65625 0.171875 -1.1875q0.171875 -0.53125 0.484375 -0.90625q0.328125 -0.375 0.796875 -0.578125q0.46875 -0.203125 1.046875 -0.203125q0.5625 0 1.03125 0.203125q0.46875 0.203125 0.78125 0.578125q0.328125 0.375 0.5 0.90625q0.171875 0.53125 0.171875 1.1875q0 0.65625 -0.171875 1.1875q-0.171875 0.53125 -0.5 0.90625q-0.3125 0.375 -0.78125 0.578125q-0.46875 0.203125 -1.03125 0.203125zm0 -0.734375q0.703125 0 1.140625 -0.421875q0.4375 -0.421875 0.4375 -1.328125l0 -0.78125q0 -0.890625 -0.4375 -1.3125q-0.4375 -0.4375 -1.140625 -0.4375q-0.71875 0 -1.15625 0.4375q-0.4375 0.421875 -0.4375 1.3125l0 0.78125q0 0.90625 0.4375 1.328125q0.4375 0.421875 1.15625 0.421875zm7.6907043 -0.28125l-0.046875 0q-0.078125 0.203125 -0.21875 0.390625q-0.125 0.1875 -0.3125 0.328125q-0.1875 0.125 -0.4375 0.203125q-0.25 0.09375 -0.59375 0.09375q-0.859375 0 -1.390625 -0.546875q-0.515625 -0.546875 -0.515625 -1.546875l0 -3.53125l0.84375 0l0 3.375q0 0.765625 0.328125 1.140625q0.34375 0.359375 0.984375 0.359375q0.25 0 0.484375 -0.0625q0.25 -0.0625 0.4375 -0.1875q0.203125 -0.140625 0.3125 -0.328125q0.125 -0.203125 0.125 -0.484375l0 -3.8125l0.84375 0l0 5.5l-0.84375 0l0 -0.890625zm5.362549 0.890625q-0.640625 0 -0.9375 -0.34375q-0.28125 -0.359375 -0.28125 -0.90625l0 -3.53125l-1.828125 0l0 -0.71875l1.359375 0q0.28125 0 0.390625 -0.109375q0.109375 -0.109375 0.109375 -0.390625l0 -1.4375l0.8125 0l0 1.9375l2.515625 0l0 0.71875l-2.515625 0l0 4.0625l2.515625 0l0 0.71875l-2.140625 0z" fill-rule="nonzero"/><path fill="#000000" d="m285.2205 245.10081q0.78125 0 1.171875 -0.34375q0.390625 -0.34375 0.390625 -0.890625l0 -0.078125q0 -0.59375 -0.390625 -0.890625q-0.375 -0.296875 -0.984375 -0.296875q-0.59375 0 -0.96875 0.265625q-0.359375 0.25 -0.59375 0.671875l-0.671875 -0.5q0.140625 -0.234375 0.34375 -0.453125q0.203125 -0.21875 0.46875 -0.390625q0.28125 -0.171875 0.625 -0.265625q0.359375 -0.109375 0.828125 -0.109375q0.46875 0 0.890625 0.125q0.421875 0.109375 0.71875 0.359375q0.3125 0.234375 0.484375 0.59375q0.1875 0.34375 0.1875 0.796875q0 0.359375 -0.125 0.65625q-0.109375 0.28125 -0.3125 0.5q-0.1875 0.203125 -0.453125 0.359375q-0.265625 0.140625 -0.5625 0.21875l0 0.046875q0.3125 0.0625 0.59375 0.203125q0.296875 0.140625 0.515625 0.375q0.21875 0.234375 0.34375 0.5625q0.140625 0.3125 0.140625 0.734375q0 0.46875 -0.1875 0.875q-0.1875 0.40625 -0.53125 0.6875q-0.328125 0.28125 -0.796875 0.4375q-0.46875 0.15625 -1.046875 0.15625q-0.484375 0 -0.875 -0.109375q-0.375 -0.09375 -0.671875 -0.28125q-0.28125 -0.1875 -0.5 -0.40625q-0.21875 -0.21875 -0.390625 -0.46875l0.671875 -0.515625q0.140625 0.234375 0.296875 0.421875q0.171875 0.171875 0.375 0.3125q0.203125 0.125 0.46875 0.203125q0.265625 0.0625 0.625 0.0625q0.78125 0 1.203125 -0.359375q0.421875 -0.359375 0.421875 -1.03125l0 -0.078125q0 -0.671875 -0.40625 -1.03125q-0.40625 -0.359375 -1.234375 -0.359375l-0.875 0l0 -0.765625l0.8125 0z" fill-rule="nonzero"/><path fill="#000000" d="m283.25174 262.18207l0 -0.78125l2.125 0l0 -6.0l-0.0625 0l-1.875 1.75l-0.53125 -0.5625l1.96875 -1.84375l1.40625 0l0 6.65625l1.953125 0l0 0.78125l-4.984375 0z" fill-rule="nonzero"/><path fill="#000000" fill-opacity="0.0" d="m649.3075 202.88892l47.84247 0l0 84.031494l-47.84247 0z" fill-rule="evenodd"/><path fill="#000000" d="m666.8411 222.2539q-0.578125 0 -1.046875 -0.203125q-0.46875 -0.203125 -0.796875 -0.578125q-0.3125 -0.375 -0.484375 -0.90625q-0.171875 -0.53125 -0.171875 -1.1875q0 -0.65625 0.171875 -1.1875q0.171875 -0.53125 0.484375 -0.90625q0.328125 -0.375 0.796875 -0.578125q0.46875 -0.203125 1.046875 -0.203125q0.5625 0 1.03125 0.203125q0.46875 0.203125 0.78125 0.578125q0.328125 0.375 0.5 0.90625q0.171875 0.53125 0.171875 1.1875q0 0.65625 -0.171875 1.1875q-0.171875 0.53125 -0.5 0.90625q-0.3125 0.375 -0.78125 0.578125q-0.46875 0.203125 -1.03125 0.203125zm0 -0.734375q0.703125 0 1.140625 -0.421875q0.4375 -0.421875 0.4375 -1.328125l0 -0.78125q0 -0.890625 -0.4375 -1.3125q-0.4375 -0.4375 -1.140625 -0.4375q-0.71875 0 -1.15625 0.4375q-0.4375 0.421875 -0.4375 1.3125l0 0.78125q0 0.90625 0.4375 1.328125q0.4375 0.421875 1.15625 0.421875zm7.690674 -0.28125l-0.046875 0q-0.078125 0.203125 -0.21875 0.390625q-0.125 0.1875 -0.3125 0.328125q-0.1875 0.125 -0.4375 0.203125q-0.25 0.09375 -0.59375 0.09375q-0.859375 0 -1.390625 -0.546875q-0.515625 -0.546875 -0.515625 -1.546875l0 -3.53125l0.84375 0l0 3.375q0 0.765625 0.328125 1.140625q0.34375 0.359375 0.984375 0.359375q0.25 0 0.484375 -0.0625q0.25 -0.0625 0.4375 -0.1875q0.203125 -0.140625 0.3125 -0.328125q0.125 -0.203125 0.125 -0.484375l0 -3.8125l0.84375 0l0 5.5l-0.84375 0l0 -0.890625zm5.36261 0.890625q-0.640625 0 -0.9375 -0.34375q-0.28125 -0.359375 -0.28125 -0.90625l0 -3.53125l-1.828125 0l0 -0.71875l1.359375 0q0.28125 0 0.390625 -0.109375q0.109375 -0.109375 0.109375 -0.390625l0 -1.4375l0.8125 0l0 1.9375l2.515625 0l0 0.71875l-2.515625 0l0 4.0625l2.515625 0l0 0.71875l-2.140625 0z" fill-rule="nonzero"/><path fill="#000000" d="m666.8411 235.05391q-0.578125 0 -1.046875 -0.203125q-0.46875 -0.203125 -0.796875 -0.578125q-0.3125 -0.375 -0.484375 -0.90625q-0.171875 -0.53125 -0.171875 -1.1875q0 -0.65625 0.171875 -1.1875q0.171875 -0.53125 0.484375 -0.90625q0.328125 -0.375 0.796875 -0.578125q0.46875 -0.203125 1.046875 -0.203125q0.5625 0 1.03125 0.203125q0.46875 0.203125 0.78125 0.578125q0.328125 0.375 0.5 0.90625q0.171875 0.53125 0.171875 1.1875q0 0.65625 -0.171875 1.1875q-0.171875 0.53125 -0.5 0.90625q-0.3125 0.375 -0.78125 0.578125q-0.46875 0.203125 -1.03125 0.203125zm0 -0.734375q0.703125 0 1.140625 -0.421875q0.4375 -0.421875 0.4375 -1.328125l0 -0.78125q0 -0.890625 -0.4375 -1.3125q-0.4375 -0.4375 -1.140625 -0.4375q-0.71875 0 -1.15625 0.4375q-0.4375 0.421875 -0.4375 1.3125l0 0.78125q0 0.90625 0.4375 1.328125q0.4375 0.421875 1.15625 0.421875zm7.690674 -0.28125l-0.046875 0q-0.078125 0.203125 -0.21875 0.390625q-0.125 0.1875 -0.3125 0.328125q-0.1875 0.125 -0.4375 0.203125q-0.25 0.09375 -0.59375 0.09375q-0.859375 0 -1.390625 -0.546875q-0.515625 -0.546875 -0.515625 -1.546875l0 -3.53125l0.84375 0l0 3.375q0 0.765625 0.328125 1.140625q0.34375 0.359375 0.984375 0.359375q0.25 0 0.484375 -0.0625q0.25 -0.0625 0.4375 -0.1875q0.203125 -0.140625 0.3125 -0.328125q0.125 -0.203125 0.125 -0.484375l0 -3.8125l0.84375 0l0 5.5l-0.84375 0l0 -0.890625zm5.36261 0.890625q-0.640625 0 -0.9375 -0.34375q-0.28125 -0.359375 -0.28125 -0.90625l0 -3.53125l-1.828125 0l0 -0.71875l1.359375 0q0.28125 0 0.390625 -0.109375q0.109375 -0.109375 0.109375 -0.390625l0 -1.4375l0.8125 0l0 1.9375l2.515625 0l0 0.71875l-2.515625 0l0 4.0625l2.515625 0l0 0.71875l-2.140625 0z" fill-rule="nonzero"/><path fill="#000000" d="m672.9068 243.44766q0.78125 0 1.171875 -0.34375q0.390625 -0.34375 0.390625 -0.890625l0 -0.078125q0 -0.59375 -0.390625 -0.890625q-0.375 -0.296875 -0.984375 -0.296875q-0.59375 0 -0.96875 0.265625q-0.359375 0.25 -0.59375 0.671875l-0.671875 -0.5q0.140625 -0.234375 0.34375 -0.453125q0.203125 -0.21875 0.46875 -0.390625q0.28125 -0.171875 0.625 -0.265625q0.359375 -0.109375 0.828125 -0.109375q0.46875 0 0.890625 0.125q0.421875 0.109375 0.71875 0.359375q0.3125 0.234375 0.484375 0.59375q0.1875 0.34375 0.1875 0.796875q0 0.359375 -0.125 0.65625q-0.109375 0.28125 -0.3125 0.5q-0.1875 0.203125 -0.453125 0.359375q-0.265625 0.140625 -0.5625 0.21875l0 0.046875q0.3125 0.0625 0.59375 0.203125q0.296875 0.140625 0.515625 0.375q0.21875 0.234375 0.34375 0.5625q0.140625 0.3125 0.140625 0.734375q0 0.46875 -0.1875 0.875q-0.1875 0.40625 -0.53125 0.6875q-0.328125 0.28125 -0.796875 0.4375q-0.46875 0.15625 -1.046875 0.15625q-0.484375 0 -0.875 -0.109375q-0.375 -0.09375 -0.671875 -0.28125q-0.28125 -0.1875 -0.5 -0.40625q-0.21875 -0.21875 -0.390625 -0.46875l0.671875 -0.515625q0.140625 0.234375 0.296875 0.421875q0.171875 0.171875 0.375 0.3125q0.203125 0.125 0.46875 0.203125q0.265625 0.0625 0.625 0.0625q0.78125 0 1.203125 -0.359375q0.421875 -0.359375 0.421875 -1.03125l0 -0.078125q0 -0.671875 -0.40625 -1.03125q-0.40625 -0.359375 -1.234375 -0.359375l-0.875 0l0 -0.765625l0.8125 0z" fill-rule="nonzero"/><path fill="#000000" d="m670.93805 260.5289l0 -0.78125l2.125 0l0 -5.9999847l-0.0625 0l-1.875 1.75l-0.53125 -0.5625l1.96875 -1.84375l1.40625 0l0 6.6562347l1.953125 0l0 0.78125l-4.984375 0z" fill-rule="nonzero"/><path fill="#000000" fill-opacity="0.0" d="m462.51923 240.22769l41.385834 0" fill-rule="evenodd"/><path stroke="#000000" stroke-width="2.0" stroke-linejoin="round" stroke-linecap="butt" d="m462.51923 240.22769l29.385834 0" fill-rule="evenodd"/><path fill="#000000" stroke="#000000" stroke-width="2.0" stroke-linecap="butt" d="m491.90506 243.53116l9.076202 -3.3034668l-9.076202 -3.3034668z" fill-rule="evenodd"/><path fill="#f3f3f3" d="m8.0 207.03084l66.3937 0l0 66.39369l-66.3937 0z" fill-rule="evenodd"/><path stroke="#000000" stroke-width="1.0" stroke-linejoin="round" stroke-linecap="butt" d="m8.0 207.03084l66.3937 0l0 66.39369l-66.3937 0z" fill-rule="evenodd"/><path fill="#f3f3f3" d="m812.00525 206.74738l66.39368 0l0 66.39371l-66.39368 0z" fill-rule="evenodd"/><path stroke="#000000" stroke-width="1.0" stroke-linejoin="round" stroke-linecap="butt" d="m812.00525 206.74738l66.39368 0l0 66.39371l-66.39368 0z" fill-rule="evenodd"/><path fill="#000000" fill-opacity="0.0" d="m17.320618 203.71472l47.84252 0l0 84.031494l-47.84252 0z" fill-rule="evenodd"/><path fill="#000000" d="m38.98247 215.51721l2.53125 0q0.953125 0 1.5 0.53125q0.546875 0.515625 0.546875 1.390625q0 0.671875 -0.328125 1.0625q-0.328125 0.375 -0.84375 0.53125l0 0.03125q0.625 0.15625 1.03125 0.5625q0.40625 0.40625 0.40625 1.1875q0 0.453125 -0.15625 0.84375q-0.140625 0.390625 -0.421875 0.6875q-0.265625 0.28125 -0.640625 0.453125q-0.359375 0.15625 -0.78125 0.15625l-2.84375 0l0 -7.4375zm2.578125 6.65625q0.625 0 0.96875 -0.265625q0.359375 -0.28125 0.359375 -0.859375l0 -0.4375q0 -0.5625 -0.359375 -0.84375q-0.34375 -0.28125 -0.96875 -0.28125l-1.6875 0l0 2.6875l1.6875 0zm-0.140625 -3.421875q0.5625 0 0.875 -0.25q0.328125 -0.25 0.328125 -0.765625l0 -0.421875q0 -0.515625 -0.328125 -0.765625q-0.3125 -0.25 -0.875 -0.25l-1.546875 0l0 2.453125l1.546875 0z" fill-rule="nonzero"/><path fill="#000000" d="m38.379314 229.03596q-0.359375 0 -0.515625 -0.140625q-0.15625 -0.15625 -0.15625 -0.390625l0 -0.171875q0 -0.234375 0.15625 -0.390625q0.15625 -0.15625 0.515625 -0.15625q0.375 0 0.515625 0.15625q0.15625 0.15625 0.15625 0.390625l0 0.171875q0 0.234375 -0.15625 0.390625q-0.140625 0.140625 -0.515625 0.140625zm-2.40625 6.0l1.984375 0l0 -4.0625l-1.984375 0l0 -0.71875l2.84375 0l0 4.78125l1.84375 0l0 0.71875l-4.6875 0l0 -0.71875zm6.315689 0.71875l0 -5.5l0.84375 0l0 0.890625l0.046875 0q0.09375 -0.203125 0.21875 -0.375q0.125 -0.1875 0.3125 -0.328125q0.1875 -0.140625 0.4375 -0.21875q0.265625 -0.09375 0.59375 -0.09375q0.875 0 1.390625 0.546875q0.515625 0.546875 0.515625 1.546875l0 3.53125l-0.84375 0l0 -3.375q0 -0.765625 -0.328125 -1.125q-0.328125 -0.375 -0.96875 -0.375q-0.265625 0 -0.515625 0.078125q-0.234375 0.0625 -0.4375 0.1875q-0.1875 0.125 -0.3125 0.328125q-0.109375 0.203125 -0.109375 0.46875l0 3.8125l-0.84375 0z" fill-rule="nonzero"/><path fill="#000000" d="m39.091846 240.6641l0.84375 0l0 3.28125l0.046875 0q0.09375 -0.203125 0.21875 -0.375q0.125 -0.1875 0.3125 -0.328125q0.1875 -0.140625 0.4375 -0.21875q0.265625 -0.09375 0.59375 -0.09375q0.875 0 1.390625 0.546875q0.515625 0.546875 0.515625 1.546875l0 3.53125l-0.84375 0l0 -3.375q0 -0.765625 -0.328125 -1.125q-0.328125 -0.375 -0.96875 -0.375q-0.265625 0 -0.515625 0.078125q-0.234375 0.0625 -0.4375 0.1875q-0.1875 0.125 -0.3125 0.328125q-0.109375 0.203125 -0.109375 0.46875l0 3.8125l-0.84375 0l0 -7.890625z" fill-rule="nonzero"/><path fill="#000000" d="m38.35747 255.85472l0.765625 0l0.625 4.7499847l0.09375 0l0.9375 -4.7499847l0.9375 0l0.9375 4.7499847l0.09375 0l0.640625 -4.7499847l0.734375 0l-0.84375 5.4999847l-1.109375 0l-0.875 -4.609375l-0.078125 0l-0.90625 4.609375l-1.109375 0l-0.84375 -5.4999847z" fill-rule="nonzero"/><path fill="#000000" fill-opacity="0.0" d="m821.2304 203.71506l47.84247 0l0 84.031494l-47.84247 0z" fill-rule="evenodd"/><path fill="#000000" d="m842.8922 215.51756l2.53125 0q0.953125 0 1.5 0.53125q0.546875 0.515625 0.546875 1.390625q0 0.671875 -0.328125 1.0625q-0.328125 0.375 -0.84375 0.53125l0 0.03125q0.625 0.15625 1.03125 0.5625q0.40625 0.40625 0.40625 1.1875q0 0.453125 -0.15625 0.84375q-0.140625 0.390625 -0.421875 0.6875q-0.265625 0.28125 -0.640625 0.453125q-0.359375 0.15625 -0.78125 0.15625l-2.84375 0l0 -7.4375zm2.578125 6.65625q0.625 0 0.96875 -0.265625q0.359375 -0.28125 0.359375 -0.859375l0 -0.4375q0 -0.5625 -0.359375 -0.84375q-0.34375 -0.28125 -0.96875 -0.28125l-1.6875 0l0 2.6875l1.6875 0zm-0.140625 -3.421875q0.5625 0 0.875 -0.25q0.328125 -0.25 0.328125 -0.765625l0 -0.421875q0 -0.515625 -0.328125 -0.765625q-0.3125 -0.25 -0.875 -0.25l-1.546875 0l0 2.453125l1.546875 0z" fill-rule="nonzero"/><path fill="#000000" d="m838.76404 235.88007q-0.578125 0 -1.046875 -0.203125q-0.46875 -0.203125 -0.796875 -0.578125q-0.3125 -0.375 -0.484375 -0.90625q-0.171875 -0.53125 -0.171875 -1.1875q0 -0.65625 0.171875 -1.1875q0.171875 -0.53125 0.484375 -0.90625q0.328125 -0.375 0.796875 -0.578125q0.46875 -0.203125 1.046875 -0.203125q0.5625 0 1.03125 0.203125q0.46875 0.203125 0.78125 0.578125q0.328125 0.375 0.5 0.90625q0.171875 0.53125 0.171875 1.1875q0 0.65625 -0.171875 1.1875q-0.171875 0.53125 -0.5 0.90625q-0.3125 0.375 -0.78125 0.578125q-0.46875 0.203125 -1.03125 0.203125zm0 -0.734375q0.703125 0 1.140625 -0.421875q0.4375 -0.421875 0.4375 -1.328125l0 -0.78125q0 -0.890625 -0.4375 -1.3125q-0.4375 -0.4375 -1.140625 -0.4375q-0.71875 0 -1.15625 0.4375q-0.4375 0.421875 -0.4375 1.3125l0 0.78125q0 0.90625 0.4375 1.328125q0.4375 0.421875 1.15625 0.421875zm7.690674 -0.28125l-0.046875 0q-0.078125 0.203125 -0.21875 0.390625q-0.125 0.1875 -0.3125 0.328125q-0.1875 0.125 -0.4375 0.203125q-0.25 0.09375 -0.59375 0.09375q-0.859375 0 -1.390625 -0.546875q-0.515625 -0.546875 -0.515625 -1.546875l0 -3.53125l0.84375 0l0 3.375q0 0.765625 0.328125 1.140625q0.34375 0.359375 0.984375 0.359375q0.25 0 0.484375 -0.0625q0.25 -0.0625 0.4375 -0.1875q0.203125 -0.140625 0.3125 -0.328125q0.125 -0.203125 0.125 -0.484375l0 -3.8125l0.84375 0l0 5.5l-0.84375 0l0 -0.890625zm5.36261 0.890625q-0.640625 0 -0.9375 -0.34375q-0.28125 -0.359375 -0.28125 -0.90625l0 -3.53125l-1.828125 0l0 -0.71875l1.359375 0q0.28125 0 0.390625 -0.109375q0.109375 -0.109375 0.109375 -0.390625l0 -1.4375l0.8125 0l0 1.9375l2.515625 0l0 0.71875l-2.515625 0l0 4.0625l2.515625 0l0 0.71875l-2.140625 0z" fill-rule="nonzero"/><path fill="#000000" d="m843.0016 240.66443l0.84375 0l0 3.28125l0.046875 0q0.09375 -0.203125 0.21875 -0.375q0.125 -0.1875 0.3125 -0.328125q0.1875 -0.140625 0.4375 -0.21875q0.265625 -0.09375 0.59375 -0.09375q0.875 0 1.390625 0.546875q0.515625 0.546875 0.515625 1.546875l0 3.53125l-0.84375 0l0 -3.375q0 -0.765625 -0.328125 -1.125q-0.328125 -0.375 -0.96875 -0.375q-0.265625 0 -0.515625 0.078125q-0.234375 0.0625 -0.4375 0.1875q-0.1875 0.125 -0.3125 0.328125q-0.109375 0.203125 -0.109375 0.46875l0 3.8125l-0.84375 0l0 -7.890625z" fill-rule="nonzero"/><path fill="#000000" d="m842.2672 255.85506l0.765625 0l0.625 4.7500153l0.09375 0l0.9375 -4.7500153l0.9375 0l0.9375 4.7500153l0.09375 0l0.640625 -4.7500153l0.734375 0l-0.84375 5.5000153l-1.109375 0l-0.875 -4.609375l-0.078125 0l-0.90625 4.609375l-1.109375 0l-0.84375 -5.5000153z" fill-rule="nonzero"/><path fill="#000000" fill-opacity="0.0" d="m107.43215 311.2721l47.84252 0l0 84.031494l-47.84252 0z" fill-rule="evenodd"/><path fill="#000000" d="m128.49084 323.79333q-0.359375 0 -0.515625 -0.140625q-0.15625 -0.15625 -0.15625 -0.390625l0 -0.171875q0 -0.234375 0.15625 -0.390625q0.15625 -0.15625 0.515625 -0.15625q0.375 0 0.515625 0.15625q0.15625 0.15625 0.15625 0.390625l0 0.171875q0 0.234375 -0.15625 0.390625q-0.140625 0.140625 -0.515625 0.140625zm-2.40625 6.0l1.984375 0l0 -4.0625l-1.984375 0l0 -0.71875l2.84375 0l0 4.78125l1.84375 0l0 0.71875l-4.6875 0l0 -0.71875zm6.315689 0.71875l0 -5.5l0.84375 0l0 0.890625l0.046875 0q0.09375 -0.203125 0.21875 -0.375q0.125 -0.1875 0.3125 -0.328125q0.1875 -0.140625 0.4375 -0.21875q0.265625 -0.09375 0.59375 -0.09375q0.875 0 1.390625 0.546875q0.515625 0.546875 0.515625 1.546875l0 3.53125l-0.84375 0l0 -3.375q0 -0.765625 -0.328125 -1.125q-0.328125 -0.375 -0.96875 -0.375q-0.265625 0 -0.515625 0.078125q-0.234375 0.0625 -0.4375 0.1875q-0.1875 0.125 -0.3125 0.328125q-0.109375 0.203125 -0.109375 0.46875l0 3.8125l-0.84375 0z" fill-rule="nonzero"/><path fill="#000000" d="m124.96581 343.43707q-0.578125 0 -1.046875 -0.203125q-0.46875 -0.203125 -0.796875 -0.578125q-0.3125 -0.375 -0.484375 -0.90625q-0.171875 -0.53125 -0.171875 -1.1875q0 -0.65625 0.171875 -1.1875q0.171875 -0.53125 0.484375 -0.90625q0.328125 -0.375 0.796875 -0.578125q0.46875 -0.203125 1.046875 -0.203125q0.5625 0 1.03125 0.203125q0.46875 0.203125 0.78125 0.578125q0.328125 0.375 0.5 0.90625q0.171875 0.53125 0.171875 1.1875q0 0.65625 -0.171875 1.1875q-0.171875 0.53125 -0.5 0.90625q-0.3125 0.375 -0.78125 0.578125q-0.46875 0.203125 -1.03125 0.203125zm0 -0.734375q0.703125 0 1.140625 -0.421875q0.4375 -0.421875 0.4375 -1.328125l0 -0.78125q0 -0.890625 -0.4375 -1.3125q-0.4375 -0.4375 -1.140625 -0.4375q-0.71875 0 -1.15625 0.4375q-0.4375 0.421875 -0.4375 1.3125l0 0.78125q0 0.90625 0.4375 1.328125q0.4375 0.421875 1.15625 0.421875zm7.6906967 -0.28125l-0.046875 0q-0.078125 0.203125 -0.21875 0.390625q-0.125 0.1875 -0.3125 0.328125q-0.1875 0.125 -0.4375 0.203125q-0.25 0.09375 -0.59375 0.09375q-0.859375 0 -1.390625 -0.546875q-0.515625 -0.546875 -0.515625 -1.546875l0 -3.53125l0.84375 0l0 3.375q0 0.765625 0.328125 1.140625q0.34375 0.359375 0.984375 0.359375q0.25 0 0.484375 -0.0625q0.25 -0.0625 0.4375 -0.1875q0.203125 -0.140625 0.3125 -0.328125q0.125 -0.203125 0.125 -0.484375l0 -3.8125l0.84375 0l0 5.5l-0.84375 0l0 -0.890625zm5.362564 0.890625q-0.640625 0 -0.9375 -0.34375q-0.28125 -0.359375 -0.28125 -0.90625l0 -3.53125l-1.828125 0l0 -0.71875l1.359375 0q0.28125 0 0.390625 -0.109375q0.109375 -0.109375 0.109375 -0.390625l0 -1.4375l0.8125 0l0 1.9375l2.515625 0l0 0.71875l-2.515625 0l0 4.0625l2.515625 0l0 0.71875l-2.140625 0z" fill-rule="nonzero"/><path fill="#000000" d="m129.06276 356.1121l0 -0.78125l2.125 0l0 -6.0l-0.0625 0l-1.875 1.75l-0.53125 -0.5625l1.96875 -1.84375l1.40625 0l0 6.65625l1.953125 0l0 0.78125l-4.984375 0z" fill-rule="nonzero"/><path fill="#000000" d="m131.35963 369.03708q-0.6875 0 -1.1875 -0.25q-0.484375 -0.265625 -0.8125 -0.75q-0.3125 -0.5 -0.46875 -1.203125q-0.140625 -0.71875 -0.140625 -1.640625q0 -0.90625 0.140625 -1.625q0.15625 -0.71875 0.46875 -1.203125q0.328125 -0.5 0.8125 -0.75q0.5 -0.265625 1.1875 -0.265625q0.671875 0 1.15625 0.265625q0.5 0.25 0.8125 0.75q0.328125 0.484375 0.46875 1.203125q0.15625 0.71875 0.15625 1.625q0 0.921875 -0.15625 1.640625q-0.140625 0.703125 -0.46875 1.203125q-0.3125 0.484375 -0.8125 0.75q-0.484375 0.25 -1.15625 0.25zm0 -0.78125q0.4375 0 0.75 -0.171875q0.328125 -0.171875 0.515625 -0.484375q0.203125 -0.328125 0.296875 -0.78125q0.109375 -0.453125 0.109375 -1.015625l0 -1.21875q0 -0.546875 -0.109375 -1.0q-0.09375 -0.46875 -0.296875 -0.78125q-0.1875 -0.328125 -0.515625 -0.5q-0.3125 -0.171875 -0.75 -0.171875q-0.453125 0 -0.78125 0.171875q-0.3125 0.171875 -0.515625 0.5q-0.1875 0.3125 -0.28125 0.78125q-0.09375 0.453125 -0.09375 1.0l0 1.21875q0 0.5625 0.09375 1.015625q0.09375 0.453125 0.28125 0.78125q0.203125 0.3125 0.515625 0.484375q0.328125 0.171875 0.78125 0.171875zm0 -2.4375q-0.375 0 -0.53125 -0.140625q-0.140625 -0.15625 -0.140625 -0.375l0 -0.234375q0 -0.203125 0.140625 -0.34375q0.15625 -0.15625 0.53125 -0.15625q0.359375 0 0.5 0.15625q0.15625 0.140625 0.15625 0.34375l0 0.234375q0 0.21875 -0.15625 0.375q-0.140625 0.140625 -0.5 0.140625z" fill-rule="nonzero"/><path fill="#000000" fill-opacity="0.0" d="m148.10892 346.51904l603.0867 0l0 -84.09451" fill-rule="evenodd"/><path stroke="#000000" stroke-width="2.0" stroke-linejoin="round" stroke-linecap="butt" d="m148.10892 346.51904l603.0867 0l0 -72.09451" fill-rule="evenodd"/><path fill="#000000" stroke="#000000" stroke-width="2.0" stroke-linecap="butt" d="m754.499 274.42453l-3.3034668 -9.076172l-3.3034668 9.076172z" fill-rule="evenodd"/><path fill="#000000" fill-opacity="0.0" d="m690.38434 240.22769l39.55902 -0.28346252" fill-rule="evenodd"/><path stroke="#000000" stroke-width="2.0" stroke-linejoin="round" stroke-linecap="butt" d="m690.38434 240.22769l27.559387 -0.1974945" fill-rule="evenodd"/><path fill="#000000" stroke="#000000" stroke-width="2.0" stroke-linecap="butt" d="m717.9674 243.33359l9.052246 -3.3684082l-9.099609 -3.2383423z" fill-rule="evenodd"/><path fill="#000000" fill-opacity="0.0" d="m769.958 239.94423l42.04724 0" fill-rule="evenodd"/><path stroke="#000000" stroke-width="2.0" stroke-linejoin="round" stroke-linecap="butt" d="m769.958 239.94423l30.047241 0" fill-rule="evenodd"/><path fill="#000000" stroke="#000000" stroke-width="2.0" stroke-linecap="butt" d="m800.00525 243.2477l9.076172 -3.3034668l-9.076172 -3.3034668z" fill-rule="evenodd"/><path fill="#d0e0e3" d="m407.9563 36.704067l14.162994 -32.31496l40.555878 0l14.163025 32.31496z" fill-rule="evenodd"/><path stroke="#000000" stroke-width="1.0" stroke-linejoin="round" stroke-linecap="butt" d="m407.9563 36.704067l14.162994 -32.31496l40.555878 0l14.163025 32.31496z" fill-rule="evenodd"/><path fill="#f3f3f3" d="m327.94357 20.545275l0 0c0 -10.706495 8.883789 -19.385826 19.84253 -19.385826l0 0c5.2625427 0 10.30957 2.0424294 14.030762 5.6779776c3.7211914 3.6355476 5.811737 8.566408 5.811737 13.707849l0 0c0 10.706497 -8.883789 19.385828 -19.842499 19.385828l0 0c-10.95874 0 -19.84253 -8.679331 -19.84253 -19.385828z" fill-rule="evenodd"/><path stroke="#000000" stroke-width="1.0" stroke-linejoin="round" stroke-linecap="butt" d="m327.94357 20.545275l0 0c0 -10.706495 8.883789 -19.385826 19.84253 -19.385826l0 0c5.2625427 0 10.30957 2.0424294 14.030762 5.6779776c3.7211914 3.6355476 5.811737 8.566408 5.811737 13.707849l0 0c0 10.706497 -8.883789 19.385828 -19.842499 19.385828l0 0c-10.95874 0 -19.84253 -8.679331 -19.84253 -19.385828z" fill-rule="evenodd"/><path fill="#000000" fill-opacity="0.0" d="m247.93318 1.1607611l39.685043 0l0 38.771652l-39.685043 0z" fill-rule="evenodd"/><path fill="#000000" d="m268.17883 25.520761q-0.953125 0 -1.390625 -0.53125q-0.4375 -0.53125 -0.4375 -1.359375l0 -5.28125l-2.75 0l0 -1.078125l2.046875 0q0.421875 0 0.578125 -0.171875q0.171875 -0.171875 0.171875 -0.59375l0 -2.15625l1.234375 0l0 2.921875l3.765625 0l0 1.078125l-3.765625 0l0 6.078125l3.765625 0l0 1.09375l-3.21875 0z" fill-rule="nonzero"/><path fill="#000000" fill-opacity="0.0" d="m287.61823 20.546587l40.314972 0" fill-rule="evenodd"/><path stroke="#000000" stroke-width="2.0" stroke-linejoin="round" stroke-linecap="butt" d="m287.61823 20.546587l28.314972 0" fill-rule="evenodd"/><path fill="#000000" stroke="#000000" stroke-width="2.0" stroke-linecap="butt" d="m315.9332 23.850052l9.076202 -3.303465l-9.076202 -3.303465z" fill-rule="evenodd"/><path fill="#000000" fill-opacity="0.0" d="m367.6286 20.545275l47.40158 0" fill-rule="evenodd"/><path stroke="#000000" stroke-width="2.0" stroke-linejoin="round" stroke-linecap="butt" d="m367.6286 20.545275l35.40158 0" fill-rule="evenodd"/><path fill="#000000" stroke="#000000" stroke-width="2.0" stroke-linecap="butt" d="m403.03018 23.84874l9.076202 -3.303465l-9.076202 -3.303465z" fill-rule="evenodd"/><path fill="#000000" fill-opacity="0.0" d="m302.09036 240.3248l40.409424 -0.50393677" fill-rule="evenodd"/><path stroke="#000000" stroke-width="2.0" stroke-linejoin="round" stroke-linecap="butt" d="m302.09033 240.3248l28.4104 -0.35427856" fill-rule="evenodd"/><path fill="#000000" stroke="#000000" stroke-width="2.0" stroke-linecap="butt" d="m330.54193 243.27371l9.034302 -3.4163818l-9.116699 -3.190033z" fill-rule="evenodd"/><path fill="#000000" fill-opacity="0.0" d="m382.40945 239.80643l40.094482 0.40945435" fill-rule="evenodd"/><path stroke="#000000" stroke-width="2.0" stroke-linejoin="round" stroke-linecap="butt" d="m382.40945 239.80643l28.095093 0.286911" fill-rule="evenodd"/><path fill="#000000" stroke="#000000" stroke-width="2.0" stroke-linecap="butt" d="m410.47083 243.39664l9.109467 -3.210617l-9.041992 -3.3959656z" fill-rule="evenodd"/><path fill="#000000" fill-opacity="0.0" d="m342.00668 38.404854l39.685028 0l0 38.771652l-39.685028 0z" fill-rule="evenodd"/><path fill="#000000" d="m358.40857 62.764854l0 -1.171875l3.203125 0l0 -9.0l-0.109375 0l-2.828125 2.625l-0.78125 -0.859375l2.96875 -2.765625l2.09375 0l0 10.0l2.9375 0l0 1.171875l-7.484375 0z" fill-rule="nonzero"/><path fill="#000000" fill-opacity="0.0" d="m295.06116 134.16954l46.80313 -0.22047424" fill-rule="evenodd"/><path stroke="#000000" stroke-width="2.0" stroke-linejoin="round" stroke-linecap="butt" d="m295.06116 134.16954l34.803284 -0.16395569" fill-rule="evenodd"/><path fill="#000000" stroke="#000000" stroke-width="2.0" stroke-linecap="butt" d="m329.88 137.30902l9.060516 -3.3461761l-9.091644 -3.2606812z" fill-rule="evenodd"/><path fill="#000000" fill-opacity="0.0" d="m361.8492 77.176506l0 40.0" fill-rule="evenodd"/><path stroke="#000000" stroke-width="2.0" stroke-linejoin="round" stroke-linecap="butt" d="m361.8492 77.176506l0 28.0" fill-rule="evenodd"/><path fill="#000000" stroke="#000000" stroke-width="2.0" stroke-linecap="butt" d="m358.54575 105.176506l3.3034668 9.076195l3.3034668 -9.076195z" fill-rule="evenodd"/><path fill="#000000" fill-opacity="0.0" d="m361.6917 156.5702l0.7559204 63.370087" fill-rule="evenodd"/><path stroke="#000000" stroke-width="2.0" stroke-linejoin="round" stroke-linecap="butt" d="m361.6917 156.5702l0.61279297 51.37094" fill-rule="evenodd"/><path fill="#000000" stroke="#000000" stroke-width="2.0" stroke-linecap="butt" d="m359.00128 207.98055l3.4114685 9.036148l3.1949768 -9.11496z" fill-rule="evenodd"/><path fill="#000000" fill-opacity="0.0" d="m216.03412 79.56685l102.14172 0l0 38.771652l-102.14172 0z" fill-rule="evenodd"/><path fill="#000000" d="m249.34244 103.92685l0 -11.171875l4.0625 0q1.5625 0 2.375 0.859375q0.8125 0.84375 0.8125 2.359375q0 1.515625 -0.8125 2.375q-0.8125 0.84375 -2.375 0.84375l-2.71875 0l0 4.734375l-1.34375 0zm1.34375 -5.90625l2.6875 0q0.84375 0 1.3125 -0.421875q0.484375 -0.421875 0.484375 -1.203125l0 -0.84375q0 -0.78125 -0.484375 -1.203125q-0.46875 -0.421875 -1.3125 -0.421875l-2.6875 0l0 4.09375zm8.053162 4.8125l2.40625 0l0 -6.078125l-2.40625 0l0 -1.078125l3.6875 0l0 2.078125l0.09375 0q0.25 -0.984375 0.953125 -1.53125q0.71875 -0.546875 1.828125 -0.546875l1.140625 0l0 1.28125l-1.546875 0q-1.109375 0 -1.796875 0.640625q-0.671875 0.625 -0.671875 1.671875l0 3.5625l3.203125 0l0 1.09375l-6.890625 0l0 -1.09375zm13.162506 1.28125q-0.859375 0 -1.5625 -0.296875q-0.6875 -0.3125 -1.1875 -0.875q-0.484375 -0.5625 -0.734375 -1.359375q-0.25 -0.796875 -0.25 -1.78125q0 -0.984375 0.25 -1.78125q0.25 -0.796875 0.734375 -1.359375q0.5 -0.578125 1.1875 -0.875q0.703125 -0.3125 1.5625 -0.3125q0.859375 0 1.5625 0.3125q0.703125 0.296875 1.1875 0.875q0.484375 0.5625 0.734375 1.359375q0.265625 0.796875 0.265625 1.78125q0 0.984375 -0.265625 1.78125q-0.25 0.796875 -0.734375 1.359375q-0.484375 0.5625 -1.1875 0.875q-0.703125 0.296875 -1.5625 0.296875zm0 -1.09375q1.078125 0 1.734375 -0.640625q0.65625 -0.640625 0.65625 -1.984375l0 -1.1875q0 -1.34375 -0.65625 -1.984375q-0.65625 -0.640625 -1.734375 -0.640625q-1.0625 0 -1.71875 0.640625q-0.65625 0.640625 -0.65625 1.984375l0 1.1875q0 1.34375 0.65625 1.984375q0.65625 0.640625 1.71875 0.640625zm6.4281616 3.015625l4.0 0l0 -9.28125l-4.140625 0l0 -1.078125l5.421875 0l0 9.5625q0 0.828125 -0.4375 1.359375q-0.4375 0.53125 -1.375 0.53125l-3.46875 0l0 -1.09375zm4.640625 -12.1875q-0.546875 0 -0.78125 -0.234375q-0.21875 -0.234375 -0.21875 -0.578125l0 -0.265625q0 -0.34375 0.21875 -0.578125q0.234375 -0.234375 0.78125 -0.234375q0.5625 0 0.78125 0.234375q0.234375 0.234375 0.234375 0.578125l0 0.265625q0 0.34375 -0.234375 0.578125q-0.21875 0.234375 -0.78125 0.234375z" fill-rule="nonzero"/><path fill="#000000" fill-opacity="0.0" d="m234.67723 111.08312l66.39369 0l0 45.25985l-66.39369 0z" fill-rule="evenodd"/><path fill="#000000" d="m248.88635 130.44812q-0.59375 0 -1.0625 -0.203125q-0.46875 -0.203125 -0.796875 -0.578125q-0.3125 -0.375 -0.484375 -0.90625q-0.15625 -0.53125 -0.15625 -1.1875q0 -0.65625 0.171875 -1.1875q0.171875 -0.53125 0.484375 -0.90625q0.328125 -0.375 0.78125 -0.578125q0.46875 -0.203125 1.046875 -0.203125q0.796875 0 1.296875 0.359375q0.5 0.34375 0.734375 0.90625l-0.671875 0.359375q-0.15625 -0.421875 -0.5 -0.65625q-0.34375 -0.234375 -0.859375 -0.234375q-0.375 0 -0.671875 0.125q-0.28125 0.125 -0.484375 0.34375q-0.203125 0.21875 -0.3125 0.53125q-0.09375 0.3125 -0.09375 0.671875l0 0.9375q0 0.359375 0.09375 0.671875q0.109375 0.3125 0.3125 0.53125q0.203125 0.21875 0.5 0.34375q0.296875 0.125 0.6875 0.125q0.546875 0 0.90625 -0.25q0.359375 -0.265625 0.578125 -0.703125l0.609375 0.40625q-0.25 0.5625 -0.765625 0.921875q-0.515625 0.359375 -1.34375 0.359375zm3.862564 -0.84375l1.90625 0l0 -6.4375l-1.90625 0l0 -0.734375l2.765625 0l0 7.171875l1.9218597 0l0 0.71875l-4.6874847 0l0 -0.71875zm8.800064 0.84375q-0.875 0 -1.5 -0.28125q-0.609375 -0.296875 -1.046875 -0.796875l0.578125 -0.5q0.390625 0.421875 0.859375 0.640625q0.46875 0.21875 1.125 0.21875q0.640625 0 1.046875 -0.21875q0.40625 -0.234375 0.40625 -0.71875q0 -0.21875 -0.078125 -0.359375q-0.078125 -0.140625 -0.21875 -0.21875q-0.125 -0.09375 -0.296875 -0.140625q-0.171875 -0.046875 -0.375 -0.078125l-0.859375 -0.140625q-0.28125 -0.03125 -0.625 -0.109375q-0.328125 -0.078125 -0.609375 -0.234375q-0.28125 -0.171875 -0.46875 -0.4375q-0.1875 -0.28125 -0.1875 -0.734375q0 -0.421875 0.171875 -0.71875q0.171875 -0.3125 0.46875 -0.515625q0.296875 -0.203125 0.703125 -0.296875q0.40625 -0.109375 0.875 -0.109375q0.75 0 1.296875 0.234375q0.546875 0.234375 0.953125 0.65625l-0.5625 0.515625q-0.09375 -0.125 -0.234375 -0.234375q-0.140625 -0.125 -0.359375 -0.21875q-0.203125 -0.109375 -0.484375 -0.171875q-0.28125 -0.0625 -0.640625 -0.0625q-0.640625 0 -1.0 0.21875q-0.34375 0.21875 -0.34375 0.65625q0 0.203125 0.078125 0.359375q0.09375 0.140625 0.21875 0.21875q0.140625 0.078125 0.3125 0.140625q0.1875 0.046875 0.359375 0.078125l0.875 0.125q0.296875 0.046875 0.625 0.125q0.328125 0.0625 0.609375 0.234375q0.28125 0.15625 0.453125 0.4375q0.1875 0.28125 0.1875 0.71875q0 0.828125 -0.640625 1.28125q-0.625 0.4375 -1.671875 0.4375zm3.7687988 1.671875l0 -0.78125l5.109375 0l0 0.78125l-5.109375 0zm10.284454 -2.6875l-0.046875 0q-0.53125 1.015625 -1.6875 1.015625q-1.015625 0 -1.59375 -0.75q-0.5625 -0.765625 -0.5625 -2.125q0 -1.359375 0.5625 -2.109375q0.578125 -0.765625 1.59375 -0.765625q1.15625 0 1.6875 1.015625l0.046875 0l0 -3.28125l0.84375 0l0 7.890625l-0.84375 0l0 -0.890625zm-1.40625 0.265625q0.28125 0 0.53125 -0.078125q0.265625 -0.078125 0.453125 -0.21875q0.203125 -0.140625 0.3125 -0.34375q0.109375 -0.21875 0.109375 -0.5l0 -1.96875q0 -0.28125 -0.109375 -0.484375q-0.109375 -0.21875 -0.3125 -0.359375q-0.1875 -0.140625 -0.453125 -0.21875q-0.25 -0.078125 -0.53125 -0.078125q-0.75 0 -1.15625 0.453125q-0.40625 0.453125 -0.40625 1.203125l0 0.9375q0 0.75 0.40625 1.203125q0.40625 0.453125 1.15625 0.453125zm6.800049 -6.09375q-0.359375 0 -0.515625 -0.140625q-0.15625 -0.15625 -0.15625 -0.390625l0 -0.171875q0 -0.234375 0.15625 -0.390625q0.15625 -0.15625 0.515625 -0.15625q0.375 0 0.515625 0.15625q0.15625 0.15625 0.15625 0.390625l0 0.171875q0 0.234375 -0.15625 0.390625q-0.140625 0.140625 -0.515625 0.140625zm-2.40625 6.0l1.984375 0l0 -4.0625l-1.984375 0l0 -0.71875l2.84375 0l0 4.78125l1.84375 0l0 0.71875l-4.6875 0l0 -0.71875zm5.8469543 0.71875l0 -5.5l0.78125 0l0 0.640625l0.046875 0q0.125 -0.3125 0.359375 -0.53125q0.234375 -0.234375 0.703125 -0.234375q0.46875 0 0.703125 0.25q0.234375 0.234375 0.296875 0.609375l0.03125 0q0.140625 -0.375 0.421875 -0.609375q0.28125 -0.25 0.765625 -0.25q0.671875 0 0.890625 0.46875q0.234375 0.46875 0.234375 1.34375l0 3.8125l-0.78125 0l0 -3.671875q0 -0.703125 -0.15625 -0.96875q-0.140625 -0.28125 -0.515625 -0.28125q-0.34375 0 -0.5625 0.21875q-0.203125 0.21875 -0.203125 0.671875l0 4.03125l-0.796875 0l0 -3.671875q0 -0.703125 -0.140625 -0.96875q-0.140625 -0.28125 -0.515625 -0.28125q-0.34375 0 -0.5625 0.21875q-0.21875 0.21875 -0.21875 0.671875l0 4.03125l-0.78125 0z" fill-rule="nonzero"/><path fill="#000000" d="m261.48648 143.24812q-0.578125 0 -1.046875 -0.203125q-0.46875 -0.203125 -0.796875 -0.578125q-0.3125 -0.375 -0.484375 -0.90625q-0.171875 -0.53125 -0.171875 -1.1875q0 -0.65625 0.171875 -1.1875q0.171875 -0.53125 0.484375 -0.90625q0.328125 -0.375 0.796875 -0.578125q0.46875 -0.203125 1.046875 -0.203125q0.5625 0 1.03125 0.203125q0.46875 0.203125 0.78125 0.578125q0.328125 0.375 0.5 0.90625q0.171875 0.53125 0.171875 1.1875q0 0.65625 -0.171875 1.1875q-0.171875 0.53125 -0.5 0.90625q-0.3125 0.375 -0.78125 0.578125q-0.46875 0.203125 -1.03125 0.203125zm0 -0.734375q0.703125 0 1.140625 -0.421875q0.4375 -0.421875 0.4375 -1.328125l0 -0.78125q0 -0.890625 -0.4375 -1.3125q-0.4375 -0.4375 -1.140625 -0.4375q-0.71875 0 -1.15625 0.4375q-0.4375 0.421875 -0.4375 1.3125l0 0.78125q0 0.90625 0.4375 1.328125q0.4375 0.421875 1.15625 0.421875zm7.690674 -0.28125l-0.046875 0q-0.078125 0.203125 -0.21875 0.390625q-0.125 0.1875 -0.3125 0.328125q-0.1875 0.125 -0.4375 0.203125q-0.25 0.09375 -0.59375 0.09375q-0.859375 0 -1.390625 -0.546875q-0.515625 -0.546875 -0.515625 -1.546875l0 -3.53125l0.84375 0l0 3.375q0 0.765625 0.328125 1.140625q0.34375 0.359375 0.984375 0.359375q0.25 0 0.484375 -0.0625q0.25 -0.0625 0.4375 -0.1875q0.203125 -0.140625 0.3125 -0.328125q0.125 -0.203125 0.125 -0.484375l0 -3.8125l0.84375 0l0 5.5l-0.84375 0l0 -0.890625zm5.3625793 0.890625q-0.640625 0 -0.9375 -0.34375q-0.28125 -0.359375 -0.28125 -0.90625l0 -3.53125l-1.828125 0l0 -0.71875l1.359375 0q0.28125 0 0.390625 -0.109375q0.109375 -0.109375 0.109375 -0.390625l0 -1.4375l0.8125 0l0 1.9375l2.515625 0l0 0.71875l-2.515625 0l0 4.0625l2.515625 0l0 0.71875l-2.140625 0z" fill-rule="nonzero"/><path fill="#000000" fill-opacity="0.0" d="m409.30716 -2.0831316l66.39368 0l0 45.259842l-66.39368 0z" fill-rule="evenodd"/><path fill="#000000" d="m429.98822 17.156868q-0.640625 0 -0.9375 -0.34375q-0.28125 -0.359375 -0.28125 -0.90625l0 -3.53125l-1.828125 0l0 -0.71875l1.359375 0q0.28125 0 0.390625 -0.109375q0.109375 -0.109375 0.109375 -0.390625l0 -1.4375l0.8125 0l0 1.9375l2.515625 0l0 0.71875l-2.515625 0l0 4.0625l2.515625 0l0 0.71875l-2.140625 0zm3.5656738 1.796875l0 -0.78125l5.109375 0l0 0.78125l-5.109375 0zm10.284454 -2.6875l-0.046875 0q-0.53125 1.015625 -1.6875 1.015625q-1.015625 0 -1.59375 -0.75q-0.5625 -0.765625 -0.5625 -2.125q0 -1.359375 0.5625 -2.109375q0.578125 -0.765625 1.59375 -0.765625q1.15625 0 1.6875 1.015625l0.046875 0l0 -3.28125l0.84375 0l0 7.890625l-0.84375 0l0 -0.890625zm-1.40625 0.265625q0.28125 0 0.53125 -0.078125q0.265625 -0.078125 0.453125 -0.21875q0.203125 -0.140625 0.3125 -0.34375q0.109375 -0.21875 0.109375 -0.5l0 -1.96875q0 -0.28125 -0.109375 -0.484375q-0.109375 -0.21875 -0.3125 -0.359375q-0.1875 -0.140625 -0.453125 -0.21875q-0.25 -0.078125 -0.53125 -0.078125q-0.75 0 -1.15625 0.453125q-0.40625 0.453125 -0.40625 1.203125l0 0.9375q0 0.75 0.40625 1.203125q0.40625 0.453125 1.15625 0.453125zm6.800049 -6.09375q-0.359375 0 -0.515625 -0.140625q-0.15625 -0.15625 -0.15625 -0.390625l0 -0.171875q0 -0.234375 0.15625 -0.390625q0.15625 -0.15625 0.515625 -0.15625q0.375 0 0.515625 0.15625q0.15625 0.15625 0.15625 0.390625l0 0.171875q0 0.234375 -0.15625 0.390625q-0.140625 0.140625 -0.515625 0.140625zm-2.40625 6.0l1.984375 0l0 -4.0625l-1.984375 0l0 -0.71875l2.84375 0l0 4.78125l1.84375 0l0 0.71875l-4.6875 0l0 -0.71875zm5.8469543 0.71875l0 -5.5l0.78125 0l0 0.640625l0.046875 0q0.125 -0.3125 0.359375 -0.53125q0.234375 -0.234375 0.703125 -0.234375q0.46875 0 0.703125 0.25q0.234375 0.234375 0.296875 0.609375l0.03125 0q0.140625 -0.375 0.421875 -0.609375q0.28125 -0.25 0.765625 -0.25q0.671875 0 0.890625 0.46875q0.234375 0.46875 0.234375 1.34375l0 3.8125l-0.78125 0l0 -3.671875q0 -0.703125 -0.15625 -0.96875q-0.140625 -0.28125 -0.515625 -0.28125q-0.34375 0 -0.5625 0.21875q-0.203125 0.21875 -0.203125 0.671875l0 4.03125l-0.796875 0l0 -3.671875q0 -0.703125 -0.140625 -0.96875q-0.140625 -0.28125 -0.515625 -0.28125q-0.34375 0 -0.5625 0.21875q-0.21875 0.21875 -0.21875 0.671875l0 4.03125l-0.78125 0z" fill-rule="nonzero"/><path fill="#000000" d="m436.1164 30.08187q-0.578125 0 -1.046875 -0.203125q-0.46875 -0.203125 -0.796875 -0.578125q-0.3125 -0.375 -0.484375 -0.90625q-0.171875 -0.53125 -0.171875 -1.1875q0 -0.65625 0.171875 -1.1875q0.171875 -0.53125 0.484375 -0.90625q0.328125 -0.375 0.796875 -0.578125q0.46875 -0.203125 1.046875 -0.203125q0.5625 0 1.03125 0.203125q0.46875 0.203125 0.78125 0.578125q0.328125 0.375 0.5 0.90625q0.171875 0.53125 0.171875 1.1875q0 0.65625 -0.171875 1.1875q-0.171875 0.53125 -0.5 0.90625q-0.3125 0.375 -0.78125 0.578125q-0.46875 0.203125 -1.03125 0.203125zm0 -0.734375q0.703125 0 1.140625 -0.421875q0.4375 -0.421875 0.4375 -1.328125l0 -0.78125q0 -0.890625 -0.4375 -1.3125q-0.4375 -0.4375 -1.140625 -0.4375q-0.71875 0 -1.15625 0.4375q-0.4375 0.421875 -0.4375 1.3125l0 0.78125q0 0.90625 0.4375 1.328125q0.4375 0.421875 1.15625 0.421875zm7.6907043 -0.28125l-0.046875 0q-0.078125 0.203125 -0.21875 0.390625q-0.125 0.1875 -0.3125 0.328125q-0.1875 0.125 -0.4375 0.203125q-0.25 0.09375 -0.59375 0.09375q-0.859375 0 -1.390625 -0.546875q-0.515625 -0.546875 -0.515625 -1.546875l0 -3.53125l0.84375 0l0 3.375q0 0.765625 0.328125 1.140625q0.34375 0.359375 0.984375 0.359375q0.25 0 0.484375 -0.0625q0.25 -0.0625 0.4375 -0.1875q0.203125 -0.140625 0.3125 -0.328125q0.125 -0.203125 0.125 -0.484375l0 -3.8125l0.84375 0l0 5.5l-0.84375 0l0 -0.890625zm5.362549 0.890625q-0.640625 0 -0.9375 -0.34375q-0.28125 -0.359375 -0.28125 -0.90625l0 -3.53125l-1.828125 0l0 -0.71875l1.359375 0q0.28125 0 0.390625 -0.109375q0.109375 -0.109375 0.109375 -0.390625l0 -1.4375l0.8125 0l0 1.9375l2.515625 0l0 0.71875l-2.515625 0l0 4.0625l2.515625 0l0 0.71875l-2.140625 0z" fill-rule="nonzero"/><path fill="#000000" fill-opacity="0.0" d="m341.8492 111.31036l39.685028 0l0 45.259842l-39.685028 0z" fill-rule="evenodd"/><path fill="#000000" d="m360.887 139.46223l0 -4.453125l-4.265625 0l0 -1.453125l4.265625 0l0 -4.453125l1.609375 0l0 4.453125l4.265625 0l0 1.453125l-4.265625 0l0 4.453125l-1.609375 0z" fill-rule="nonzero"/><path fill="#000000" fill-opacity="0.0" d="m343.36276 217.17038l39.685028 0l0 45.259857l-39.685028 0z" fill-rule="evenodd"/><path fill="#000000" d="m363.21307 241.19727l-3.484375 3.46875l-1.046875 -1.046875l3.484375 -3.46875l-3.484375 -3.484375l1.046875 -1.046875l3.484375 3.484375l3.46875 -3.484375l1.046875 1.046875l-3.484375 3.484375l3.484375 3.46875l-1.046875 1.046875l-3.46875 -3.46875z" fill-rule="nonzero"/><path fill="#000000" fill-opacity="0.0" d="m422.90802 217.17126l39.68506 0l0 45.259827l-39.68506 0z" fill-rule="evenodd"/><path fill="#000000" d="m441.94583 245.32314l0 -4.453125l-4.265625 0l0 -1.453125l4.265625 0l0 -4.453125l1.609375 0l0 4.453125l4.265625 0l0 1.453125l-4.265625 0l0 4.453125l-1.609375 0z" fill-rule="nonzero"/><path fill="#000000" fill-opacity="0.0" d="m-9.830034 168.45595l102.14173 0l0 38.771652l-102.14173 0z" fill-rule="evenodd"/><path fill="#000000" d="m18.584528 192.81595l0 -1.078125l2.78125 0l0 -9.015625l-2.78125 0l0 -1.078125l6.90625 0l0 1.078125l-2.78125 0l0 9.015625l2.78125 0l0 1.078125l-6.90625 0zm9.818771 0l0 -8.25l1.28125 0l0 1.34375l0.0625 0q0.140625 -0.3125 0.328125 -0.59375q0.1875 -0.28125 0.46875 -0.484375q0.28125 -0.203125 0.65625 -0.328125q0.390625 -0.140625 0.9062481 -0.140625q1.296875 0 2.078125 0.828125q0.78125 0.828125 0.78125 2.328125l0 5.296875l-1.28125 0l0 -5.078125q0 -1.125 -0.5 -1.671875q-0.484375 -0.5625 -1.4531231 -0.5625q-0.375 0 -0.75 0.09375q-0.359375 0.09375 -0.65625 0.296875q-0.28125 0.1875 -0.46875 0.5q-0.171875 0.296875 -0.171875 0.6875l0 5.734375l-1.28125 0zm9.553144 -8.25l1.28125 0l0 1.34375l0.0625 0q0.796875 -1.546875 2.546875 -1.546875q1.515625 0 2.375 1.140625q0.859375 1.140625 0.859375 3.1875q0 2.046875 -0.859375 3.1875q-0.859375 1.125 -2.375 1.125q-1.75 0 -2.546875 -1.53125l-0.0625 0l0 4.546875l-1.28125 0l0 -11.453125zm3.390625 7.3125q1.125 0 1.734375 -0.671875q0.625 -0.6875 0.625 -1.8125l0 -1.40625q0 -1.125 -0.625 -1.796875q-0.609375 -0.6875 -1.734375 -0.6875q-0.421875 0 -0.8125 0.109375q-0.375 0.109375 -0.671875 0.328125q-0.28125 0.21875 -0.453125 0.53125q-0.171875 0.3125 -0.171875 0.734375l0 2.96875q0 0.421875 0.171875 0.734375q0.171875 0.3125 0.453125 0.53125q0.296875 0.203125 0.671875 0.328125q0.390625 0.109375 0.8125 0.109375zm11.443771 -0.40625l-0.0625 0q-0.125 0.296875 -0.328125 0.578125q-0.1875 0.28125 -0.46875 0.5q-0.28125 0.203125 -0.671875 0.328125q-0.375 0.125 -0.875 0.125q-1.296875 0 -2.09375 -0.8125q-0.78125 -0.828125 -0.78125 -2.328125l0 -5.296875l1.28125 0l0 5.0625q0 1.140625 0.5 1.703125q0.5 0.546875 1.453125 0.546875q0.390625 0 0.75 -0.09375q0.375 -0.109375 0.65625 -0.296875q0.296875 -0.1875 0.46875 -0.484375q0.171875 -0.296875 0.171875 -0.71875l0 -5.71875l1.28125 0l0 8.25l-1.28125 0l0 -1.34375zm8.05315 1.34375q-0.953125 0 -1.390625 -0.53125q-0.4375 -0.53125 -0.4375 -1.359375l0 -5.28125l-2.75 0l0 -1.078125l2.046875 0q0.421875 0 0.578125 -0.171875q0.171875 -0.171875 0.171875 -0.59375l0 -2.15625l1.234375 0l0 2.921875l3.7656288 0l0 1.078125l-3.7656288 0l0 6.078125l3.7656288 0l0 1.09375l-3.2187538 0z" fill-rule="nonzero"/><path fill="#000000" fill-opacity="0.0" d="m792.63806 168.45595l102.14172 0l0 38.771652l-102.14172 0z" fill-rule="evenodd"/><path fill="#000000" d="m819.70575 193.00345q-1.015625 0 -1.765625 -0.390625q-0.734375 -0.390625 -1.21875 -1.125q-0.46875 -0.734375 -0.703125 -1.796875q-0.21875 -1.078125 -0.21875 -2.453125q0 -1.359375 0.21875 -2.4375q0.234375 -1.09375 0.703125 -1.828125q0.484375 -0.734375 1.21875 -1.125q0.75 -0.390625 1.765625 -0.390625q1.03125 0 1.765625 0.390625q0.734375 0.390625 1.203125 1.125q0.484375 0.734375 0.703125 1.828125q0.234375 1.078125 0.234375 2.4375q0 1.375 -0.234375 2.453125q-0.21875 1.0625 -0.703125 1.796875q-0.46875 0.734375 -1.203125 1.125q-0.734375 0.390625 -1.765625 0.390625zm0 -1.15625q0.671875 0 1.140625 -0.265625q0.46875 -0.265625 0.765625 -0.75q0.3125 -0.484375 0.4375 -1.15625q0.140625 -0.6875 0.140625 -1.53125l0 -1.828125q0 -0.828125 -0.140625 -1.515625q-0.125 -0.6875 -0.4375 -1.15625q-0.296875 -0.484375 -0.765625 -0.75q-0.46875 -0.265625 -1.140625 -0.265625q-0.671875 0 -1.140625 0.265625q-0.453125 0.265625 -0.765625 0.75q-0.296875 0.46875 -0.4375 1.15625q-0.140625 0.6875 -0.140625 1.515625l0 1.828125q0 0.84375 0.140625 1.53125q0.140625 0.671875 0.4375 1.15625q0.3125 0.484375 0.765625 0.75q0.46875 0.265625 1.140625 0.265625zm11.553162 -0.375l-0.0625 0q-0.125 0.296875 -0.328125 0.578125q-0.1875 0.28125 -0.46875 0.5q-0.28125 0.203125 -0.671875 0.328125q-0.375 0.125 -0.875 0.125q-1.296875 0 -2.09375 -0.8125q-0.78125 -0.828125 -0.78125 -2.328125l0 -5.296875l1.28125 0l0 5.0625q0 1.140625 0.5 1.703125q0.5 0.546875 1.453125 0.546875q0.390625 0 0.75 -0.09375q0.375 -0.109375 0.65625 -0.296875q0.296875 -0.1875 0.46875 -0.484375q0.171875 -0.296875 0.171875 -0.71875l0 -5.71875l1.28125 0l0 8.25l-1.28125 0l0 -1.34375zm8.053101 1.34375q-0.953125 0 -1.390625 -0.53125q-0.4375 -0.53125 -0.4375 -1.359375l0 -5.28125l-2.75 0l0 -1.078125l2.046875 0q0.421875 0 0.578125 -0.171875q0.171875 -0.171875 0.171875 -0.59375l0 -2.15625l1.234375 0l0 2.921875l3.765625 0l0 1.078125l-3.765625 0l0 6.078125l3.765625 0l0 1.09375l-3.21875 0zm5.9125366 -8.25l1.28125 0l0 1.34375l0.0625 0q0.796875 -1.546875 2.546875 -1.546875q1.515625 0 2.375 1.140625q0.859375 1.140625 0.859375 3.1875q0 2.046875 -0.859375 3.1875q-0.859375 1.125 -2.375 1.125q-1.75 0 -2.546875 -1.53125l-0.0625 0l0 4.546875l-1.28125 0l0 -11.453125zm3.390625 7.3125q1.125 0 1.734375 -0.671875q0.625 -0.6875 0.625 -1.8125l0 -1.40625q0 -1.125 -0.625 -1.796875q-0.609375 -0.6875 -1.734375 -0.6875q-0.421875 0 -0.8125 0.109375q-0.375 0.109375 -0.671875 0.328125q-0.28125 0.21875 -0.453125 0.53125q-0.171875 0.3125 -0.171875 0.734375l0 2.96875q0 0.421875 0.171875 0.734375q0.171875 0.3125 0.453125 0.53125q0.296875 0.203125 0.671875 0.328125q0.390625 0.109375 0.8125 0.109375zm11.443787 -0.40625l-0.0625 0q-0.125 0.296875 -0.328125 0.578125q-0.1875 0.28125 -0.46875 0.5q-0.28125 0.203125 -0.671875 0.328125q-0.375 0.125 -0.875 0.125q-1.296875 0 -2.09375 -0.8125q-0.78125 -0.828125 -0.78125 -2.328125l0 -5.296875l1.28125 0l0 5.0625q0 1.140625 0.5 1.703125q0.5 0.546875 1.453125 0.546875q0.390625 0 0.75 -0.09375q0.375 -0.109375 0.65625 -0.296875q0.296875 -0.1875 0.46875 -0.484375q0.171875 -0.296875 0.171875 -0.71875l0 -5.71875l1.28125 0l0 8.25l-1.28125 0l0 -1.34375zm8.053101 1.34375q-0.953125 0 -1.390625 -0.53125q-0.4375 -0.53125 -0.4375 -1.359375l0 -5.28125l-2.75 0l0 -1.078125l2.046875 0q0.421875 0 0.578125 -0.171875q0.171875 -0.171875 0.171875 -0.59375l0 -2.15625l1.234375 0l0 2.921875l3.765625 0l0 1.078125l-3.765625 0l0 6.078125l3.765625 0l0 1.09375l-3.21875 0z" fill-rule="nonzero"/><path fill="#000000" fill-opacity="0.0" d="m731.3523 217.17116l39.684998 0l0 45.259842l-39.684998 0z" fill-rule="evenodd"/><path fill="#000000" d="m750.3901 245.32304l0 -4.453125l-4.265625 0l0 -1.453125l4.265625 0l0 -4.453125l1.609375 0l0 4.453125l4.265625 0l0 1.453125l-4.265625 0l0 4.453125l-1.609375 0z" fill-rule="nonzero"/><path fill="#000000" fill-opacity="0.0" d="m107.33177 216.85263l47.84253 0l0 45.259827l-47.84253 0z" fill-rule="evenodd"/><path fill="#000000" d="m127.73422 231.81139q0.78125 0 1.171875 -0.34375q0.390625 -0.34375 0.390625 -0.890625l0 -0.078125q0 -0.59375 -0.390625 -0.890625q-0.375 -0.296875 -0.984375 -0.296875q-0.59375 0 -0.96875 0.265625q-0.359375 0.25 -0.59375 0.671875l-0.671875 -0.5q0.140625 -0.234375 0.34375 -0.453125q0.203125 -0.21875 0.46875 -0.390625q0.28125 -0.171875 0.625 -0.265625q0.359375 -0.109375 0.828125 -0.109375q0.46875 0 0.890625 0.125q0.421875 0.109375 0.71875 0.359375q0.3125 0.234375 0.484375 0.59375q0.1875 0.34375 0.1875 0.796875q0 0.359375 -0.125 0.65625q-0.109375 0.28125 -0.3125 0.5q-0.1875 0.203125 -0.453125 0.359375q-0.265625 0.140625 -0.5625 0.21875l0 0.046875q0.3125 0.0625 0.59375 0.203125q0.296875 0.140625 0.515625 0.375q0.21875 0.234375 0.34375 0.5625q0.140625 0.3125 0.140625 0.734375q0 0.46875 -0.1875 0.875q-0.1875 0.40625 -0.53125 0.6875q-0.328125 0.28125 -0.796875 0.4375q-0.46875 0.15625 -1.046875 0.15625q-0.484375 0 -0.875 -0.109375q-0.375 -0.09375 -0.671875 -0.28125q-0.28125 -0.1875 -0.5 -0.40625q-0.21875 -0.21875 -0.390625 -0.46875l0.671875 -0.515625q0.140625 0.234375 0.296875 0.421875q0.171875 0.171875 0.375 0.3125q0.203125 0.125 0.46875 0.203125q0.265625 0.0625 0.625 0.0625q0.78125 0 1.203125 -0.359375q0.421875 -0.359375 0.421875 -1.03125l0 -0.078125q0 -0.671875 -0.40625 -1.03125q-0.40625 -0.359375 -1.234375 -0.359375l-0.875 0l0 -0.765625l0.8125 0zm9.237564 4.28125l-4.96875 0l0 -0.921875l2.484375 -2.234375q0.546875 -0.484375 0.890625 -1.0q0.359375 -0.515625 0.359375 -1.09375l0 -0.125q0 -0.671875 -0.359375 -1.03125q-0.34375 -0.375 -1.03125 -0.375q-0.6875 0 -1.0625 0.34375q-0.359375 0.34375 -0.546875 0.921875l-0.796875 -0.296875q0.109375 -0.34375 0.296875 -0.65625q0.1875 -0.3125 0.46875 -0.546875q0.296875 -0.25 0.703125 -0.390625q0.40625 -0.15625 0.953125 -0.15625q0.5625 0 0.984375 0.15625q0.4375 0.15625 0.71875 0.453125q0.296875 0.28125 0.453125 0.6875q0.15625 0.390625 0.15625 0.859375q0 0.421875 -0.125 0.796875q-0.125 0.375 -0.34375 0.71875q-0.21875 0.328125 -0.515625 0.65625q-0.296875 0.328125 -0.671875 0.640625l-2.078125 1.8125l4.03125 0l0 0.78125z" fill-rule="nonzero"/><path fill="#000000" d="m128.39047 242.17387q-0.359375 0 -0.515625 -0.140625q-0.15625 -0.15625 -0.15625 -0.390625l0 -0.171875q0 -0.234375 0.15625 -0.390625q0.15625 -0.15625 0.515625 -0.15625q0.375 0 0.515625 0.15625q0.15625 0.15625 0.15625 0.390625l0 0.171875q0 0.234375 -0.15625 0.390625q-0.140625 0.140625 -0.515625 0.140625zm-2.40625 6.0l1.984375 0l0 -4.0625l-1.984375 0l0 -0.71875l2.84375 0l0 4.78125l1.84375 0l0 0.71875l-4.6875 0l0 -0.71875zm6.315689 0.71875l0 -5.5l0.84375 0l0 0.890625l0.046875 0q0.09375 -0.203125 0.21875 -0.375q0.125 -0.1875 0.3125 -0.328125q0.1875 -0.140625 0.4375 -0.21875q0.265625 -0.09375 0.59375 -0.09375q0.875 0 1.390625 0.546875q0.515625 0.546875 0.515625 1.546875l0 3.53125l-0.84375 0l0 -3.375q0 -0.765625 -0.328125 -1.125q-0.328125 -0.375 -0.96875 -0.375q-0.265625 0 -0.515625 0.078125q-0.234375 0.0625 -0.4375 0.1875q-0.1875 0.125 -0.3125 0.328125q-0.109375 0.203125 -0.109375 0.46875l0 3.8125l-0.84375 0z" fill-rule="nonzero"/><path fill="#000000" fill-opacity="0.0" d="m496.48795 216.59361l47.8425 0l0 45.259842l-47.8425 0z" fill-rule="evenodd"/><path fill="#000000" d="m516.8904 231.55235q0.78125 0 1.171875 -0.34375q0.390625 -0.34375 0.390625 -0.890625l0 -0.078125q0 -0.59375 -0.390625 -0.890625q-0.375 -0.296875 -0.984375 -0.296875q-0.59375 0 -0.96875 0.265625q-0.359375 0.25 -0.59375 0.671875l-0.671875 -0.5q0.140625 -0.234375 0.34375 -0.453125q0.203125 -0.21875 0.46875 -0.390625q0.28125 -0.171875 0.625 -0.265625q0.359375 -0.109375 0.828125 -0.109375q0.46875 0 0.890625 0.125q0.421875 0.109375 0.71875 0.359375q0.3125 0.234375 0.484375 0.59375q0.1875 0.34375 0.1875 0.796875q0 0.359375 -0.125 0.65625q-0.109375 0.28125 -0.3125 0.5q-0.1875 0.203125 -0.453125 0.359375q-0.265625 0.140625 -0.5625 0.21875l0 0.046875q0.3125 0.0625 0.59375 0.203125q0.296875 0.140625 0.515625 0.375q0.21875 0.234375 0.34375 0.5625q0.140625 0.3125 0.140625 0.734375q0 0.46875 -0.1875 0.875q-0.1875 0.40625 -0.53125 0.6875q-0.328125 0.28125 -0.796875 0.4375q-0.46875 0.15625 -1.046875 0.15625q-0.484375 0 -0.875 -0.109375q-0.375 -0.09375 -0.671875 -0.28125q-0.28125 -0.1875 -0.5 -0.40625q-0.21875 -0.21875 -0.390625 -0.46875l0.671875 -0.515625q0.140625 0.234375 0.296875 0.421875q0.171875 0.171875 0.375 0.3125q0.203125 0.125 0.46875 0.203125q0.265625 0.0625 0.625 0.0625q0.78125 0 1.203125 -0.359375q0.421875 -0.359375 0.421875 -1.03125l0 -0.078125q0 -0.671875 -0.40625 -1.03125q-0.40625 -0.359375 -1.234375 -0.359375l-0.875 0l0 -0.765625l0.8125 0zm9.237549 4.28125l-4.96875 0l0 -0.921875l2.484375 -2.234375q0.546875 -0.484375 0.890625 -1.0q0.359375 -0.515625 0.359375 -1.09375l0 -0.125q0 -0.671875 -0.359375 -1.03125q-0.34375 -0.375 -1.03125 -0.375q-0.6875 0 -1.0625 0.34375q-0.359375 0.34375 -0.546875 0.921875l-0.796875 -0.296875q0.109375 -0.34375 0.296875 -0.65625q0.1875 -0.3125 0.46875 -0.546875q0.296875 -0.25 0.703125 -0.390625q0.40625 -0.15625 0.953125 -0.15625q0.5625 0 0.984375 0.15625q0.4375 0.15625 0.71875 0.453125q0.296875 0.28125 0.453125 0.6875q0.15625 0.390625 0.15625 0.859375q0 0.421875 -0.125 0.796875q-0.125 0.375 -0.34375 0.71875q-0.21875 0.328125 -0.515625 0.65625q-0.296875 0.328125 -0.671875 0.640625l-2.078125 1.8125l4.03125 0l0 0.78125z" fill-rule="nonzero"/><path fill="#000000" d="m514.0216 248.7586q-0.578125 0 -1.046875 -0.203125q-0.46875 -0.203125 -0.796875 -0.578125q-0.3125 -0.375 -0.484375 -0.90625q-0.171875 -0.53125 -0.171875 -1.1875q0 -0.65625 0.171875 -1.1875q0.171875 -0.53125 0.484375 -0.90625q0.328125 -0.375 0.796875 -0.578125q0.46875 -0.203125 1.046875 -0.203125q0.5625 0 1.03125 0.203125q0.46875 0.203125 0.78125 0.578125q0.328125 0.375 0.5 0.90625q0.171875 0.53125 0.171875 1.1875q0 0.65625 -0.171875 1.1875q-0.171875 0.53125 -0.5 0.90625q-0.3125 0.375 -0.78125 0.578125q-0.46875 0.203125 -1.03125 0.203125zm0 -0.734375q0.703125 0 1.140625 -0.421875q0.4375 -0.421875 0.4375 -1.328125l0 -0.78125q0 -0.890625 -0.4375 -1.3125q-0.4375 -0.4375 -1.140625 -0.4375q-0.71875 0 -1.15625 0.4375q-0.4375 0.421875 -0.4375 1.3125l0 0.78125q0 0.90625 0.4375 1.328125q0.4375 0.421875 1.15625 0.421875zm7.690674 -0.28125l-0.046875 0q-0.078125 0.203125 -0.21875 0.390625q-0.125 0.1875 -0.3125 0.328125q-0.1875 0.125 -0.4375 0.203125q-0.25 0.09375 -0.59375 0.09375q-0.859375 0 -1.390625 -0.546875q-0.515625 -0.546875 -0.515625 -1.546875l0 -3.53125l0.84375 0l0 3.375q0 0.765625 0.328125 1.140625q0.34375 0.359375 0.984375 0.359375q0.25 0 0.484375 -0.0625q0.25 -0.0625 0.4375 -0.1875q0.203125 -0.140625 0.3125 -0.328125q0.125 -0.203125 0.125 -0.484375l0 -3.8125l0.84375 0l0 5.5l-0.84375 0l0 -0.890625zm5.36261 0.890625q-0.640625 0 -0.9375 -0.34375q-0.28125 -0.359375 -0.28125 -0.90625l0 -3.53125l-1.828125 0l0 -0.71875l1.359375 0q0.28125 0 0.390625 -0.109375q0.109375 -0.109375 0.109375 -0.390625l0 -1.4375l0.8125 0l0 1.9375l2.515625 0l0 0.71875l-2.515625 0l0 4.0625l2.515625 0l0 0.71875l-2.140625 0z" fill-rule="nonzero"/></g></svg>