<svg version="1.1" viewBox="0.0 0.0 801.9212598425197 283.1443569553806" fill="none" stroke="none" stroke-linecap="square" stroke-miterlimit="10" xmlns:xlink="http://www.w3.org/1999/xlink" xmlns="http://www.w3.org/2000/svg"><clipPath id="p.0"><path d="m0 0l801.92126 0l0 283.14435l-801.92126 0l0 -283.14435z" clip-rule="nonzero"/></clipPath><g clip-path="url(#p.0)"><path fill="#000000" fill-opacity="0.0" d="m0 0l801.92126 0l0 283.14435l-801.92126 0z" fill-rule="evenodd"/><path fill="#fff2cc" d="m113.69621 211.994l33.51181 0l0 66.39369l-33.51181 0z" fill-rule="evenodd"/><path stroke="#000000" stroke-width="1.0" stroke-linejoin="round" stroke-linecap="butt" d="m113.69621 211.994l33.51181 0l0 66.39369l-33.51181 0z" fill-rule="evenodd"/><path fill="#000000" fill-opacity="0.0" d="m29.759205 141.12785l0 104.063l83.93701 0" fill-rule="evenodd"/><path stroke="#000000" stroke-width="2.0" stroke-linejoin="round" stroke-linecap="butt" d="m29.759205 141.12785l0 104.06299l71.93701 0" fill-rule="evenodd"/><path fill="#000000" stroke="#000000" stroke-width="2.0" stroke-linecap="butt" d="m101.69621 248.49431l9.076195 -3.3034668l-9.076195 -3.3034668z" fill-rule="evenodd"/><path fill="#cfe2f3" d="m113.69621 105.70266l33.51181 0l0 66.3937l-33.51181 0z" fill-rule="evenodd"/><path stroke="#000000" stroke-width="1.0" stroke-linejoin="round" stroke-linecap="butt" d="m113.69621 105.70266l33.51181 0l0 66.3937l-33.51181 0z" fill-rule="evenodd"/><path fill="#000000" fill-opacity="0.0" d="m79.38256 67.12786l102.14173 0l0 38.771652l-102.14173 0z" fill-rule="evenodd"/><path fill="#000000" d="m108.76274 90.00349l-0.078125 0q-0.15625 0.3125 -0.34375 0.625q-0.1875 0.296875 -0.484375 0.53125q-0.296875 0.234375 -0.71875 0.375q-0.40625 0.140625 -0.984375 0.140625q-1.828125 0 -2.71875 -1.46875q-0.890625 -1.46875 -0.890625 -4.21875q0 -2.890625 0.96875 -4.375q0.984375 -1.484375 3.015625 -1.484375q0.78125 0 1.359375 0.21875q0.578125 0.203125 0.984375 0.5625q0.40625 0.34375 0.671875 0.78125q0.28125 0.4375 0.46875 0.890625l-1.15625 0.515625q-0.140625 -0.359375 -0.328125 -0.6875q-0.1875 -0.328125 -0.453125 -0.578125q-0.265625 -0.25 -0.640625 -0.390625q-0.359375 -0.140625 -0.859375 -0.140625q-1.34375 0 -1.984375 1.015625q-0.625 1.0 -0.625 2.671875l0 1.734375q0 0.84375 0.125 1.546875q0.140625 0.6875 0.4375 1.203125q0.296875 0.515625 0.765625 0.796875q0.46875 0.28125 1.15625 0.28125q1.09375 0 1.703125 -0.65625q0.609375 -0.65625 0.609375 -1.703125l0 -1.15625l-2.359375 0l0 -1.0625l3.609375 0l0 5.515625l-1.25 0l0 -1.484375zm4.9750214 -2.703125l0 -1.34375l4.640625 0l0 1.34375l-4.640625 0zm9.725021 -5.21875l-0.109375 0l0 9.40625l-1.21875 0l0 -11.171875l1.90625 0l3.796875 9.40625l0.125 0l0 -9.40625l1.203125 0l0 11.171875l-1.890625 0l-3.8125 -9.40625zm11.787521 9.59375q-0.859375 0 -1.5625 -0.296875q-0.6875 -0.3125 -1.1875 -0.875q-0.484375 -0.5625 -0.734375 -1.359375q-0.25 -0.796875 -0.25 -1.78125q0 -0.984375 0.25 -1.78125q0.25 -0.796875 0.734375 -1.359375q0.5 -0.578125 1.1875 -0.875q0.703125 -0.3125 1.5625 -0.3125q0.859375 0 1.5625 0.3125q0.703125 0.296875 1.1875 0.875q0.484375 0.5625 0.734375 1.359375q0.265625 0.796875 0.265625 1.78125q0 0.984375 -0.265625 1.78125q-0.25 0.796875 -0.734375 1.359375q-0.484375 0.5625 -1.1875 0.875q-0.703125 0.296875 -1.5625 0.296875zm0 -1.09375q1.078125 0 1.734375 -0.640625q0.65625 -0.640625 0.65625 -1.984375l0 -1.1875q0 -1.34375 -0.65625 -1.984375q-0.65625 -0.640625 -1.734375 -0.640625q-1.0625 0 -1.71875 0.640625q-0.65625 0.640625 -0.65625 1.984375l0 1.1875q0 1.34375 0.65625 1.984375q0.65625 0.640625 1.71875 0.640625zm6.0375214 -0.1875l2.40625 0l0 -6.078125l-2.40625 0l0 -1.078125l3.6875 0l0 2.078125l0.09375 0q0.25 -0.984375 0.953125 -1.53125q0.71875 -0.546875 1.828125 -0.546875l1.140625 0l0 1.28125l-1.546875 0q-1.109375 0 -1.796875 0.640625q-0.671875 0.625 -0.671875 1.671875l0 3.5625l3.203125 0l0 1.09375l-6.890625 0l0 -1.09375zm9.225021 1.09375l0 -8.25l1.1875 0l0 0.953125l0.0625 0q0.1875 -0.484375 0.546875 -0.8125q0.359375 -0.34375 1.046875 -0.34375q0.71875 0 1.0625 0.359375q0.359375 0.359375 0.4375 0.9375l0.046875 0q0.21875 -0.5625 0.625 -0.921875q0.421875 -0.375 1.171875 -0.375q1.0 0 1.34375 0.703125q0.34375 0.703125 0.34375 2.015625l0 5.734375l-1.1875 0l0 -5.515625q0 -1.0625 -0.21875 -1.46875q-0.203125 -0.40625 -0.78125 -0.40625q-0.515625 0 -0.84375 0.328125q-0.3125 0.328125 -0.3125 1.0l0 6.0625l-1.1875 0l0 -5.515625q0 -1.0625 -0.21875 -1.46875q-0.203125 -0.40625 -0.765625 -0.40625q-0.515625 0 -0.84375 0.328125q-0.328125 0.328125 -0.328125 1.0l0 6.0625l-1.1875 0z" fill-rule="nonzero"/><path fill="#fff2cc" d="m267.67764 105.799774l33.51181 0l0 66.39371l-33.51181 0z" fill-rule="evenodd"/><path stroke="#000000" stroke-width="1.0" stroke-linejoin="round" stroke-linecap="butt" d="m267.67764 105.799774l33.51181 0l0 66.39371l-33.51181 0z" fill-rule="evenodd"/><path fill="#000000" fill-opacity="0.0" d="m234.0359 67.12786l102.14174 0l0 38.771652l-102.14174 0z" fill-rule="evenodd"/><path fill="#000000" d="m271.0786 91.67536q-2.046875 0 -3.046875 -1.484375q-1.0 -1.484375 -1.0 -4.28125q0 -2.8125 1.0 -4.296875q1.0 -1.484375 3.046875 -1.484375q0.765625 0 1.328125 0.21875q0.5625 0.203125 0.953125 0.5625q0.40625 0.34375 0.671875 0.78125q0.28125 0.4375 0.484375 0.890625l-1.15625 0.515625q-0.140625 -0.359375 -0.34375 -0.6875q-0.1875 -0.328125 -0.453125 -0.578125q-0.25 -0.25 -0.609375 -0.390625q-0.359375 -0.140625 -0.875 -0.140625q-1.328125 0 -1.984375 1.015625q-0.640625 1.0 -0.640625 2.671875l0 1.828125q0 1.6875 0.640625 2.703125q0.65625 1.0 1.984375 1.0q0.515625 0 0.875 -0.140625q0.359375 -0.15625 0.609375 -0.40625q0.265625 -0.25 0.453125 -0.578125q0.203125 -0.328125 0.34375 -0.6875l1.15625 0.53125q-0.203125 0.453125 -0.484375 0.890625q-0.265625 0.4375 -0.671875 0.796875q-0.390625 0.34375 -0.953125 0.546875q-0.5625 0.203125 -1.328125 0.203125zm9.225006 0q-0.859375 0 -1.5625 -0.296875q-0.6875 -0.3125 -1.1875 -0.875q-0.484375 -0.5625 -0.734375 -1.359375q-0.25 -0.796875 -0.25 -1.78125q0 -0.984375 0.25 -1.78125q0.25 -0.796875 0.734375 -1.359375q0.5 -0.578125 1.1875 -0.875q0.703125 -0.3125 1.5625 -0.3125q0.859375 0 1.5625 0.3125q0.703125 0.296875 1.1875 0.875q0.484375 0.5625 0.734375 1.359375q0.265625 0.796875 0.265625 1.78125q0 0.984375 -0.265625 1.78125q-0.25 0.796875 -0.734375 1.359375q-0.484375 0.5625 -1.1875 0.875q-0.703125 0.296875 -1.5625 0.296875zm0 -1.09375q1.078125 0 1.734375 -0.640625q0.65625 -0.640625 0.65625 -1.984375l0 -1.1875q0 -1.34375 -0.65625 -1.984375q-0.65625 -0.640625 -1.734375 -0.640625q-1.0625 0 -1.71875 0.640625q-0.65625 0.640625 -0.65625 1.984375l0 1.1875q0 1.34375 0.65625 1.984375q0.65625 0.640625 1.71875 0.640625zm6.3656616 0.90625l0 -8.25l1.28125 0l0 1.34375l0.0625 0q0.140625 -0.3125 0.328125 -0.59375q0.1875 -0.28125 0.46875 -0.484375q0.28125 -0.203125 0.65625 -0.328125q0.390625 -0.140625 0.90625 -0.140625q1.296875 0 2.078125 0.828125q0.78125 0.828125 0.78125 2.328125l0 5.296875l-1.28125 0l0 -5.078125q0 -1.125 -0.5 -1.671875q-0.484375 -0.5625 -1.453125 -0.5625q-0.375 0 -0.75 0.09375q-0.359375 0.09375 -0.65625 0.296875q-0.28125 0.1875 -0.46875 0.5q-0.171875 0.296875 -0.171875 0.6875l0 5.734375l-1.28125 0zm12.021881 0l-2.953125 -8.25l1.28125 0l1.1875 3.453125l1.28125 3.71875l0.0625 0l1.28125 -3.71875l1.1875 -3.453125l1.265625 0l-2.96875 8.25l-1.625 0z" fill-rule="nonzero"/><path fill="#000000" fill-opacity="0.0" d="m73.50723 138.8995l40.18898 0" fill-rule="evenodd"/><path stroke="#000000" stroke-width="2.0" stroke-linejoin="round" stroke-linecap="butt" d="m73.50723 138.89952l28.18898 0" fill-rule="evenodd"/><path fill="#000000" stroke="#000000" stroke-width="2.0" stroke-linecap="butt" d="m101.69621 142.20297l9.076195 -3.3034515l-9.076195 -3.3034668z" fill-rule="evenodd"/><path fill="#f3f3f3" d="m187.20934 138.99794l0 0c0 -10.706497 8.883804 -19.385834 19.842514 -19.385834l0 0c5.2625732 0 10.309586 2.0424347 14.030792 5.6779785c3.7211914 3.6355438 5.811737 8.566406 5.811737 13.707855l0 0c0 10.706497 -8.883804 19.385818 -19.84253 19.385818l0 0c-10.95871 0 -19.842514 -8.679321 -19.842514 -19.385818z" fill-rule="evenodd"/><path stroke="#000000" stroke-width="1.0" stroke-linejoin="round" stroke-linecap="butt" d="m187.20934 138.99794l0 0c0 -10.706497 8.883804 -19.385834 19.842514 -19.385834l0 0c5.2625732 0 10.309586 2.0424347 14.030792 5.6779785c3.7211914 3.6355438 5.811737 8.566406 5.811737 13.707855l0 0c0 10.706497 -8.883804 19.385818 -19.84253 19.385818l0 0c-10.95871 0 -19.842514 -8.679321 -19.842514 -19.385818z" fill-rule="evenodd"/><path fill="#000000" fill-opacity="0.0" d="m156.6096 81.53468l102.14174 0l0 38.771652l-102.14174 0z" fill-rule="evenodd"/><path fill="#000000" d="m193.24605 106.082184q-1.5 0 -2.46875 -0.546875q-0.953125 -0.546875 -1.578125 -1.421875l0.984375 -0.796875q0.65625 0.8125 1.375 1.21875q0.734375 0.40625 1.734375 0.40625q1.21875 0 1.859375 -0.5625q0.640625 -0.5625 0.640625 -1.578125q0 -0.8125 -0.46875 -1.265625q-0.453125 -0.453125 -1.609375 -0.65625l-1.25 -0.203125q-0.8125 -0.140625 -1.375 -0.421875q-0.546875 -0.296875 -0.890625 -0.703125q-0.328125 -0.40625 -0.46875 -0.890625q-0.140625 -0.5 -0.140625 -1.015625q0 -1.546875 1.0 -2.328125q1.015625 -0.78125 2.71875 -0.78125q1.34375 0 2.265625 0.453125q0.921875 0.4375 1.484375 1.265625l-0.953125 0.8125q-0.453125 -0.609375 -1.109375 -0.984375q-0.65625 -0.390625 -1.703125 -0.390625q-1.125 0 -1.734375 0.484375q-0.609375 0.46875 -0.609375 1.4375q0 0.75 0.453125 1.21875q0.453125 0.46875 1.640625 0.671875l1.203125 0.21875q0.8125 0.140625 1.375 0.4375q0.5625 0.28125 0.90625 0.6875q0.34375 0.390625 0.484375 0.890625q0.140625 0.5 0.140625 1.03125q0 1.5625 -1.015625 2.4375q-1.015625 0.875 -2.890625 0.875zm10.146896 -10.265625q-0.5625 0 -0.796875 -0.234375q-0.21875 -0.234375 -0.21875 -0.578125l0 -0.265625q0 -0.34375 0.21875 -0.578125q0.234375 -0.234375 0.796875 -0.234375q0.5625 0 0.78125 0.234375q0.21875 0.234375 0.21875 0.578125l0 0.265625q0 0.34375 -0.21875 0.578125q-0.21875 0.234375 -0.78125 0.234375zm-3.609375 8.984375l2.96875 0l0 -6.078125l-2.96875 0l0 -1.078125l4.25 0l0 7.15625l2.78125 0l0 1.09375l-7.03125 0l0 -1.09375zm9.178146 0l2.875 0l0 -9.65625l-2.875 0l0 -1.09375l4.15625 0l0 10.75l2.875 0l0 1.09375l-7.03125 0l0 -1.09375zm15.068771 -0.25l-0.0625 0q-0.125 0.296875 -0.328125 0.578125q-0.1875 0.28125 -0.46875 0.5q-0.28125 0.203125 -0.671875 0.328125q-0.375 0.125 -0.875 0.125q-1.296875 0 -2.09375 -0.8125q-0.78125 -0.828125 -0.78125 -2.328125l0 -5.296875l1.28125 0l0 5.0625q0 1.140625 0.5 1.703125q0.5 0.546875 1.453125 0.546875q0.390625 0 0.75 -0.09375q0.375 -0.109375 0.65625 -0.296875q0.296875 -0.1875 0.46875 -0.484375q0.171875 -0.296875 0.171875 -0.71875l0 -5.71875l1.28125 0l0 8.25l-1.28125 0l0 -1.34375z" fill-rule="nonzero"/><path fill="#000000" fill-opacity="0.0" d="m147.20802 138.8995l40.0 0.09449768" fill-rule="evenodd"/><path stroke="#000000" stroke-width="2.0" stroke-linejoin="round" stroke-linecap="butt" d="m147.20802 138.89952l28.000046 0.06613159" fill-rule="evenodd"/><path fill="#000000" stroke="#000000" stroke-width="2.0" stroke-linecap="butt" d="m175.20026 142.2691l9.083969 -3.282013l-9.068359 -3.3248901z" fill-rule="evenodd"/><path fill="#000000" fill-opacity="0.0" d="m226.89438 138.99794l40.787384 0" fill-rule="evenodd"/><path stroke="#000000" stroke-width="2.0" stroke-linejoin="round" stroke-linecap="butt" d="m226.89438 138.99794l28.7874 0" fill-rule="evenodd"/><path fill="#000000" stroke="#000000" stroke-width="2.0" stroke-linecap="butt" d="m255.68178 142.3014l9.076187 -3.3034668l-9.076187 -3.3034668z" fill-rule="evenodd"/><path fill="#cfe2f3" d="m421.55072 105.4192l33.51181 0l0 66.3937l-33.51181 0z" fill-rule="evenodd"/><path stroke="#000000" stroke-width="1.0" stroke-linejoin="round" stroke-linecap="butt" d="m421.55072 105.4192l33.51181 0l0 66.3937l-33.51181 0z" fill-rule="evenodd"/><path fill="#fff2cc" d="m575.01624 105.4192l33.51178 0l0 66.3937l-33.51178 0z" fill-rule="evenodd"/><path stroke="#000000" stroke-width="1.0" stroke-linejoin="round" stroke-linecap="butt" d="m575.01624 105.4192l33.51178 0l0 66.3937l-33.51178 0z" fill-rule="evenodd"/><path fill="#f3f3f3" d="m494.95343 138.8995l0 0c0 -10.706497 8.883789 -19.385818 19.84253 -19.385818l0 0c5.2625732 0 10.30957 2.042427 14.030762 5.677971c3.7211914 3.6355515 5.8117676 8.566414 5.8117676 13.707848l0 0c0 10.706497 -8.883789 19.385834 -19.84253 19.385834l0 0c-10.95874 0 -19.84253 -8.679337 -19.84253 -19.385834z" fill-rule="evenodd"/><path stroke="#000000" stroke-width="1.0" stroke-linejoin="round" stroke-linecap="butt" d="m494.95343 138.8995l0 0c0 -10.706497 8.883789 -19.385818 19.84253 -19.385818l0 0c5.2625732 0 10.30957 2.042427 14.030762 5.677971c3.7211914 3.6355515 5.8117676 8.566414 5.8117676 13.707848l0 0c0 10.706497 -8.883789 19.385834 -19.84253 19.385834l0 0c-10.95874 0 -19.84253 -8.679337 -19.84253 -19.385834z" fill-rule="evenodd"/><path fill="#000000" fill-opacity="0.0" d="m455.06253 138.61604l39.905518 0.28346252" fill-rule="evenodd"/><path stroke="#000000" stroke-width="2.0" stroke-linejoin="round" stroke-linecap="butt" d="m455.06253 138.61604l27.905823 0.19822693" fill-rule="evenodd"/><path fill="#000000" stroke="#000000" stroke-width="2.0" stroke-linecap="butt" d="m482.9449 142.11766l9.099426 -3.238922l-9.05249 -3.3678436z" fill-rule="evenodd"/><path fill="#000000" fill-opacity="0.0" d="m534.6385 138.8995l40.37793 -0.28346252" fill-rule="evenodd"/><path stroke="#000000" stroke-width="2.0" stroke-linejoin="round" stroke-linecap="butt" d="m534.6384 138.89952l28.378235 -0.19921875" fill-rule="evenodd"/><path fill="#000000" stroke="#000000" stroke-width="2.0" stroke-linecap="butt" d="m563.0399 142.00368l9.052734 -3.367096l-9.099121 -3.2396698z" fill-rule="evenodd"/><path fill="#000000" fill-opacity="0.0" d="m360.09775 55.37589l0.09448242 61.007877" fill-rule="evenodd"/><path stroke="#000000" stroke-width="2.0" stroke-linejoin="round" stroke-linecap="butt" d="m360.09772 55.375885l0.075927734 49.00789" fill-rule="evenodd"/><path fill="#000000" stroke="#000000" stroke-width="2.0" stroke-linecap="butt" d="m356.87018 104.3889l3.317505 9.071068l3.2893982 -9.081306z" fill-rule="evenodd"/><path fill="#000000" fill-opacity="0.0" d="m260.7202 103.21388l47.84253 0l0 84.031494l-47.84253 0z" fill-rule="evenodd"/><path fill="#000000" d="m281.77893 115.73514q-0.359375 0 -0.515625 -0.140625q-0.15625 -0.15625 -0.15625 -0.390625l0 -0.171875q0 -0.234375 0.15625 -0.390625q0.15625 -0.15625 0.515625 -0.15625q0.375 0 0.515625 0.15625q0.15625 0.15625 0.15625 0.390625l0 0.171875q0 0.234375 -0.15625 0.390625q-0.140625 0.140625 -0.515625 0.140625zm-2.40625 6.0l1.984375 0l0 -4.0625l-1.984375 0l0 -0.71875l2.84375 0l0 4.78125l1.84375 0l0 0.71875l-4.6875 0l0 -0.71875zm6.315674 0.71875l0 -5.5l0.84375 0l0 0.890625l0.046875 0q0.09375 -0.203125 0.21875 -0.375q0.125 -0.1875 0.3125 -0.328125q0.1875 -0.140625 0.4375 -0.21875q0.265625 -0.09375 0.59375 -0.09375q0.875 0 1.390625 0.546875q0.515625 0.546875 0.515625 1.546875l0 3.53125l-0.84375 0l0 -3.375q0 -0.765625 -0.328125 -1.125q-0.328125 -0.375 -0.96875 -0.375q-0.265625 0 -0.515625 0.078125q-0.234375 0.0625 -0.4375 0.1875q-0.1875 0.125 -0.3125 0.328125q-0.109375 0.203125 -0.109375 0.46875l0 3.8125l-0.84375 0z" fill-rule="nonzero"/><path fill="#000000" d="m278.2539 135.37889q-0.578125 0 -1.046875 -0.203125q-0.46875 -0.203125 -0.7969055 -0.578125q-0.3125 -0.375 -0.484375 -0.90625q-0.171875 -0.53125 -0.171875 -1.1875q0 -0.65625 0.171875 -1.1875q0.171875 -0.53125 0.484375 -0.90625q0.32815552 -0.375 0.7969055 -0.578125q0.46875 -0.203125 1.046875 -0.203125q0.5625 0 1.03125 0.203125q0.46875 0.203125 0.78125 0.578125q0.328125 0.375 0.5 0.90625q0.171875 0.53125 0.171875 1.1875q0 0.65625 -0.171875 1.1875q-0.171875 0.53125 -0.5 0.90625q-0.3125 0.375 -0.78125 0.578125q-0.46875 0.203125 -1.03125 0.203125zm0 -0.734375q0.703125 0 1.140625 -0.421875q0.4375 -0.421875 0.4375 -1.328125l0 -0.78125q0 -0.890625 -0.4375 -1.3125q-0.4375 -0.4375 -1.140625 -0.4375q-0.71875 0 -1.15625 0.4375q-0.43753052 0.421875 -0.43753052 1.3125l0 0.78125q0 0.90625 0.43753052 1.328125q0.4375 0.421875 1.15625 0.421875zm7.690674 -0.28125l-0.046875 0q-0.078125 0.203125 -0.21875 0.390625q-0.125 0.1875 -0.3125 0.328125q-0.1875 0.125 -0.4375 0.203125q-0.25 0.09375 -0.59375 0.09375q-0.859375 0 -1.390625 -0.546875q-0.515625 -0.546875 -0.515625 -1.546875l0 -3.53125l0.84375 0l0 3.375q0 0.765625 0.328125 1.140625q0.34375 0.359375 0.984375 0.359375q0.25 0 0.484375 -0.0625q0.25 -0.0625 0.4375 -0.1875q0.203125 -0.140625 0.3125 -0.328125q0.125 -0.203125 0.125 -0.484375l0 -3.8125l0.84375 0l0 5.5l-0.84375 0l0 -0.890625zm5.3625793 0.890625q-0.640625 0 -0.9375 -0.34375q-0.28125 -0.359375 -0.28125 -0.90625l0 -3.53125l-1.828125 0l0 -0.71875l1.359375 0q0.28125 0 0.390625 -0.109375q0.109375 -0.109375 0.109375 -0.390625l0 -1.4375076l0.8125 0l0 1.9375076l2.515625 0l0 0.71875l-2.515625 0l0 4.0625l2.515625 0l0 0.71875l-2.140625 0z" fill-rule="nonzero"/><path fill="#000000" d="m284.31958 143.77263q0.78125 0 1.171875 -0.34375q0.390625 -0.34375 0.390625 -0.890625l0 -0.078125q0 -0.59375 -0.390625 -0.890625q-0.375 -0.296875 -0.984375 -0.296875q-0.59375 0 -0.96875 0.265625q-0.359375 0.25 -0.59375 0.671875l-0.671875 -0.5q0.140625 -0.234375 0.34375 -0.453125q0.203125 -0.21875 0.46875 -0.390625q0.28125 -0.171875 0.625 -0.265625q0.359375 -0.109375 0.828125 -0.109375q0.46875 0 0.890625 0.125q0.421875 0.109375 0.71875 0.359375q0.3125 0.234375 0.484375 0.59375q0.1875 0.34375 0.1875 0.796875q0 0.359375 -0.125 0.65625q-0.109375 0.28125 -0.3125 0.5q-0.1875 0.203125 -0.453125 0.359375q-0.265625 0.140625 -0.5625 0.21875l0 0.046875q0.3125 0.0625 0.59375 0.203125q0.296875 0.140625 0.515625 0.375q0.21875 0.234375 0.34375 0.5625q0.140625 0.3125 0.140625 0.734375q0 0.46875 -0.1875 0.875q-0.1875 0.40625 -0.53125 0.6875q-0.328125 0.28125 -0.796875 0.4375q-0.46875 0.15625 -1.046875 0.15625q-0.484375 0 -0.875 -0.109375q-0.375 -0.09375 -0.671875 -0.28125q-0.28125 -0.1875 -0.5 -0.40625q-0.21875 -0.21875 -0.390625 -0.46875l0.671875 -0.515625q0.140625 0.234375 0.296875 0.421875q0.171875 0.171875 0.375 0.3125q0.203125 0.125 0.46875 0.203125q0.265625 0.0625 0.625 0.0625q0.78125 0 1.203125 -0.359375q0.421875 -0.359375 0.421875 -1.03125l0 -0.078125q0 -0.671875 -0.40625 -1.03125q-0.40625 -0.359375 -1.234375 -0.359375l-0.875 0l0 -0.765625l0.8125 0z" fill-rule="nonzero"/><path fill="#000000" d="m282.35083 160.85388l0 -0.78125l2.125 0l0 -6.0l-0.0625 0l-1.875 1.75l-0.53125 -0.5625l1.96875 -1.84375l1.40625 0l0 6.65625l1.953125 0l0 0.78125l-4.984375 0z" fill-rule="nonzero"/><path fill="#000000" fill-opacity="0.0" d="m568.11066 102.387505l47.84253 0l0 84.03149l-47.84253 0z" fill-rule="evenodd"/><path fill="#000000" d="m585.64435 121.7525q-0.578125 0 -1.046875 -0.203125q-0.46875 -0.203125 -0.796875 -0.578125q-0.3125 -0.375 -0.484375 -0.90625q-0.171875 -0.53125 -0.171875 -1.1875q0 -0.65625 0.171875 -1.1875q0.171875 -0.53125 0.484375 -0.90625q0.328125 -0.375 0.796875 -0.578125q0.46875 -0.203125 1.046875 -0.203125q0.5625 0 1.03125 0.203125q0.46875 0.203125 0.78125 0.578125q0.328125 0.375 0.5 0.90625q0.171875 0.53125 0.171875 1.1875q0 0.65625 -0.171875 1.1875q-0.171875 0.53125 -0.5 0.90625q-0.3125 0.375 -0.78125 0.578125q-0.46875 0.203125 -1.03125 0.203125zm0 -0.734375q0.703125 0 1.140625 -0.421875q0.4375 -0.421875 0.4375 -1.328125l0 -0.78125q0 -0.890625 -0.4375 -1.3125q-0.4375 -0.4375 -1.140625 -0.4375q-0.71875 0 -1.15625 0.4375q-0.4375 0.421875 -0.4375 1.3125l0 0.78125q0 0.90625 0.4375 1.328125q0.4375 0.421875 1.15625 0.421875zm7.690674 -0.28125l-0.046875 0q-0.078125 0.203125 -0.21875 0.390625q-0.125 0.1875 -0.3125 0.328125q-0.1875 0.125 -0.4375 0.203125q-0.25 0.09375 -0.59375 0.09375q-0.859375 0 -1.390625 -0.546875q-0.515625 -0.546875 -0.515625 -1.546875l0 -3.53125l0.84375 0l0 3.375q0 0.765625 0.328125 1.140625q0.34375 0.359375 0.984375 0.359375q0.25 0 0.484375 -0.0625q0.25 -0.0625 0.4375 -0.1875q0.203125 -0.140625 0.3125 -0.328125q0.125 -0.203125 0.125 -0.484375l0 -3.8125l0.84375 0l0 5.5l-0.84375 0l0 -0.890625zm5.362549 0.890625q-0.640625 0 -0.9375 -0.34375q-0.28125 -0.359375 -0.28125 -0.90625l0 -3.53125l-1.828125 0l0 -0.71875l1.359375 0q0.28125 0 0.390625 -0.109375q0.109375 -0.109375 0.109375 -0.390625l0 -1.4375l0.8125 0l0 1.9375l2.515625 0l0 0.71875l-2.515625 0l0 4.0625l2.515625 0l0 0.71875l-2.140625 0z" fill-rule="nonzero"/><path fill="#000000" d="m585.64435 134.5525q-0.578125 0 -1.046875 -0.203125q-0.46875 -0.203125 -0.796875 -0.578125q-0.3125 -0.375 -0.484375 -0.90625q-0.171875 -0.53125 -0.171875 -1.1875q0 -0.65625 0.171875 -1.1875q0.171875 -0.53125 0.484375 -0.90625q0.328125 -0.375 0.796875 -0.578125q0.46875 -0.203125 1.046875 -0.203125q0.5625 0 1.03125 0.203125q0.46875 0.203125 0.78125 0.578125q0.328125 0.375 0.5 0.90625q0.171875 0.53125 0.171875 1.1875q0 0.65625 -0.171875 1.1875q-0.171875 0.53125 -0.5 0.90625q-0.3125 0.375 -0.78125 0.578125q-0.46875 0.203125 -1.03125 0.203125zm0 -0.734375q0.703125 0 1.140625 -0.421875q0.4375 -0.421875 0.4375 -1.328125l0 -0.78125q0 -0.890625 -0.4375 -1.3125q-0.4375 -0.4375 -1.140625 -0.4375q-0.71875 0 -1.15625 0.4375q-0.4375 0.421875 -0.4375 1.3125l0 0.78125q0 0.90625 0.4375 1.328125q0.4375 0.421875 1.15625 0.421875zm7.690674 -0.28125l-0.046875 0q-0.078125 0.203125 -0.21875 0.390625q-0.125 0.1875 -0.3125 0.328125q-0.1875 0.125 -0.4375 0.203125q-0.25 0.09375 -0.59375 0.09375q-0.859375 0 -1.390625 -0.546875q-0.515625 -0.546875 -0.515625 -1.546875l0 -3.53125l0.84375 0l0 3.375q0 0.765625 0.328125 1.140625q0.34375 0.359375 0.984375 0.359375q0.25 0 0.484375 -0.0625q0.25 -0.0625 0.4375 -0.1875q0.203125 -0.140625 0.3125 -0.328125q0.125 -0.203125 0.125 -0.484375l0 -3.8125l0.84375 0l0 5.5l-0.84375 0l0 -0.890625zm5.362549 0.890625q-0.640625 0 -0.9375 -0.34375q-0.28125 -0.359375 -0.28125 -0.90625l0 -3.53125l-1.828125 0l0 -0.71875l1.359375 0q0.28125 0 0.390625 -0.109375q0.109375 -0.109375 0.109375 -0.390625l0 -1.4375l0.8125 0l0 1.9375l2.515625 0l0 0.71875l-2.515625 0l0 4.0625l2.515625 0l0 0.71875l-2.140625 0z" fill-rule="nonzero"/><path fill="#000000" d="m591.71 142.94624q0.78125 0 1.171875 -0.34375q0.390625 -0.34375 0.390625 -0.890625l0 -0.078125q0 -0.59375 -0.390625 -0.890625q-0.375 -0.296875 -0.984375 -0.296875q-0.59375 0 -0.96875 0.265625q-0.359375 0.25 -0.59375 0.671875l-0.671875 -0.5q0.140625 -0.234375 0.34375 -0.453125q0.203125 -0.21875 0.46875 -0.390625q0.28125 -0.171875 0.625 -0.265625q0.359375 -0.109375 0.828125 -0.109375q0.46875 0 0.890625 0.125q0.421875 0.109375 0.71875 0.359375q0.3125 0.234375 0.484375 0.59375q0.1875 0.34375 0.1875 0.796875q0 0.359375 -0.125 0.65625q-0.109375 0.28125 -0.3125 0.5q-0.1875 0.203125 -0.453125 0.359375q-0.265625 0.140625 -0.5625 0.21875l0 0.046875q0.3125 0.0625 0.59375 0.203125q0.296875 0.140625 0.515625 0.375q0.21875 0.234375 0.34375 0.5625q0.140625 0.3125 0.140625 0.734375q0 0.46875 -0.1875 0.875q-0.1875 0.40625 -0.53125 0.6875q-0.328125 0.28125 -0.796875 0.4375q-0.46875 0.15625 -1.046875 0.15625q-0.484375 0 -0.875 -0.109375q-0.375 -0.09375 -0.671875 -0.28125q-0.28125 -0.1875 -0.5 -0.40625q-0.21875 -0.21875 -0.390625 -0.46875l0.671875 -0.515625q0.140625 0.234375 0.296875 0.421875q0.171875 0.171875 0.375 0.3125q0.203125 0.125 0.46875 0.203125q0.265625 0.0625 0.625 0.0625q0.78125 0 1.203125 -0.359375q0.421875 -0.359375 0.421875 -1.03125l0 -0.078125q0 -0.671875 -0.40625 -1.03125q-0.40625 -0.359375 -1.234375 -0.359375l-0.875 0l0 -0.765625l0.8125 0z" fill-rule="nonzero"/><path fill="#000000" d="m589.7413 160.0275l0 -0.78125l2.125 0l0 -6.0l-0.0625 0l-1.875 1.75l-0.53125 -0.5625l1.96875 -1.84375l1.40625 0l0 6.65625l1.953125 0l0 0.78125l-4.984375 0z" fill-rule="nonzero"/><path fill="#000000" fill-opacity="0.0" d="m380.1649 138.61604l41.385834 0" fill-rule="evenodd"/><path stroke="#000000" stroke-width="2.0" stroke-linejoin="round" stroke-linecap="butt" d="m380.16492 138.61604l29.385803 0" fill-rule="evenodd"/><path fill="#000000" stroke="#000000" stroke-width="2.0" stroke-linecap="butt" d="m409.55072 141.91951l9.076202 -3.3034668l-9.076202 -3.3034515z" fill-rule="evenodd"/><path fill="#f3f3f3" d="m7.099099 105.70266l66.3937 0l0 66.3937l-66.3937 0z" fill-rule="evenodd"/><path stroke="#000000" stroke-width="1.0" stroke-linejoin="round" stroke-linecap="butt" d="m7.099099 105.70266l66.3937 0l0 66.3937l-66.3937 0z" fill-rule="evenodd"/><path fill="#f3f3f3" d="m729.0354 105.4192l66.39368 0l0 66.3937l-66.39368 0z" fill-rule="evenodd"/><path stroke="#000000" stroke-width="1.0" stroke-linejoin="round" stroke-linecap="butt" d="m729.0354 105.4192l66.39368 0l0 66.3937l-66.39368 0z" fill-rule="evenodd"/><path fill="#000000" fill-opacity="0.0" d="m16.419718 102.386536l47.84252 0l0 84.031494l-47.84252 0z" fill-rule="evenodd"/><path fill="#000000" d="m38.08157 114.18903l2.53125 0q0.953125 0 1.5 0.53125q0.546875 0.515625 0.546875 1.390625q0 0.671875 -0.328125 1.0625q-0.328125 0.375 -0.84375 0.53125l0 0.03125q0.625 0.15625 1.03125 0.5625q0.40625 0.40625 0.40625 1.1875q0 0.453125 -0.15625 0.84375q-0.140625 0.390625 -0.421875 0.6875q-0.265625 0.28125 -0.640625 0.453125q-0.359375 0.15625 -0.78125 0.15625l-2.84375 0l0 -7.4375zm2.578125 6.65625q0.625 0 0.96875 -0.265625q0.359375 -0.28125 0.359375 -0.859375l0 -0.4375q0 -0.5625 -0.359375 -0.84375q-0.34375 -0.28125 -0.96875 -0.28125l-1.6875 0l0 2.6875l1.6875 0zm-0.140625 -3.421875q0.5625 0 0.875 -0.25q0.328125 -0.25 0.328125 -0.765625l0 -0.421875q0 -0.515625 -0.328125 -0.765625q-0.3125 -0.25 -0.875 -0.25l-1.546875 0l0 2.453125l1.546875 0z" fill-rule="nonzero"/><path fill="#000000" d="m37.478413 127.70779q-0.359375 0 -0.515625 -0.140625q-0.15625 -0.15625 -0.15625 -0.390625l0 -0.171875q0 -0.234375 0.15625 -0.390625q0.15625 -0.15625 0.515625 -0.15625q0.375 0 0.515625 0.15625q0.15625 0.15625 0.15625 0.390625l0 0.171875q0 0.234375 -0.15625 0.390625q-0.140625 0.140625 -0.515625 0.140625zm-2.40625 5.9999924l1.984375 0l0 -4.0625l-1.984375 0l0 -0.71875l2.84375 0l0 4.78125l1.84375 0l0 0.71875l-4.6875 0l0 -0.71875zm6.315689 0.71875l0 -5.5l0.84375 0l0 0.890625l0.046875 0q0.09375 -0.203125 0.21875 -0.375q0.125 -0.1875 0.3125 -0.328125q0.1875 -0.140625 0.4375 -0.21875q0.265625 -0.09375 0.59375 -0.09375q0.875 0 1.390625 0.546875q0.515625 0.546875 0.515625 1.546875l0 3.53125l-0.84375 0l0 -3.375q0 -0.765625 -0.328125 -1.125q-0.328125 -0.375 -0.96875 -0.375q-0.265625 0 -0.515625 0.078125q-0.234375 0.0625 -0.4375 0.1875q-0.1875 0.125 -0.3125 0.328125q-0.109375 0.203125 -0.109375 0.46875l0 3.8125l-0.84375 0z" fill-rule="nonzero"/><path fill="#000000" d="m38.190945 139.3359l0.84375 0l0 3.28125l0.046875 0q0.09375 -0.203125 0.21875 -0.375q0.125 -0.1875 0.3125 -0.328125q0.1875 -0.140625 0.4375 -0.21875q0.265625 -0.09375 0.59375 -0.09375q0.875 0 1.390625 0.546875q0.515625 0.546875 0.515625 1.546875l0 3.53125l-0.84375 0l0 -3.375q0 -0.765625 -0.328125 -1.125q-0.328125 -0.375 -0.96875 -0.375q-0.265625 0 -0.515625 0.078125q-0.234375 0.0625 -0.4375 0.1875q-0.1875 0.125 -0.3125 0.328125q-0.109375 0.203125 -0.109375 0.46875l0 3.8125l-0.84375 0l0 -7.890625z" fill-rule="nonzero"/><path fill="#000000" d="m37.45657 154.52654l0.765625 0l0.625 4.75l0.09375 0l0.9375 -4.75l0.9375 0l0.9375 4.75l0.09375 0l0.640625 -4.75l0.734375 0l-0.84375 5.5l-1.109375 0l-0.875 -4.609375l-0.078125 0l-0.90625 4.609375l-1.109375 0l-0.84375 -5.5z" fill-rule="nonzero"/><path fill="#000000" fill-opacity="0.0" d="m738.2605 102.38688l47.84253 0l0 84.0315l-47.84253 0z" fill-rule="evenodd"/><path fill="#000000" d="m759.92236 114.189384l2.53125 0q0.953125 0 1.5 0.53125q0.546875 0.515625 0.546875 1.390625q0 0.671875 -0.328125 1.0625q-0.328125 0.375 -0.84375 0.53125l0 0.03125q0.625 0.15625 1.03125 0.5625q0.40625 0.40625 0.40625 1.1875q0 0.453125 -0.15625 0.84375q-0.140625 0.390625 -0.421875 0.6875q-0.265625 0.28125 -0.640625 0.453125q-0.359375 0.15625 -0.78125 0.15625l-2.84375 0l0 -7.4375zm2.578125 6.65625q0.625 0 0.96875 -0.265625q0.359375 -0.28125 0.359375 -0.859375l0 -0.4375q0 -0.5625 -0.359375 -0.84375q-0.34375 -0.28125 -0.96875 -0.28125l-1.6875 0l0 2.6875l1.6875 0zm-0.140625 -3.421875q0.5625 0 0.875 -0.25q0.328125 -0.25 0.328125 -0.765625l0 -0.421875q0 -0.515625 -0.328125 -0.765625q-0.3125 -0.25 -0.875 -0.25l-1.546875 0l0 2.453125l1.546875 0z" fill-rule="nonzero"/><path fill="#000000" d="m755.7942 134.55188q-0.578125 0 -1.046875 -0.203125q-0.46875 -0.203125 -0.796875 -0.578125q-0.3125 -0.375 -0.484375 -0.90625q-0.171875 -0.53125 -0.171875 -1.1875q0 -0.65625 0.171875 -1.1875q0.171875 -0.53125 0.484375 -0.90625q0.328125 -0.375 0.796875 -0.578125q0.46875 -0.203125 1.046875 -0.203125q0.5625 0 1.03125 0.203125q0.46875 0.203125 0.78125 0.578125q0.328125 0.375 0.5 0.90625q0.171875 0.53125 0.171875 1.1875q0 0.65625 -0.171875 1.1875q-0.171875 0.53125 -0.5 0.90625q-0.3125 0.375 -0.78125 0.578125q-0.46875 0.203125 -1.03125 0.203125zm0 -0.734375q0.703125 0 1.140625 -0.421875q0.4375 -0.421875 0.4375 -1.328125l0 -0.78125q0 -0.890625 -0.4375 -1.3125q-0.4375 -0.4375 -1.140625 -0.4375q-0.71875 0 -1.15625 0.4375q-0.4375 0.421875 -0.4375 1.3125l0 0.78125q0 0.90625 0.4375 1.328125q0.4375 0.421875 1.15625 0.421875zm7.690674 -0.28125l-0.046875 0q-0.078125 0.203125 -0.21875 0.390625q-0.125 0.1875 -0.3125 0.328125q-0.1875 0.125 -0.4375 0.203125q-0.25 0.09375 -0.59375 0.09375q-0.859375 0 -1.390625 -0.546875q-0.515625 -0.546875 -0.515625 -1.546875l0 -3.53125l0.84375 0l0 3.375q0 0.765625 0.328125 1.140625q0.34375 0.359375 0.984375 0.359375q0.25 0 0.484375 -0.0625q0.25 -0.0625 0.4375 -0.1875q0.203125 -0.140625 0.3125 -0.328125q0.125 -0.203125 0.125 -0.484375l0 -3.8125l0.84375 0l0 5.5l-0.84375 0l0 -0.890625zm5.362549 0.890625q-0.640625 0 -0.9375 -0.34375q-0.28125 -0.359375 -0.28125 -0.90625l0 -3.53125l-1.828125 0l0 -0.71875l1.359375 0q0.28125 0 0.390625 -0.109375q0.109375 -0.109375 0.109375 -0.390625l0 -1.4375l0.8125 0l0 1.9375l2.515625 0l0 0.71875l-2.515625 0l0 4.0625l2.515625 0l0 0.71875l-2.140625 0z" fill-rule="nonzero"/><path fill="#000000" d="m760.03174 139.33626l0.84375 0l0 3.28125l0.046875 0q0.09375 -0.203125 0.21875 -0.375q0.125 -0.1875 0.3125 -0.328125q0.1875 -0.140625 0.4375 -0.21875q0.265625 -0.09375 0.59375 -0.09375q0.875 0 1.390625 0.546875q0.515625 0.546875 0.515625 1.546875l0 3.53125l-0.84375 0l0 -3.375q0 -0.765625 -0.328125 -1.125q-0.328125 -0.375 -0.96875 -0.375q-0.265625 0 -0.515625 0.078125q-0.234375 0.0625 -0.4375 0.1875q-0.1875 0.125 -0.3125 0.328125q-0.109375 0.203125 -0.109375 0.46875l0 3.8125l-0.84375 0l0 -7.890625z" fill-rule="nonzero"/><path fill="#000000" d="m759.29736 154.52689l0.765625 0l0.625 4.75l0.09375 0l0.9375 -4.75l0.9375 0l0.9375 4.75l0.09375 0l0.640625 -4.75l0.734375 0l-0.84375 5.5l-1.109375 0l-0.875 -4.609375l-0.078125 0l-0.90625 4.609375l-1.109375 0l-0.84375 -5.5z" fill-rule="nonzero"/><path fill="#000000" fill-opacity="0.0" d="m106.53125 209.9439l47.842514 0l0 84.03151l-47.842514 0z" fill-rule="evenodd"/><path fill="#000000" d="m127.58995 222.46515q-0.359375 0 -0.515625 -0.140625q-0.15625 -0.15625 -0.15625 -0.390625l0 -0.171875q0 -0.234375 0.15625 -0.390625q0.15625 -0.15625 0.515625 -0.15625q0.375 0 0.515625 0.15625q0.15625 0.15625 0.15625 0.390625l0 0.171875q0 0.234375 -0.15625 0.390625q-0.140625 0.140625 -0.515625 0.140625zm-2.40625 6.0l1.984375 0l0 -4.0625l-1.984375 0l0 -0.71875l2.84375 0l0 4.78125l1.84375 0l0 0.71875l-4.6875 0l0 -0.71875zm6.315689 0.71875l0 -5.5l0.84375 0l0 0.890625l0.046875 0q0.09375 -0.203125 0.21875 -0.375q0.125 -0.1875 0.3125 -0.328125q0.1875 -0.140625 0.4375 -0.21875q0.265625 -0.09375 0.59375 -0.09375q0.875 0 1.390625 0.546875q0.515625 0.546875 0.515625 1.546875l0 3.53125l-0.84375 0l0 -3.375q0 -0.765625 -0.328125 -1.125q-0.328125 -0.375 -0.96875 -0.375q-0.265625 0 -0.515625 0.078125q-0.234375 0.0625 -0.4375 0.1875q-0.1875 0.125 -0.3125 0.328125q-0.109375 0.203125 -0.109375 0.46875l0 3.8125l-0.84375 0z" fill-rule="nonzero"/><path fill="#000000" d="m124.06492 242.1089q-0.578125 0 -1.046875 -0.203125q-0.46875 -0.203125 -0.7968826 -0.578125q-0.3125 -0.375 -0.484375 -0.90625q-0.171875 -0.53125 -0.171875 -1.1875q0 -0.65625 0.171875 -1.1875q0.171875 -0.53125 0.484375 -0.90625q0.32813263 -0.375 0.7968826 -0.578125q0.46875 -0.203125 1.046875 -0.203125q0.5625 0 1.03125 0.203125q0.46875 0.203125 0.78125 0.578125q0.328125 0.375 0.5 0.90625q0.171875 0.53125 0.171875 1.1875q0 0.65625 -0.171875 1.1875q-0.171875 0.53125 -0.5 0.90625q-0.3125 0.375 -0.78125 0.578125q-0.46875 0.203125 -1.03125 0.203125zm0 -0.734375q0.703125 0 1.140625 -0.421875q0.4375 -0.421875 0.4375 -1.328125l0 -0.78125q0 -0.890625 -0.4375 -1.3125q-0.4375 -0.4375 -1.140625 -0.4375q-0.71875 0 -1.15625 0.4375q-0.43750763 0.421875 -0.43750763 1.3125l0 0.78125q0 0.90625 0.43750763 1.328125q0.4375 0.421875 1.15625 0.421875zm7.6906815 -0.28125l-0.046875 0q-0.078125 0.203125 -0.21875 0.390625q-0.125 0.1875 -0.3125 0.328125q-0.1875 0.125 -0.4375 0.203125q-0.25 0.09375 -0.59375 0.09375q-0.859375 0 -1.390625 -0.546875q-0.515625 -0.546875 -0.515625 -1.546875l0 -3.53125l0.84375 0l0 3.375q0 0.765625 0.328125 1.140625q0.34375 0.359375 0.984375 0.359375q0.25 0 0.484375 -0.0625q0.25 -0.0625 0.4375 -0.1875q0.203125 -0.140625 0.3125 -0.328125q0.125 -0.203125 0.125 -0.484375l0 -3.8125l0.84375 0l0 5.5l-0.84375 0l0 -0.890625zm5.362564 0.890625q-0.640625 0 -0.9375 -0.34375q-0.28125 -0.359375 -0.28125 -0.90625l0 -3.53125l-1.828125 0l0 -0.71875l1.359375 0q0.28125 0 0.390625 -0.109375q0.109375 -0.109375 0.109375 -0.390625l0 -1.4375l0.8125 0l0 1.9375l2.515625 0l0 0.71875l-2.515625 0l0 4.0625l2.515625 0l0 0.71875l-2.140625 0z" fill-rule="nonzero"/><path fill="#000000" d="m128.16185 254.78389l0 -0.78125l2.125 0l0 -6.0l-0.0625 0l-1.875 1.75l-0.5312424 -0.5625l1.9687424 -1.84375l1.40625 0l0 6.65625l1.953125 0l0 0.78125l-4.984375 0z" fill-rule="nonzero"/><path fill="#000000" d="m130.45872 267.7089q-0.6875 0 -1.1875 -0.25q-0.484375 -0.265625 -0.8125 -0.75q-0.3125 -0.5 -0.46874237 -1.203125q-0.140625 -0.71875 -0.140625 -1.640625q0 -0.90625 0.140625 -1.625q0.15624237 -0.71875 0.46874237 -1.203125q0.328125 -0.5 0.8125 -0.75q0.5 -0.265625 1.1875 -0.265625q0.671875 0 1.15625 0.265625q0.5 0.25 0.8125 0.75q0.328125 0.484375 0.46875 1.203125q0.15625 0.71875 0.15625 1.625q0 0.921875 -0.15625 1.640625q-0.140625 0.703125 -0.46875 1.203125q-0.3125 0.484375 -0.8125 0.75q-0.484375 0.25 -1.15625 0.25zm0 -0.78125q0.4375 0 0.75 -0.171875q0.328125 -0.171875 0.515625 -0.484375q0.203125 -0.328125 0.296875 -0.78125q0.109375 -0.453125 0.109375 -1.015625l0 -1.21875q0 -0.546875 -0.109375 -1.0q-0.09375 -0.46875 -0.296875 -0.78125q-0.1875 -0.328125 -0.515625 -0.5q-0.3125 -0.171875 -0.75 -0.171875q-0.453125 0 -0.78125 0.171875q-0.3125 0.171875 -0.515625 0.5q-0.1875 0.3125 -0.28125 0.78125q-0.09375 0.453125 -0.09375 1.0l0 1.21875q0 0.5625 0.09375 1.015625q0.09375 0.453125 0.28125 0.78125q0.203125 0.3125 0.515625 0.484375q0.328125 0.171875 0.78125 0.171875zm0 -2.4375q-0.375 0 -0.53125 -0.140625q-0.140625 -0.15625 -0.140625 -0.375l0 -0.234375q0 -0.203125 0.140625 -0.34375q0.15625 -0.15625 0.53125 -0.15625q0.359375 0 0.5 0.15625q0.15625 0.140625 0.15625 0.34375l0 0.234375q0 0.21875 -0.15625 0.375q-0.140625 0.140625 -0.5 0.140625z" fill-rule="nonzero"/><path fill="#000000" fill-opacity="0.0" d="m147.20802 245.19086l521.5748 0l0 -84.56694" fill-rule="evenodd"/><path stroke="#000000" stroke-width="2.0" stroke-linejoin="round" stroke-linecap="butt" d="m147.20802 245.19084l521.5748 0l0 -72.566925" fill-rule="evenodd"/><path fill="#000000" stroke="#000000" stroke-width="2.0" stroke-linecap="butt" d="m672.0863 172.62392l-3.3034668 -9.076187l-3.3034668 9.076187z" fill-rule="evenodd"/><path fill="#000000" fill-opacity="0.0" d="m608.528 138.61604l39.527588 0" fill-rule="evenodd"/><path stroke="#000000" stroke-width="2.0" stroke-linejoin="round" stroke-linecap="butt" d="m608.5281 138.61604l27.527527 0" fill-rule="evenodd"/><path fill="#000000" stroke="#000000" stroke-width="2.0" stroke-linecap="butt" d="m636.0556 141.91951l9.076233 -3.3034668l-9.076233 -3.3034515z" fill-rule="evenodd"/><path fill="#000000" fill-opacity="0.0" d="m688.059 138.61604l40.97638 0" fill-rule="evenodd"/><path stroke="#000000" stroke-width="2.0" stroke-linejoin="round" stroke-linecap="butt" d="m688.05896 138.61604l28.97638 0" fill-rule="evenodd"/><path fill="#000000" stroke="#000000" stroke-width="2.0" stroke-linecap="butt" d="m717.03534 141.91951l9.076233 -3.3034668l-9.076233 -3.3034515z" fill-rule="evenodd"/><path fill="#d0e0e3" d="m325.6568 55.37589l14.162994 -32.31496l40.555878 0l14.163025 32.31496z" fill-rule="evenodd"/><path stroke="#000000" stroke-width="1.0" stroke-linejoin="round" stroke-linecap="butt" d="m325.6568 55.37589l14.162994 -32.31496l40.555878 0l14.163025 32.31496z" fill-rule="evenodd"/><path fill="#f3f3f3" d="m245.64407 39.217094l0 0c0 -10.706495 8.883789 -19.385824 19.842499 -19.385824l0 0c5.2625732 0 10.309601 2.042429 14.030792 5.6779766c3.7211914 3.6355476 5.811737 8.56641 5.811737 13.707848l0 0c0 10.706497 -8.883789 19.38583 -19.84253 19.38583l0 0c-10.95871 0 -19.842499 -8.679333 -19.842499 -19.38583z" fill-rule="evenodd"/><path stroke="#000000" stroke-width="1.0" stroke-linejoin="round" stroke-linecap="butt" d="m245.64407 39.217094l0 0c0 -10.706495 8.883789 -19.385824 19.842499 -19.385824l0 0c5.2625732 0 10.309601 2.042429 14.030792 5.6779766c3.7211914 3.6355476 5.811737 8.56641 5.811737 13.707848l0 0c0 10.706497 -8.883789 19.38583 -19.84253 19.38583l0 0c-10.95871 0 -19.842499 -8.679333 -19.842499 -19.38583z" fill-rule="evenodd"/><path fill="#000000" fill-opacity="0.0" d="m165.63368 19.832582l39.685043 0l0 38.771652l-39.685043 0z" fill-rule="evenodd"/><path fill="#000000" d="m185.87932 44.19258q-0.953125 0 -1.390625 -0.53125q-0.4375 -0.53125 -0.4375 -1.359375l0 -5.28125l-2.75 0l0 -1.078125l2.046875 0q0.421875 0 0.578125 -0.171875q0.171875 -0.171875 0.171875 -0.59375l0 -2.15625l1.234375 0l0 2.921875l3.765625 0l0 1.078125l-3.765625 0l0 6.078125l3.765625 0l0 1.09375l-3.21875 0z" fill-rule="nonzero"/><path fill="#000000" fill-opacity="0.0" d="m205.31873 39.218407l40.314957 0" fill-rule="evenodd"/><path stroke="#000000" stroke-width="2.0" stroke-linejoin="round" stroke-linecap="butt" d="m205.31874 39.21841l28.314957 0" fill-rule="evenodd"/><path fill="#000000" stroke="#000000" stroke-width="2.0" stroke-linecap="butt" d="m233.6337 42.521873l9.076187 -3.303463l-9.076187 -3.3034668z" fill-rule="evenodd"/><path fill="#000000" fill-opacity="0.0" d="m285.3291 39.217094l47.40158 0" fill-rule="evenodd"/><path stroke="#000000" stroke-width="2.0" stroke-linejoin="round" stroke-linecap="butt" d="m285.3291 39.2171l35.40158 0" fill-rule="evenodd"/><path fill="#000000" stroke="#000000" stroke-width="2.0" stroke-linecap="butt" d="m320.73068 42.52056l9.076202 -3.303463l-9.076202 -3.3034668z" fill-rule="evenodd"/><path fill="#000000" fill-opacity="0.0" d="m301.18945 138.99663l40.409454 -0.50393677" fill-rule="evenodd"/><path stroke="#000000" stroke-width="2.0" stroke-linejoin="round" stroke-linecap="butt" d="m301.18945 138.99663l28.4104 -0.35429382" fill-rule="evenodd"/><path fill="#000000" stroke="#000000" stroke-width="2.0" stroke-linecap="butt" d="m329.64102 141.94554l9.034302 -3.416397l-9.116699 -3.1900177z" fill-rule="evenodd"/><path fill="#000000" fill-opacity="0.0" d="m327.00766 16.58869l66.39368 0l0 45.259842l-66.39368 0z" fill-rule="evenodd"/><path fill="#000000" d="m347.68872 35.82869q-0.640625 0 -0.9375 -0.34375q-0.28125 -0.359375 -0.28125 -0.90625l0 -3.53125l-1.828125 0l0 -0.71875l1.359375 0q0.28125 0 0.390625 -0.109375q0.109375 -0.109375 0.109375 -0.390625l0 -1.4375l0.8125 0l0 1.9375l2.515625 0l0 0.71875l-2.515625 0l0 4.0625l2.515625 0l0 0.71875l-2.140625 0zm3.5656738 1.796875l0 -0.78125l5.109375 0l0 0.78125l-5.109375 0zm10.284454 -2.6875l-0.046875 0q-0.53125 1.015625 -1.6875 1.015625q-1.015625 0 -1.59375 -0.75q-0.5625 -0.765625 -0.5625 -2.125q0 -1.359375 0.5625 -2.109375q0.578125 -0.765625 1.59375 -0.765625q1.15625 0 1.6875 1.015625l0.046875 0l0 -3.28125l0.84375 0l0 7.890625l-0.84375 0l0 -0.890625zm-1.40625 0.265625q0.28125 0 0.53125 -0.078125q0.265625 -0.078125 0.453125 -0.21875q0.203125 -0.140625 0.3125 -0.34375q0.109375 -0.21875 0.109375 -0.5l0 -1.96875q0 -0.28125 -0.109375 -0.484375q-0.109375 -0.21875 -0.3125 -0.359375q-0.1875 -0.140625 -0.453125 -0.21875q-0.25 -0.078125 -0.53125 -0.078125q-0.75 0 -1.15625 0.453125q-0.40625 0.453125 -0.40625 1.203125l0 0.9375q0 0.75 0.40625 1.203125q0.40625 0.453125 1.15625 0.453125zm6.800049 -6.09375q-0.359375 0 -0.515625 -0.140625q-0.15625 -0.15625 -0.15625 -0.390625l0 -0.171875q0 -0.234375 0.15625 -0.390625q0.15625 -0.15625 0.515625 -0.15625q0.375 0 0.515625 0.15625q0.15625 0.15625 0.15625 0.390625l0 0.171875q0 0.234375 -0.15625 0.390625q-0.140625 0.140625 -0.515625 0.140625zm-2.40625 6.0l1.984375 0l0 -4.0625l-1.984375 0l0 -0.71875l2.84375 0l0 4.78125l1.84375 0l0 0.71875l-4.6875 0l0 -0.71875zm5.8469543 0.71875l0 -5.5l0.78125 0l0 0.640625l0.046875 0q0.125 -0.3125 0.359375 -0.53125q0.234375 -0.234375 0.703125 -0.234375q0.46875 0 0.703125 0.25q0.234375 0.234375 0.296875 0.609375l0.03125 0q0.140625 -0.375 0.421875 -0.609375q0.28125 -0.25 0.765625 -0.25q0.671875 0 0.890625 0.46875q0.234375 0.46875 0.234375 1.34375l0 3.8125l-0.78125 0l0 -3.671875q0 -0.703125 -0.15625 -0.96875q-0.140625 -0.28125 -0.515625 -0.28125q-0.34375 0 -0.5625 0.21875q-0.203125 0.21875 -0.203125 0.671875l0 4.03125l-0.796875 0l0 -3.671875q0 -0.703125 -0.140625 -0.96875q-0.140625 -0.28125 -0.515625 -0.28125q-0.34375 0 -0.5625 0.21875q-0.21875 0.21875 -0.21875 0.671875l0 4.03125l-0.78125 0z" fill-rule="nonzero"/><path fill="#000000" d="m353.8169 48.75369q-0.578125 0 -1.046875 -0.203125q-0.46875 -0.203125 -0.796875 -0.578125q-0.3125 -0.375 -0.484375 -0.90625q-0.171875 -0.53125 -0.171875 -1.1875q0 -0.65625 0.171875 -1.1875q0.171875 -0.53125 0.484375 -0.90625q0.328125 -0.375 0.796875 -0.578125q0.46875 -0.203125 1.046875 -0.203125q0.5625 0 1.03125 0.203125q0.46875 0.203125 0.78125 0.578125q0.328125 0.375 0.5 0.90625q0.171875 0.53125 0.171875 1.1875q0 0.65625 -0.171875 1.1875q-0.171875 0.53125 -0.5 0.90625q-0.3125 0.375 -0.78125 0.578125q-0.46875 0.203125 -1.03125 0.203125zm0 -0.734375q0.703125 0 1.140625 -0.421875q0.4375 -0.421875 0.4375 -1.328125l0 -0.78125q0 -0.890625 -0.4375 -1.3125q-0.4375 -0.4375 -1.140625 -0.4375q-0.71875 0 -1.15625 0.4375q-0.4375 0.421875 -0.4375 1.3125l0 0.78125q0 0.90625 0.4375 1.328125q0.4375 0.421875 1.15625 0.421875zm7.6907043 -0.28125l-0.046875 0q-0.078125 0.203125 -0.21875 0.390625q-0.125 0.1875 -0.3125 0.328125q-0.1875 0.125 -0.4375 0.203125q-0.25 0.09375 -0.59375 0.09375q-0.859375 0 -1.390625 -0.546875q-0.515625 -0.546875 -0.515625 -1.546875l0 -3.53125l0.84375 0l0 3.375q0 0.765625 0.328125 1.140625q0.34375 0.359375 0.984375 0.359375q0.25 0 0.484375 -0.0625q0.25 -0.0625 0.4375 -0.1875q0.203125 -0.140625 0.3125 -0.328125q0.125 -0.203125 0.125 -0.484375l0 -3.8125l0.84375 0l0 5.5l-0.84375 0l0 -0.890625zm5.362549 0.890625q-0.640625 0 -0.9375 -0.34375q-0.28125 -0.359375 -0.28125 -0.90625l0 -3.53125l-1.828125 0l0 -0.71875l1.359375 0q0.28125 0 0.390625 -0.109375q0.109375 -0.109375 0.109375 -0.390625l0 -1.4375l0.8125 0l0 1.9375l2.515625 0l0 0.71875l-2.515625 0l0 4.0625l2.515625 0l0 0.71875l-2.140625 0z" fill-rule="nonzero"/><path fill="#000000" fill-opacity="0.0" d="m340.34308 116.36801l39.685028 0l0 45.259842l-39.685028 0z" fill-rule="evenodd"/><path fill="#000000" d="m359.3809 144.51988l0 -4.453125l-4.265625 0l0 -1.453125l4.265625 0l0 -4.453125l1.609375 0l0 4.453125l4.265625 0l0 1.453125l-4.265625 0l0 4.453125l-1.609375 0z" fill-rule="nonzero"/><path fill="#000000" fill-opacity="0.0" d="m309.13303 -10.666785l102.14172 0l0 38.771652l-102.14172 0z" fill-rule="evenodd"/><path fill="#000000" d="m342.44135 13.693215l0 -11.171875l4.0625 0q1.5625 0 2.375 0.859375q0.8125 0.84375 0.8125 2.359375q0 1.515625 -0.8125 2.3749995q-0.8125 0.84375 -2.375 0.84375l-2.71875 0l0 4.734375l-1.34375 0zm1.34375 -5.9062495l2.6875 0q0.84375 0 1.3125 -0.421875q0.484375 -0.421875 0.484375 -1.203125l0 -0.84375q0 -0.78125 -0.484375 -1.203125q-0.46875 -0.421875 -1.3125 -0.421875l-2.6875 0l0 4.09375zm8.053131 4.8124995l2.40625 0l0 -6.0781245l-2.40625 0l0 -1.078125l3.6875 0l0 2.078125l0.09375 0q0.25 -0.984375 0.953125 -1.53125q0.71875 -0.546875 1.828125 -0.546875l1.140625 0l0 1.28125l-1.546875 0q-1.109375 0 -1.796875 0.640625q-0.671875 0.625 -0.671875 1.6718745l0 3.5625l3.203125 0l0 1.09375l-6.890625 0l0 -1.09375zm13.162537 1.28125q-0.859375 0 -1.5625 -0.296875q-0.6875 -0.3125 -1.1875 -0.875q-0.484375 -0.5625 -0.734375 -1.359375q-0.25 -0.796875 -0.25 -1.78125q0 -0.984375 0.25 -1.7812495q0.25 -0.796875 0.734375 -1.359375q0.5 -0.578125 1.1875 -0.875q0.703125 -0.3125 1.5625 -0.3125q0.859375 0 1.5625 0.3125q0.703125 0.296875 1.1875 0.875q0.484375 0.5625 0.734375 1.359375q0.265625 0.7968745 0.265625 1.7812495q0 0.984375 -0.265625 1.78125q-0.25 0.796875 -0.734375 1.359375q-0.484375 0.5625 -1.1875 0.875q-0.703125 0.296875 -1.5625 0.296875zm0 -1.09375q1.078125 0 1.734375 -0.640625q0.65625 -0.640625 0.65625 -1.984375l0 -1.1875q0 -1.3437495 -0.65625 -1.9843745q-0.65625 -0.640625 -1.734375 -0.640625q-1.0625 0 -1.71875 0.640625q-0.65625 0.640625 -0.65625 1.9843745l0 1.1875q0 1.34375 0.65625 1.984375q0.65625 0.640625 1.71875 0.640625zm6.428131 3.015625l4.0 0l0 -9.28125l-4.140625 0l0 -1.078125l5.421875 0l0 9.5625q0 0.828125 -0.4375 1.359376q-0.4375 0.53125 -1.375 0.53125l-3.46875 0l0 -1.093751zm4.640625 -12.1875q-0.546875 0 -0.78125 -0.234375q-0.21875 -0.234375 -0.21875 -0.578125l0 -0.265625q0 -0.34375 0.21875 -0.578125q0.234375 -0.234375 0.78125 -0.234375q0.5625 0 0.78125 0.234375q0.234375 0.234375 0.234375 0.578125l0 0.265625q0 0.34375 -0.234375 0.578125q-0.21875 0.234375 -0.78125 0.234375z" fill-rule="nonzero"/><path fill="#000000" fill-opacity="0.0" d="m106.42889 115.36268l47.84252 0l0 45.25985l-47.84252 0z" fill-rule="evenodd"/><path fill="#000000" d="m126.83134 130.32143q0.78125 0 1.1718674 -0.34375q0.390625 -0.34375 0.390625 -0.890625l0 -0.078125q0 -0.59375 -0.390625 -0.890625q-0.37499237 -0.296875 -0.9843674 -0.296875q-0.59375 0 -0.96875 0.265625q-0.359375 0.25 -0.59375 0.671875l-0.671875 -0.5q0.140625 -0.234375 0.34375 -0.453125q0.203125 -0.21875 0.46875 -0.390625q0.28125 -0.171875 0.625 -0.265625q0.359375 -0.109375 0.828125 -0.109375q0.46875 0 0.890625 0.125q0.42186737 0.109375 0.7187424 0.359375q0.3125 0.234375 0.484375 0.59375q0.1875 0.34375 0.1875 0.796875q0 0.359375 -0.125 0.65625q-0.109375 0.28125 -0.3125 0.5q-0.1875 0.203125 -0.453125 0.359375q-0.265625 0.140625 -0.5624924 0.21875l0 0.046875q0.31249237 0.0625 0.5937424 0.203125q0.296875 0.140625 0.515625 0.375q0.21875 0.234375 0.34375 0.5625q0.140625 0.3125 0.140625 0.734375q0 0.46875 -0.1875 0.875q-0.1875 0.40625 -0.53125 0.6875q-0.328125 0.28125 -0.7968674 0.4375q-0.46875 0.15625 -1.046875 0.15625q-0.484375 0 -0.875 -0.109375q-0.375 -0.09375 -0.671875 -0.28125q-0.28125 -0.1875 -0.5 -0.40625q-0.21875 -0.21875 -0.390625 -0.46875l0.671875 -0.515625q0.140625 0.234375 0.296875 0.421875q0.171875 0.171875 0.375 0.3125q0.203125 0.125 0.46875 0.203125q0.265625 0.0625 0.625 0.0625q0.78125 0 1.2031174 -0.359375q0.421875 -0.359375 0.421875 -1.03125l0 -0.078125q0 -0.671875 -0.40625 -1.03125q-0.40624237 -0.359375 -1.2343674 -0.359375l-0.875 0l0 -0.765625l0.8125 0zm9.237556 4.28125l-4.96875 0l0 -0.921875l2.484375 -2.234375q0.546875 -0.484375 0.890625 -1.0q0.359375 -0.515625 0.359375 -1.09375l0 -0.125q0 -0.671875 -0.359375 -1.03125q-0.34375 -0.375 -1.03125 -0.375q-0.6875 0 -1.0625 0.34375q-0.359375 0.34375 -0.546875 0.921875l-0.796875 -0.296875q0.109375 -0.34375 0.296875 -0.65625q0.1875 -0.3125 0.46875 -0.546875q0.296875 -0.25 0.703125 -0.390625q0.40625 -0.15625 0.953125 -0.15625q0.5625 0 0.984375 0.15625q0.4375 0.15625 0.71875 0.453125q0.296875 0.28125 0.453125 0.6875q0.15625 0.390625 0.15625 0.859375q0 0.421875 -0.125 0.796875q-0.125 0.375 -0.34375 0.71875q-0.21875 0.328125 -0.515625 0.65625q-0.296875 0.328125 -0.671875 0.640625l-2.078125 1.8125l4.03125 0l0 0.78125z" fill-rule="nonzero"/><path fill="#000000" d="m127.48759 140.68393q-0.359375 0 -0.515625 -0.140625q-0.15625 -0.15625 -0.15625 -0.390625l0 -0.171875q0 -0.234375 0.15625 -0.390625q0.15625 -0.15625 0.515625 -0.15625q0.375 0 0.5156174 0.15625q0.15625 0.15625 0.15625 0.390625l0 0.171875q0 0.234375 -0.15625 0.390625q-0.14061737 0.140625 -0.5156174 0.140625zm-2.40625 6.0l1.984375 0l0 -4.0625l-1.984375 0l0 -0.71875l2.84375 0l0 4.78125l1.8437424 0l0 0.71875l-4.6874924 0l0 -0.71875zm6.3156815 0.71875l0 -5.5l0.84375 0l0 0.890625l0.046875 0q0.09375 -0.203125 0.21875 -0.375q0.125 -0.1875 0.3125 -0.328125q0.1875 -0.140625 0.4375 -0.21875q0.265625 -0.09375 0.59375 -0.09375q0.875 0 1.390625 0.546875q0.515625 0.546875 0.515625 1.546875l0 3.53125l-0.84375 0l0 -3.375q0 -0.765625 -0.328125 -1.125q-0.328125 -0.375 -0.96875 -0.375q-0.265625 0 -0.515625 0.078125q-0.234375 0.0625 -0.4375 0.1875q-0.1875 0.125 -0.3125 0.328125q-0.109375 0.203125 -0.109375 0.46875l0 3.8125l-0.84375 0z" fill-rule="nonzero"/><path fill="#000000" fill-opacity="0.0" d="m414.9486 115.36268l47.84253 0l0 45.25985l-47.84253 0z" fill-rule="evenodd"/><path fill="#000000" d="m435.35107 130.32143q0.78125 0 1.171875 -0.34375q0.390625 -0.34375 0.390625 -0.890625l0 -0.078125q0 -0.59375 -0.390625 -0.890625q-0.375 -0.296875 -0.984375 -0.296875q-0.59375 0 -0.96875 0.265625q-0.359375 0.25 -0.59375 0.671875l-0.671875 -0.5q0.140625 -0.234375 0.34375 -0.453125q0.203125 -0.21875 0.46875 -0.390625q0.28125 -0.171875 0.625 -0.265625q0.359375 -0.109375 0.828125 -0.109375q0.46875 0 0.890625 0.125q0.421875 0.109375 0.71875 0.359375q0.3125 0.234375 0.484375 0.59375q0.1875 0.34375 0.1875 0.796875q0 0.359375 -0.125 0.65625q-0.109375 0.28125 -0.3125 0.5q-0.1875 0.203125 -0.453125 0.359375q-0.265625 0.140625 -0.5625 0.21875l0 0.046875q0.3125 0.0625 0.59375 0.203125q0.296875 0.140625 0.515625 0.375q0.21875 0.234375 0.34375 0.5625q0.140625 0.3125 0.140625 0.734375q0 0.46875 -0.1875 0.875q-0.1875 0.40625 -0.53125 0.6875q-0.328125 0.28125 -0.796875 0.4375q-0.46875 0.15625 -1.046875 0.15625q-0.484375 0 -0.875 -0.109375q-0.375 -0.09375 -0.671875 -0.28125q-0.28125 -0.1875 -0.5 -0.40625q-0.21875 -0.21875 -0.390625 -0.46875l0.671875 -0.515625q0.140625 0.234375 0.296875 0.421875q0.171875 0.171875 0.375 0.3125q0.203125 0.125 0.46875 0.203125q0.265625 0.0625 0.625 0.0625q0.78125 0 1.203125 -0.359375q0.421875 -0.359375 0.421875 -1.03125l0 -0.078125q0 -0.671875 -0.40625 -1.03125q-0.40625 -0.359375 -1.234375 -0.359375l-0.875 0l0 -0.765625l0.8125 0zm9.237549 4.28125l-4.96875 0l0 -0.921875l2.484375 -2.234375q0.546875 -0.484375 0.890625 -1.0q0.359375 -0.515625 0.359375 -1.09375l0 -0.125q0 -0.671875 -0.359375 -1.03125q-0.34375 -0.375 -1.03125 -0.375q-0.6875 0 -1.0625 0.34375q-0.359375 0.34375 -0.546875 0.921875l-0.796875 -0.296875q0.109375 -0.34375 0.296875 -0.65625q0.1875 -0.3125 0.46875 -0.546875q0.296875 -0.25 0.703125 -0.390625q0.40625 -0.15625 0.953125 -0.15625q0.5625 0 0.984375 0.15625q0.4375 0.15625 0.71875 0.453125q0.296875 0.28125 0.453125 0.6875q0.15625 0.390625 0.15625 0.859375q0 0.421875 -0.125 0.796875q-0.125 0.375 -0.34375 0.71875q-0.21875 0.328125 -0.515625 0.65625q-0.296875 0.328125 -0.671875 0.640625l-2.078125 1.8125l4.03125 0l0 0.78125z" fill-rule="nonzero"/><path fill="#000000" d="m432.48227 147.52768q-0.578125 0 -1.046875 -0.203125q-0.46875 -0.203125 -0.796875 -0.578125q-0.3125 -0.375 -0.484375 -0.90625q-0.171875 -0.53125 -0.171875 -1.1875q0 -0.65625 0.171875 -1.1875q0.171875 -0.53125 0.484375 -0.90625q0.328125 -0.375 0.796875 -0.578125q0.46875 -0.203125 1.046875 -0.203125q0.5625 0 1.03125 0.203125q0.46875 0.203125 0.78125 0.578125q0.328125 0.375 0.5 0.90625q0.171875 0.53125 0.171875 1.1875q0 0.65625 -0.171875 1.1875q-0.171875 0.53125 -0.5 0.90625q-0.3125 0.375 -0.78125 0.578125q-0.46875 0.203125 -1.03125 0.203125zm0 -0.734375q0.703125 0 1.140625 -0.421875q0.4375 -0.421875 0.4375 -1.328125l0 -0.78125q0 -0.890625 -0.4375 -1.3125q-0.4375 -0.4375 -1.140625 -0.4375q-0.71875 0 -1.15625 0.4375q-0.4375 0.421875 -0.4375 1.3125l0 0.78125q0 0.90625 0.4375 1.328125q0.4375 0.421875 1.15625 0.421875zm7.6907043 -0.28125l-0.046875 0q-0.078125 0.203125 -0.21875 0.390625q-0.125 0.1875 -0.3125 0.328125q-0.1875 0.125 -0.4375 0.203125q-0.25 0.09375 -0.59375 0.09375q-0.859375 0 -1.390625 -0.546875q-0.515625 -0.546875 -0.515625 -1.546875l0 -3.53125l0.84375 0l0 3.375q0 0.765625 0.328125 1.140625q0.34375 0.359375 0.984375 0.359375q0.25 0 0.484375 -0.0625q0.25 -0.0625 0.4375 -0.1875q0.203125 -0.140625 0.3125 -0.328125q0.125 -0.203125 0.125 -0.484375l0 -3.8125l0.84375 0l0 5.5l-0.84375 0l0 -0.890625zm5.362549 0.890625q-0.640625 0 -0.9375 -0.34375q-0.28125 -0.359375 -0.28125 -0.90625l0 -3.53125l-1.828125 0l0 -0.71875l1.359375 0q0.28125 0 0.390625 -0.109375q0.109375 -0.109375 0.109375 -0.390625l0 -1.4375l0.8125 0l0 1.9375l2.515625 0l0 0.71875l-2.515625 0l0 4.0625l2.515625 0l0 0.71875l-2.140625 0z" fill-rule="nonzero"/><path fill="#000000" fill-opacity="0.0" d="m-10.774917 66.49531l102.14173 0l0 38.77166l-102.14173 0z" fill-rule="evenodd"/><path fill="#000000" d="m17.639647 90.85531l0 -1.078125l2.78125 0l0 -9.015625l-2.78125 0l0 -1.078125l6.90625 0l0 1.078125l-2.78125 0l0 9.015625l2.78125 0l0 1.078125l-6.90625 0zm9.818771 0l0 -8.25l1.28125 0l0 1.34375l0.0625 0q0.140625 -0.3125 0.328125 -0.59375q0.1875 -0.28125 0.46875 -0.484375q0.28125 -0.203125 0.65625 -0.328125q0.390625 -0.140625 0.90625 -0.140625q1.2968731 0 2.078123 0.828125q0.78125 0.828125 0.78125 2.328125l0 5.296875l-1.28125 0l0 -5.078125q0 -1.125 -0.5 -1.671875q-0.4843731 -0.5625 -1.4531231 -0.5625q-0.375 0 -0.75 0.09375q-0.359375 0.09375 -0.65625 0.296875q-0.28125 0.1875 -0.46875 0.5q-0.171875 0.296875 -0.171875 0.6875l0 5.734375l-1.28125 0zm9.553144 -8.25l1.28125 0l0 1.34375l0.0625 0q0.796875 -1.546875 2.546875 -1.546875q1.515625 0 2.375 1.140625q0.859375 1.140625 0.859375 3.1875q0 2.046875 -0.859375 3.1875q-0.859375 1.125 -2.375 1.125q-1.75 0 -2.546875 -1.53125l-0.0625 0l0 4.546875l-1.28125 0l0 -11.453125zm3.390625 7.3125q1.125 0 1.734375 -0.671875q0.625 -0.6875 0.625 -1.8125l0 -1.40625q0 -1.125 -0.625 -1.796875q-0.609375 -0.6875 -1.734375 -0.6875q-0.421875 0 -0.8125 0.109375q-0.375 0.109375 -0.671875 0.328125q-0.28125 0.21875 -0.453125 0.53125q-0.171875 0.3125 -0.171875 0.734375l0 2.96875q0 0.421875 0.171875 0.734375q0.171875 0.3125 0.453125 0.53125q0.296875 0.203125 0.671875 0.328125q0.390625 0.109375 0.8125 0.109375zm11.443771 -0.40625l-0.0625 0q-0.125 0.296875 -0.328125 0.578125q-0.1875 0.28125 -0.46875 0.5q-0.28125 0.203125 -0.671875 0.328125q-0.375 0.125 -0.875 0.125q-1.296875 0 -2.09375 -0.8125q-0.78125 -0.828125 -0.78125 -2.328125l0 -5.296875l1.28125 0l0 5.0625q0 1.140625 0.5 1.703125q0.5 0.546875 1.453125 0.546875q0.390625 0 0.75 -0.09375q0.375 -0.109375 0.65625 -0.296875q0.296875 -0.1875 0.46875 -0.484375q0.171875 -0.296875 0.171875 -0.71875l0 -5.71875l1.28125 0l0 8.25l-1.28125 0l0 -1.34375zm8.05315 1.34375q-0.953125 0 -1.390625 -0.53125q-0.4375 -0.53125 -0.4375 -1.359375l0 -5.28125l-2.75 0l0 -1.078125l2.046875 0q0.421875 0 0.578125 -0.171875q0.171875 -0.171875 0.171875 -0.59375l0 -2.15625l1.234375 0l0 2.921875l3.765625 0l0 1.078125l-3.765625 0l0 6.078125l3.765625 0l0 1.09375l-3.21875 0z" fill-rule="nonzero"/><path fill="#000000" fill-opacity="0.0" d="m709.3065 66.49531l102.14172 0l0 38.77166l-102.14172 0z" fill-rule="evenodd"/><path fill="#000000" d="m736.3742 91.04281q-1.015625 0 -1.765625 -0.390625q-0.734375 -0.390625 -1.21875 -1.125q-0.46875 -0.734375 -0.703125 -1.796875q-0.21875 -1.078125 -0.21875 -2.453125q0 -1.359375 0.21875 -2.4375q0.234375 -1.09375 0.703125 -1.828125q0.484375 -0.734375 1.21875 -1.125q0.75 -0.390625 1.765625 -0.390625q1.03125 0 1.765625 0.390625q0.734375 0.390625 1.203125 1.125q0.484375 0.734375 0.703125 1.828125q0.234375 1.078125 0.234375 2.4375q0 1.375 -0.234375 2.453125q-0.21875 1.0625 -0.703125 1.796875q-0.46875 0.734375 -1.203125 1.125q-0.734375 0.390625 -1.765625 0.390625zm0 -1.15625q0.671875 0 1.140625 -0.265625q0.46875 -0.265625 0.765625 -0.75q0.3125 -0.484375 0.4375 -1.15625q0.140625 -0.6875 0.140625 -1.53125l0 -1.828125q0 -0.828125 -0.140625 -1.515625q-0.125 -0.6875 -0.4375 -1.15625q-0.296875 -0.484375 -0.765625 -0.75q-0.46875 -0.265625 -1.140625 -0.265625q-0.671875 0 -1.140625 0.265625q-0.453125 0.265625 -0.765625 0.75q-0.296875 0.46875 -0.4375 1.15625q-0.140625 0.6875 -0.140625 1.515625l0 1.828125q0 0.84375 0.140625 1.53125q0.140625 0.671875 0.4375 1.15625q0.3125 0.484375 0.765625 0.75q0.46875 0.265625 1.140625 0.265625zm11.553162 -0.375l-0.0625 0q-0.125 0.296875 -0.328125 0.578125q-0.1875 0.28125 -0.46875 0.5q-0.28125 0.203125 -0.671875 0.328125q-0.375 0.125 -0.875 0.125q-1.296875 0 -2.09375 -0.8125q-0.78125 -0.828125 -0.78125 -2.328125l0 -5.296875l1.28125 0l0 5.0625q0 1.140625 0.5 1.703125q0.5 0.546875 1.453125 0.546875q0.390625 0 0.75 -0.09375q0.375 -0.109375 0.65625 -0.296875q0.296875 -0.1875 0.46875 -0.484375q0.171875 -0.296875 0.171875 -0.71875l0 -5.71875l1.28125 0l0 8.25l-1.28125 0l0 -1.34375zm8.053101 1.34375q-0.953125 0 -1.390625 -0.53125q-0.4375 -0.53125 -0.4375 -1.359375l0 -5.28125l-2.75 0l0 -1.078125l2.046875 0q0.421875 0 0.578125 -0.171875q0.171875 -0.171875 0.171875 -0.59375l0 -2.15625l1.234375 0l0 2.921875l3.765625 0l0 1.078125l-3.765625 0l0 6.078125l3.765625 0l0 1.09375l-3.21875 0zm5.9125366 -8.25l1.28125 0l0 1.34375l0.0625 0q0.796875 -1.546875 2.546875 -1.546875q1.515625 0 2.375 1.140625q0.859375 1.140625 0.859375 3.1875q0 2.046875 -0.859375 3.1875q-0.859375 1.125 -2.375 1.125q-1.75 0 -2.546875 -1.53125l-0.0625 0l0 4.546875l-1.28125 0l0 -11.453125zm3.390625 7.3125q1.125 0 1.734375 -0.671875q0.625 -0.6875 0.625 -1.8125l0 -1.40625q0 -1.125 -0.625 -1.796875q-0.609375 -0.6875 -1.734375 -0.6875q-0.421875 0 -0.8125 0.109375q-0.375 0.109375 -0.671875 0.328125q-0.28125 0.21875 -0.453125 0.53125q-0.171875 0.3125 -0.171875 0.734375l0 2.96875q0 0.421875 0.171875 0.734375q0.171875 0.3125 0.453125 0.53125q0.296875 0.203125 0.671875 0.328125q0.390625 0.109375 0.8125 0.109375zm11.443787 -0.40625l-0.0625 0q-0.125 0.296875 -0.328125 0.578125q-0.1875 0.28125 -0.46875 0.5q-0.28125 0.203125 -0.671875 0.328125q-0.375 0.125 -0.875 0.125q-1.296875 0 -2.09375 -0.8125q-0.78125 -0.828125 -0.78125 -2.328125l0 -5.296875l1.28125 0l0 5.0625q0 1.140625 0.5 1.703125q0.5 0.546875 1.453125 0.546875q0.390625 0 0.75 -0.09375q0.375 -0.109375 0.65625 -0.296875q0.296875 -0.1875 0.46875 -0.484375q0.171875 -0.296875 0.171875 -0.71875l0 -5.71875l1.28125 0l0 8.25l-1.28125 0l0 -1.34375zm8.053162 1.34375q-0.953125 0 -1.390625 -0.53125q-0.4375 -0.53125 -0.4375 -1.359375l0 -5.28125l-2.75 0l0 -1.078125l2.046875 0q0.421875 0 0.578125 -0.171875q0.171875 -0.171875 0.171875 -0.59375l0 -2.15625l1.234375 0l0 2.921875l3.765625 0l0 1.078125l-3.765625 0l0 6.078125l3.765625 0l0 1.09375l-3.21875 0z" fill-rule="nonzero"/><path fill="#000000" fill-opacity="0.0" d="m648.93756 115.36276l39.68506 0l0 45.259842l-39.68506 0z" fill-rule="evenodd"/><path fill="#000000" d="m667.9754 143.51463l0 -4.453125l-4.265625 0l0 -1.453125l4.265625 0l0 -4.453125l1.609375 0l0 4.453125l4.265625 0l0 1.453125l-4.265625 0l0 4.453125l-1.609375 0z" fill-rule="nonzero"/></g></svg>